<?xml version="1.0" standalone="no"?>
<!DOCTYPE svg PUBLIC "-//W3C//DTD SVG 1.1//EN" "http://www.w3.org/Graphics/SVG/1.1/DTD/svg11.dtd" >
<svg xmlns="http://www.w3.org/2000/svg" xmlns:xlink="http://www.w3.org/1999/xlink" version="1.1">
<metadata>
Created by FontForge 20170924 at Mon Jan 19 19:52:03 2015
 By www-data
Copyright (c) 2015 by Guilhem Greco/ Hypefontso^. All rights reserved.
</metadata>
<defs>
<font id="NEOTERIC-Bold" horiz-adv-x="1019" >
  <font-face 
    font-family="NEOTERIC"
    font-weight="700"
    font-stretch="normal"
    units-per-em="1000"
    panose-1="0 0 0 0 0 0 0 0 0 0"
    ascent="818"
    descent="-182"
    x-height="526"
    cap-height="659"
    bbox="-47 -263.96 1106 950"
    underline-thickness="50"
    underline-position="-100"
    unicode-range="U+000A-F8FF"
  />
<missing-glyph horiz-adv-x="395" 
 />
    <glyph glyph-name=".notdef" horiz-adv-x="395" 
 />
    <glyph glyph-name="NULL" horiz-adv-x="0" 
 />
    <glyph glyph-name="NULL" horiz-adv-x="0" 
 />
    <glyph glyph-name="nonmarkingreturn" unicode="&#xd;" horiz-adv-x="300" 
 />
    <glyph glyph-name="space" unicode=" " horiz-adv-x="320" 
 />
    <glyph glyph-name="Euro" unicode="&#x20ac;" horiz-adv-x="643" 
d="M623 56q-47 -31 -99 -46.5t-96 -15.5q-55 0 -106 16.5t-93 47t-74 74.5t-48 100h-92v57h81q-2 12 -2 23.5v18.5v14.5t2 18.5h-81v58h92q14 58 46.5 103.5t76 77t95 47.5t105.5 16q68 0 160 -40q-11 -17 -15 -26t-6 -15q0 -2 -1 -7t-1 -6q-82 35 -138 35q-39 0 -76.5 -11
t-70.5 -31.5t-60 -50.5t-45 -68v1l-8 -21q-2 -3 -1 0t-1 -4h306v-58h-320q-1 -8 -1.5 -17.5t-0.5 -17.5v-19t2 -21h320v-57h-304q14 -44 40 -77.5t60.5 -56t75.5 -34.5t85 -12q38 0 79.5 12.5t81.5 39.5z" />
    <glyph glyph-name="F" unicode="F" horiz-adv-x="436" 
d="M432 659v-58h-314v-188h247v-58h-247v-355h-58v659h372z" />
    <glyph glyph-name="G" unicode="G" horiz-adv-x="747" 
d="M704 410q0 -2 0.5 -9.5t0.5 -11.5v-9q1 -6 1 -16v-18q0 -39 -6.5 -79.5t-18.5 -70.5q-21 -47 -54 -84.5t-73.5 -63.5t-86 -40t-92.5 -14q-68 0 -128.5 27t-106 73.5t-72 107t-26.5 128.5q0 69 27 130.5t73 107.5t106.5 72.5t126.5 26.5q35 0 72 -8.5t80 -27.5l-23 -56
q-38 18 -70 26t-58 8q-58 0 -108.5 -23t-87.5 -62t-58 -89.5t-21 -104.5q0 -59 22.5 -109.5t60.5 -88t87.5 -59t103.5 -21.5q38 0 75 12t70 34t60.5 53t45.5 69q9 26 16.5 61t7.5 65q0 1 -0.5 2t-0.5 3h-238v59h293z" />
    <glyph glyph-name="H" unicode="H" horiz-adv-x="660" 
d="M516 349h-396v-349h-58v659h58v-252h396v252h58v-659h-58v349z" />
    <glyph glyph-name="I" unicode="I" horiz-adv-x="212" 
d="M112 659v-659h-57v659h57z" />
    <glyph glyph-name="J" unicode="J" horiz-adv-x="329" 
d="M269 245q0 -44 -9 -88.5t-40 -79.5q-19 -24 -45.5 -39.5t-57 -25.5t-64 -14t-66.5 -4v57q25 0 52 4t52 11.5t47 19.5t37 28q20 27 28.5 62.5t8.5 68.5v414h57v-414v0z" />
    <glyph glyph-name="K" unicode="K" horiz-adv-x="553" 
d="M517 31l-48 -37l-342 315l-7 -8v-301h-58v659h58v-278q80 71 160.5 143t160.5 143l40 -41l-310 -277z" />
    <glyph glyph-name="L" unicode="L" horiz-adv-x="499" 
d="M492 58v-58h-430v659h57v-601h373z" />
    <glyph glyph-name="M" unicode="M" horiz-adv-x="724" 
d="M635 683v-683h-58v519l-227 -281l-229 284v-522h-57v684l286 -353z" />
    <glyph glyph-name="N" unicode="N" horiz-adv-x="647" 
d="M562 661v-671l-442 527v-517h-58v670l442 -528v519h58z" />
    <glyph glyph-name="O" unicode="O" horiz-adv-x="782" 
d="M379 665q69 0 130 -26.5t106.5 -72t71.5 -107t26 -130.5t-26 -130.5t-71.5 -107t-106.5 -72t-130 -26.5q-70 0 -131.5 26.5t-107 72t-72 107t-26.5 130.5t26.5 130.5t72 107t107 72t131.5 26.5zM655 329q0 58 -21.5 108.5t-59 88t-88 59.5t-107.5 22q-58 0 -109 -22
t-88.5 -59.5t-59.5 -88t-22 -108.5t22 -108.5t59.5 -88t88.5 -59.5t109 -22q57 0 107.5 22t88 59.5t59 88t21.5 108.5z" />
    <glyph glyph-name="OE" unicode="&#x152;" horiz-adv-x="951" 
d="M912 58v-58h-531q-69 0 -129 26t-104.5 70.5t-70.5 104.5t-26 128t26 128t71 105t105 71t129 26h508v-57h-323v-189h217v-57h-217v-298h345zM508 58v544h-126q-57 0 -106.5 -21.5t-86.5 -58.5t-58.5 -86.5t-21.5 -106.5q0 -56 21.5 -105.5t58 -86.5t86 -58t106.5 -21h127
z" />
    <glyph glyph-name="P" unicode="P" horiz-adv-x="450" 
d="M118 601v-291h125q29 0 54.5 11.5t44 31t29.5 46t11 56.5t-11 57t-30 46.5t-44.5 31t-54.5 11.5h-124zM61 0v659h180q41 0 77 -16t63 -44t43 -65t16 -79t-15.5 -79t-42 -64.5t-62.5 -43.5t-77 -16h-125v-252h-57z" />
    <glyph glyph-name="Q" unicode="Q" horiz-adv-x="769" 
d="M701 329q0 -91 -43 -166t-123 -124q46 -25 83.5 -39.5t57.5 -14.5q2 0 16 6l9 2l24 -52q-14 -5 -27 -8.5t-22 -3.5q-35 0 -89 21t-118 59q-48 -16 -103 -16q-69 0 -130.5 26.5t-107 72t-72 107t-26.5 130.5t26.5 130.5t72 107t107 72t130.5 26.5q70 0 131 -26.5
t106.5 -72t71.5 -107t26 -130.5zM480 75q78 41 121 107t43 147q0 58 -22 108.5t-59.5 88t-88 59.5t-108.5 22t-108.5 -22t-88.5 -59.5t-60 -88t-22 -108.5q0 -29 5.5 -54.5t16.5 -52.5q9 2 12 1.5t8 -0.5q19 0 46.5 -4t61.5 -13.5t71.5 -27t75.5 -44.5q24 -18 45 -32.5
t46 -29.5q1 0 1.5 1t1.5 1v-1zM366 51h18t15 1q-13 9 -25.5 18t-25.5 19h1q-32 23 -61.5 38t-56.5 23t-50 11.5t-41 3.5q39 -54 97 -84t129 -30z" />
    <glyph glyph-name="R" unicode="R" horiz-adv-x="559" 
d="M120 251v-251h-58v659h189q43 0 79.5 -17t63.5 -45.5t42.5 -65t15.5 -75.5q0 -30 -8 -59t-24 -53.5t-38.5 -43.5t-50.5 -31q20 -26 40.5 -52.5t40.5 -52.5l126 -164h-73l-194 251h-151zM120 601v-292h131q30 0 56.5 11.5t45.5 31t30 46.5t11 57t-11 56.5t-30 46.5
t-45.5 31.5t-56.5 11.5h-131z" />
    <glyph glyph-name="S" unicode="S" horiz-adv-x="604" 
d="M540 183q0 -46 -19.5 -81.5t-53 -59.5t-78 -36.5t-94.5 -12.5q-21 0 -47 3t-53.5 8.5t-55 13t-52.5 16.5l24 48l32 -7l28 -7t34 -7t36 -5.5t33 -2.5h41q33 0 63 9t53 26.5t36.5 43t13.5 58.5q0 14 -7 31t-15 28v-1q-14 19 -31.5 30.5t-36 17.5t-39 8.5t-40.5 4.5
q-34 2 -69 6.5t-67 24.5v-1q-36 20 -59.5 58t-23.5 86q0 66 49 113t130 64h-1q12 2 35.5 4.5t52.5 2.5q16 0 37 -3.5t43.5 -8.5t44.5 -12t40 -14l-23 -54q-26 9 -47.5 15.5t-41 10t-38 5.5t-38.5 2q-31 0 -63.5 -7.5t-59.5 -22.5t-44.5 -39t-17.5 -57q0 -11 4 -23.5
t11 -24.5t16 -23t19 -18q26 -16 54.5 -20.5t57.5 -6.5q34 -2 73.5 -10t73.5 -29q18 -12 32.5 -28.5t25 -35.5t16.5 -39.5t6 -40.5z" />
    <glyph glyph-name="T" unicode="T" horiz-adv-x="578" 
d="M563 659v-58h-254v-601h-58v601h-256v58h568z" />
    <glyph glyph-name="U" unicode="U" horiz-adv-x="663" 
d="M321 -7q-55 0 -103.5 20.5t-85 55t-57.5 81t-21 98.5v411h58v-411q0 -41 16.5 -77t44.5 -62.5t66 -42t82 -15.5q43 0 81 15.5t66 42t44 62.5t16 77v411h57v-411q0 -52 -21 -98.5t-57 -81t-84 -55t-102 -20.5z" />
    <glyph glyph-name="V" unicode="V" horiz-adv-x="623" 
d="M62 665l240 -529q12 28 29 66t36 80.5t39 87.5t40 87q45 99 95 208l52 -24l-291 -651l-294 652z" />
    <glyph glyph-name="W" unicode="W" horiz-adv-x="1029" 
d="M435 652l61 -144q12 28 23.5 53.5t19.5 45.5q10 23 19 43l52 -23l-82 -193q17 -41 34.5 -76.5t35.5 -70t35.5 -70.5t35.5 -78q12 28 29 66t36.5 80t39.5 87t40 87q46 99 95 206l52 -24l-292 -650l-173 371l-171 -371l-292 650l52 24l240 -527l140 296q-20 48 -41.5 98
t-41.5 98z" />
    <glyph glyph-name="X" unicode="X" horiz-adv-x="686" 
d="M625 632l-257 -302l130 -152q31 -38 64.5 -77.5t62.5 -74.5l-47 -34l-246 294l-249 -298l-41 41l254 301l-254 299l40 40l250 -294q59 71 123.5 147t124.5 146z" />
    <glyph glyph-name="Y" unicode="Y" horiz-adv-x="542" 
d="M231 265q-59 94 -120 191t-119 191l53 26l216 -346q53 85 108.5 173t107.5 173l52 -26l-239 -383q0 -31 -0.5 -62.5t-0.5 -65.5v-136h-56z" />
    <glyph glyph-name="Z" unicode="Z" horiz-adv-x="588" 
d="M531 58v-58h-550l428 601h-398v58h510l-428 -601h438z" />
    <glyph glyph-name="ampersand" unicode="&#x26;" horiz-adv-x="625" 
d="M300 196q24 35 46.5 49t44.5 14q18 0 36.5 -5t37.5 -13q15 -6 30 -10.5t32 -4.5q11 0 24 6.5t32 21.5l31 -47q-25 -17 -49 -27t-45 -10q-11 0 -19.5 0.5t-17.5 3.5q-17 -39 -37 -67t-47 -53q-29 -23 -66 -39t-81 -16h-13q-35 0 -69 14t-60.5 38t-42.5 56t-16 68
q0 45 26.5 84t62.5 63q-39 19 -65 54t-26 80q0 38 15 75t41.5 66t61.5 46.5t76 17.5q55 0 100.5 -32t77.5 -83l-47 -32q-23 42 -57.5 67t-70.5 25q-29 0 -55 -12.5t-45 -32.5t-30 -46.5t-11 -53.5q0 -29 14 -49.5t36 -33t50 -18t56 -5.5q9 0 18 0.5t29 2.5v-62
q-22 4 -28 4.5t-9 0.5q-28 0 -57 -9t-53 -26t-39 -40.5t-15 -53.5q0 -26 11.5 -48t30.5 -37.5t43 -24t49 -8.5h8v-1q30 1 59 13t53 31.5t42.5 45t29.5 53.5q-8 3 -17 5.5t-18 2.5q-12 0 -24.5 -9.5t-26.5 -32.5z" />
    <glyph glyph-name="asterisk" unicode="*" horiz-adv-x="269" 
d="M257 547l2 -50l-80 -13q5 -6 10.5 -12.5t10.5 -11.5q8 -11 18.5 -24t17.5 -20l-47 -26l-50 61l-30 -78l-46 21l29 75l-86 -14l-2 52l79 12l-26 32t-25 31l37 38l55 -67l30 80l45 -23l-27 -76z" />
    <glyph glyph-name="braceleft" unicode="{" horiz-adv-x="199" 
d="M189 706q-30 -18 -47.5 -43.5t-26.5 -54.5t-12.5 -61.5t-5.5 -65.5q0 -3 -0.5 -6.5t-0.5 -6.5q-4 -43 -10 -87t-23 -82q18 -39 24.5 -87t10.5 -95q2 -33 5.5 -66t14 -63t30 -56.5t53.5 -47.5l-34 -51q-40 27 -63.5 60.5t-36 70t-17.5 75t-8 75.5q0 2 -0.5 -2t-0.5 -2v6
q0 2 -0.5 5t-0.5 5l1 -1q-5 42 -12.5 86.5t-35.5 87.5q28 45 36 91.5t13 92.5v1q3 37 8.5 76t18.5 76t36.5 71t62.5 61l24 -42z" />
    <glyph glyph-name="braceright" unicode="}" horiz-adv-x="200" 
d="M27 769q39 -28 62.5 -61t36.5 -68.5t18 -72t8 -71.5v-8q0 -2 0.5 -3t0.5 -3v1q4 -44 12 -91t37 -93q-16 -24 -25 -49t-14 -50t-7 -49.5t-4 -47.5q-3 -35 -8 -72t-18 -72t-36 -67.5t-62 -58.5l-34 51q33 21 52.5 48t30 57.5t14 63t6.5 65.5q3 46 9.5 94.5t23.5 86.5
q-17 38 -23 87.5t-9 93.5q-3 32 -6.5 64.5t-14 62.5t-29.5 57t-52 48z" />
    <glyph glyph-name="bracketleft" unicode="[" horiz-adv-x="259" 
d="M58 745h206v-58h-149v-725h149v-58h-206v841z" />
    <glyph glyph-name="bracketright" unicode="]" horiz-adv-x="262" 
d="M193 -96h-207v58h149v725h-149v58h207v-841z" />
    <glyph glyph-name="cent" unicode="&#xa2;" horiz-adv-x="508" 
d="M490 137q-44 -36 -92.5 -54.5t-97.5 -18.5q-16 0 -34 1.5t-34 6.5l-10 -36l-11 -36h-59l27 92q-72 34 -110.5 99t-38.5 143q0 5 0.5 8.5t0.5 7.5v8q7 53 31 98t60 77.5t81 51t95 18.5h17q4 14 9 28.5t8 27.5h61l-20 -66q28 -7 56 -23t56 -38l-36 -49q-26 20 -49 33
t-43 20q-27 -104 -54.5 -204t-55.5 -204q14 -3 26 -4.5t26 -1.5q38 0 78 17t78 49zM299 544q-39 -1 -74 -15.5t-63 -40t-47 -59t-25 -72.5q-2 -30 4 -60t19.5 -57t34 -50t46.5 -38z" />
    <glyph glyph-name="currency" unicode="&#xa4;" horiz-adv-x="460" 
d="M205 1v62h-34v-62h-58v62h-58v535h58v61h58v-61h34v61h58v-61q29 0 54.5 -12t44.5 -32t30 -46t11 -53q0 -33 -12.5 -63t-37.5 -51q31 -20 48 -53.5t17 -73.5q0 -31 -11.5 -58.5t-32 -48t-48 -32.5t-58.5 -12h-5v-62h-58zM268 120q39 0 66 27.5t27 66.5q0 20 -7 38
t-20 31.5t-30 21t-36 7.5h-156v-192h156zM345 455q0 36 -23.5 61.5t-58.5 25.5h-151v-173h151q17 0 32 7t26 18.5t17.5 27t6.5 33.5z" />
    <glyph glyph-name="degree" unicode="&#xb0;" horiz-adv-x="192" 
d="M35 672q0 23 17.5 40t40.5 17q24 0 40 -17t16 -40q0 -25 -16 -40.5t-40 -15.5q-23 0 -40.5 15.5t-17.5 40.5zM89 672q0 -2 4 -2q3 0 3 2q0 4 -3 4q-4 0 -4 -4z" />
    <glyph glyph-name="dollar" unicode="$" horiz-adv-x="373" 
d="M143 55q-31 3 -67 12t-65 20l15 49l35 -9q14 -5 36.5 -10.5t45.5 -6.5v201q-25 4 -48.5 13.5t-41.5 26.5t-29 41.5t-11 58.5q0 54 34.5 92.5t95.5 51.5v63h57v-55h14q12 0 28 -2.5t33.5 -7t34 -9.5t29.5 -11l-14 -54q-42 16 -69 22t-56 7v-187q23 -2 45.5 -9t45.5 -23
q29 -20 45 -52t16 -66t-11.5 -61t-32 -46.5t-48 -31.5t-60.5 -15v-74h-57v72zM283 263q-17 25 -38.5 33.5t-44.5 10.5v-197q40 5 68.5 32t28.5 74q0 13 -4.5 26t-9.5 21zM103 383q9 -8 19 -11.5t21 -5.5v174q-31 -10 -53 -33t-22 -65q0 -17 9.5 -32.5t24.5 -26.5h1z" />
    <glyph glyph-name="equal" unicode="=" horiz-adv-x="337" 
d="M315 407v-58h-305v58h305zM315 269v-58h-305v58h305z" />
    <glyph glyph-name="less" unicode="&#x3c;" horiz-adv-x="553" 
d="M478 540l23 -52l-403 -187q48 -21 95 -43t95 -45q52 -24 107.5 -50t105.5 -49l-23 -51l-515 238z" />
    <glyph glyph-name="parenleft" unicode="(" horiz-adv-x="239" 
d="M178 719q-57 -97 -85 -198.5t-28 -201.5q0 -108 33 -216t102 -208l-46 -33q-74 110 -111 227t-37 234q0 106 30 213t92 210z" />
    <glyph glyph-name="parenright" unicode=")" horiz-adv-x="239" 
d="M75 746q62 -102 92 -209.5t30 -213.5q0 -118 -37 -235t-110 -226l-46 33q68 99 101 207.5t33 216.5q0 100 -28 201.5t-84 197.5z" />
    <glyph glyph-name="plus" unicode="+" horiz-adv-x="429" 
d="M238 510v-181h185v-58h-185v-192h-58v192h-188v58h188v181h58z" />
    <glyph glyph-name="question" unicode="?" horiz-adv-x="664" 
d="M300 26q0 17 10.5 26.5t23.5 9.5t23.5 -9.5t10.5 -26.5t-10.5 -25.5t-23.5 -8.5t-23.5 8.5t-10.5 25.5zM524 590q28 -32 41 -69t13 -75q0 -42 -15.5 -82.5t-43.5 -73.5t-67.5 -56.5t-87.5 -30.5v-128h-59v183h28l-1 -1q40 3 74.5 20.5t59.5 43.5t39 58.5t14 66.5
q0 29 -10.5 58t-32.5 52q-28 30 -60.5 43t-67.5 13q-36 0 -71 -14.5t-63 -40t-46.5 -60.5t-21.5 -76l-60 2q5 53 29.5 98.5t60.5 78.5t81 51.5t92 18.5t92.5 -19t82.5 -61z" />
    <glyph glyph-name="quotedbl" unicode="&#x22;" horiz-adv-x="234" 
d="M116 730v-114h-60v114h60zM194 730v-114h-60v114h60z" />
    <glyph glyph-name="slash" unicode="/" horiz-adv-x="529" 
d="M537 729l-496 -729h-65l496 729h65z" />
    <glyph glyph-name="sterling" unicode="&#xa3;" horiz-adv-x="626" 
d="M598 73q-49 -38 -91.5 -57.5t-84.5 -19.5q-32 0 -66.5 9.5t-69.5 26.5q-27 14 -57 24.5t-57 10.5q-34 0 -62.5 -15t-64.5 -44l-38 40q29 32 63.5 49t66.5 24q10 29 16 57.5t6 63.5q0 28 -3 51l-1 3h-83v58h73q-5 27 -9 57t-4 55q0 43 16.5 79t44.5 62t65 40t79 14
q60 0 107.5 -35.5t83.5 -88.5l-49 -35q-26 49 -67 75t-83 26q-33 0 -58.5 -12t-43.5 -32.5t-27 -48t-9 -58.5q0 -17 3 -38.5t10 -59.5h208v-58h-196q2 -14 2.5 -29t0.5 -30q0 -61 -19 -116q31 -7 59 -17.5t50 -20.5q32 -13 60 -21t50 -8q30 0 63 15.5t79 47.5z" />
    <glyph glyph-name="yen" unicode="&#xa5;" horiz-adv-x="553" 
d="M533 632l-201 -255h127v-57h-163v-50h163v-58h-163v-211h-58v211h-164v58h164v50h-164v57h129q-28 36 -57.5 73t-58.5 74l-85 108l45 37l219 -279l221 279z" />
    <glyph glyph-name="D" unicode="D" horiz-adv-x="652" 
d="M267 659q68 0 127.5 -26t104 -71t70.5 -105t26 -128t-26 -128t-70.5 -104.5t-104 -70.5t-127.5 -26h-204v659h204zM539 329q0 56 -21.5 105.5t-58.5 86.5t-86.5 58.5t-105.5 21.5h-146v-543h146q56 0 105.5 21t86.5 58t58.5 86t21.5 106z" />
    <glyph glyph-name="DEL" horiz-adv-x="0" 
 />
    <glyph glyph-name="tilde" unicode="&#x2dc;" horiz-adv-x="244" 
d="M254 762q-19 -42 -38 -58t-39 -16q-18 0 -35.5 7.5t-31.5 15.5t-27.5 14.5t-20.5 6.5q-6 0 -12.5 -9t-16.5 -35l-51 23q19 44 38.5 59.5t39.5 15.5q16 0 33.5 -8t32.5 -16q16 -8 28.5 -13.5t20.5 -5.5q6 0 13 9.5t18 33.5z" />
    <glyph glyph-name="Atilde" unicode="&#xc3;" horiz-adv-x="580" 
d="M368 305q-11 34 -34 93t-52 141l-90 -234h176zM282 682l275 -678q-14 -4 -22 -6t-13 -3.5t-9.5 -2.5t-10.5 -2l-111 262h-220l-52 -127q-14 -33 -29 -69t-27 -68q-7 2 -17.5 4.5t-37.5 8.5zM422 758q-19 -42 -38 -58t-39 -16q-18 0 -35.5 7.5t-31.5 15.5t-27.5 14.5
t-20.5 6.5q-6 0 -12.5 -9t-16.5 -35l-51 23q19 44 38.5 59.5t39.5 15.5q16 0 33.5 -8t32.5 -16q16 -8 28.5 -13.5t20.5 -5.5q6 0 13 9.5t18 33.5z" />
    <glyph glyph-name="Otilde" unicode="&#xd5;" horiz-adv-x="782" 
d="M379 665q69 0 130 -26.5t106.5 -72t71.5 -107t26 -130.5t-26 -130.5t-71.5 -107t-106.5 -72t-130 -26.5q-70 0 -131.5 26.5t-107 72t-72 107t-26.5 130.5t26.5 130.5t72 107t107 72t131.5 26.5zM655 329q0 58 -21.5 108.5t-59 88t-88 59.5t-107.5 22q-58 0 -109 -22
t-88.5 -59.5t-59.5 -88t-22 -108.5t22 -108.5t59.5 -88t88.5 -59.5t109 -22q57 0 107.5 22t88 59.5t59 88t21.5 108.5zM527 757q-19 -42 -38 -58t-39 -16q-18 0 -35.5 7.5t-31.5 15.5t-27.5 14.5t-20.5 6.5q-6 0 -12.5 -9t-16.5 -35l-51 23q19 44 38.5 59.5t39.5 15.5
q16 0 33.5 -8t32.5 -16q16 -8 28.5 -13.5t20.5 -5.5q6 0 13 9.5t18 33.5z" />
    <glyph glyph-name="comma" unicode="," horiz-adv-x="127" 
d="M97 75l-36 -147l-57 11l22 97z" />
    <glyph glyph-name="period" unicode="." horiz-adv-x="159" 
d="M74 66q17 0 26 -11t9 -25q0 -15 -9 -25t-26 -10q-15 0 -24.5 10t-9.5 25q0 14 9.5 25t24.5 11z" />
    <glyph glyph-name="colon" unicode=":" horiz-adv-x="279" 
d="M134 70q16 0 26 -10.5t10 -24.5q0 -16 -10 -25.5t-26 -9.5q-15 0 -25 9.5t-10 25.5q0 14 10 24.5t25 10.5zM134 336q16 0 26 -10.5t10 -25.5t-10 -24.5t-26 -9.5q-15 0 -25 9.5t-10 24.5t10 25.5t25 10.5z" />
    <glyph glyph-name="semicolon" unicode=";" horiz-adv-x="188" 
d="M156 75l-36 -147l-57 11l22 97zM115 336q16 0 25.5 -10.5t9.5 -25.5t-9.5 -24.5t-25.5 -9.5t-25.5 9.5t-9.5 24.5t9.5 25.5t25.5 10.5z" />
    <glyph glyph-name="quotesingle" unicode="'" horiz-adv-x="221" 
d="M195 673l-82 -179l-58 26l59 124z" />
    <glyph glyph-name="grave" unicode="`" horiz-adv-x="165" 
d="M167 651q-53 39 -106.5 78.5t-107.5 77.5h82l111 -84v1z" />
    <glyph glyph-name="Egrave" unicode="&#xc8;" horiz-adv-x="471" 
d="M61 0v659h382v-58h-325v-185h219v-58h-219v-300h347v-58h-404zM337 655q-53 39 -106.5 78.5t-107.5 77.5h82l111 -84v1z" />
    <glyph glyph-name="acute" unicode="&#xb4;" horiz-adv-x="165" 
d="M15 726l109 81q20 0 40.5 0.5t40.5 0.5l-108 -81l-108 -81z" />
    <glyph glyph-name="Agrave" unicode="&#xc0;" horiz-adv-x="580" 
d="M368 305q-11 34 -34 93t-52 141l-90 -234h176zM282 682l275 -678q-14 -4 -22 -6t-13 -3.5t-9.5 -2.5t-10.5 -2l-111 262h-220l-52 -127q-14 -33 -29 -69t-27 -68q-7 2 -17.5 4.5t-37.5 8.5zM382 651q-53 39 -106.5 78.5t-107.5 77.5h82l111 -84v1z" />
    <glyph glyph-name="Aacute" unicode="&#xc1;" horiz-adv-x="580" 
d="M368 305q-11 34 -34 93t-52 141l-90 -234h176zM282 682l275 -678q-14 -4 -22 -6t-13 -3.5t-9.5 -2.5t-10.5 -2l-111 262h-220l-52 -127q-14 -33 -29 -69t-27 -68q-7 2 -17.5 4.5t-37.5 8.5zM216 727l109 81q20 0 40.5 0.5t40.5 0.5l-108 -81l-108 -81z" />
    <glyph glyph-name="circumflex" unicode="&#x2c6;" horiz-adv-x="333" 
d="M35 720l110 85h35l111 -84v1q5 -20 11.5 -39.5t11.5 -39.5l-150 108l-71 -53q-23 -17 -44.5 -32.5t-41.5 -29.5z" />
    <glyph glyph-name="Ecircumflex" unicode="&#xca;" horiz-adv-x="471" 
d="M61 0v659h382v-58h-325v-185h219v-58h-219v-300h347v-58h-404zM121 741l110 85h35l111 -84v1q5 -20 11.5 -39.5t11.5 -39.5l-150 108l-71 -53q-23 -17 -44.5 -32.5t-41.5 -29.5z" />
    <glyph glyph-name="Iacute" unicode="&#xcd;" horiz-adv-x="335" 
d="M204 659v-659h-57v659h57zM104 725l109 81q20 0 40.5 0.5t40.5 0.5l-108 -81l-108 -81z" />
    <glyph glyph-name="Icircumflex" unicode="&#xce;" horiz-adv-x="447" 
d="M247 659v-659h-57v659h57zM90 719l110 85h35l111 -84v1q5 -20 11.5 -39.5t11.5 -39.5l-150 108l-71 -53q-23 -17 -44.5 -32.5t-41.5 -29.5z" />
    <glyph glyph-name="Igrave" unicode="&#xcc;" horiz-adv-x="335" 
d="M209 659v-659h-57v659h57zM276 651q-53 39 -106.5 78.5t-107.5 77.5h82l111 -84v1z" />
    <glyph glyph-name="Ograve" unicode="&#xd2;" horiz-adv-x="782" 
d="M379 665q69 0 130 -26.5t106.5 -72t71.5 -107t26 -130.5t-26 -130.5t-71.5 -107t-106.5 -72t-130 -26.5q-70 0 -131.5 26.5t-107 72t-72 107t-26.5 130.5t26.5 130.5t72 107t107 72t131.5 26.5zM655 329q0 58 -21.5 108.5t-59 88t-88 59.5t-107.5 22q-58 0 -109 -22
t-88.5 -59.5t-59.5 -88t-22 -108.5t22 -108.5t59.5 -88t88.5 -59.5t109 -22q57 0 107.5 22t88 59.5t59 88t21.5 108.5zM489 650q-53 39 -106.5 78.5t-107.5 77.5h82l111 -84v1z" />
    <glyph glyph-name="Uacute" unicode="&#xda;" horiz-adv-x="663" 
d="M321 -7q-55 0 -103.5 20.5t-85 55t-57.5 81t-21 98.5v411h58v-411q0 -41 16.5 -77t44.5 -62.5t66 -42t82 -15.5q43 0 81 15.5t66 42t44 62.5t16 77v411h57v-411q0 -52 -21 -98.5t-57 -81t-84 -55t-102 -20.5zM259 725l109 81q20 0 40.5 0.5t40.5 0.5l-108 -81l-108 -81z
" />
    <glyph glyph-name="Ugrave" unicode="&#xd9;" horiz-adv-x="663" 
d="M321 -7q-55 0 -103.5 20.5t-85 55t-57.5 81t-21 98.5v411h58v-411q0 -41 16.5 -77t44.5 -62.5t66 -42t82 -15.5q43 0 81 15.5t66 42t44 62.5t16 77v411h57v-411q0 -52 -21 -98.5t-57 -81t-84 -55t-102 -20.5zM426 650q-53 39 -106.5 78.5t-107.5 77.5h82l111 -84v1z" />
    <glyph glyph-name="Ucircumflex" unicode="&#xdb;" horiz-adv-x="663" 
d="M321 -7q-55 0 -103.5 20.5t-85 55t-57.5 81t-21 98.5v411h58v-411q0 -41 16.5 -77t44.5 -62.5t66 -42t82 -15.5q43 0 81 15.5t66 42t44 62.5t16 77v411h57v-411q0 -52 -21 -98.5t-57 -81t-84 -55t-102 -20.5zM202 719l110 85h35l111 -84v1q5 -20 11.5 -39.5t11.5 -39.5
l-150 108l-71 -53q-23 -17 -44.5 -32.5t-41.5 -29.5z" />
    <glyph glyph-name="Acircumflex" unicode="&#xc2;" horiz-adv-x="580" 
d="M368 305q-11 34 -34 93t-52 141l-90 -234h176zM282 682l275 -678q-14 -4 -22 -6t-13 -3.5t-9.5 -2.5t-10.5 -2l-111 262h-220l-52 -127q-14 -33 -29 -69t-27 -68q-7 2 -17.5 4.5t-37.5 8.5zM159 720l110 85h35l111 -84v1q5 -20 11.5 -39.5t11.5 -39.5l-150 108l-71 -53
q-23 -17 -44.5 -32.5t-41.5 -29.5z" />
    <glyph glyph-name="Oacute" unicode="&#xd3;" horiz-adv-x="782" 
d="M379 665q69 0 130 -26.5t106.5 -72t71.5 -107t26 -130.5t-26 -130.5t-71.5 -107t-106.5 -72t-130 -26.5q-70 0 -131.5 26.5t-107 72t-72 107t-26.5 130.5t26.5 130.5t72 107t107 72t131.5 26.5zM655 329q0 58 -21.5 108.5t-59 88t-88 59.5t-107.5 22q-58 0 -109 -22
t-88.5 -59.5t-59.5 -88t-22 -108.5t22 -108.5t59.5 -88t88.5 -59.5t109 -22q57 0 107.5 22t88 59.5t59 88t21.5 108.5zM308 752l109 81q20 0 40.5 0.5t40.5 0.5l-108 -81l-108 -81z" />
    <glyph glyph-name="Ocircumflex" unicode="&#xd4;" horiz-adv-x="782" 
d="M379 665q69 0 130 -26.5t106.5 -72t71.5 -107t26 -130.5t-26 -130.5t-71.5 -107t-106.5 -72t-130 -26.5q-70 0 -131.5 26.5t-107 72t-72 107t-26.5 130.5t26.5 130.5t72 107t107 72t131.5 26.5zM655 329q0 58 -21.5 108.5t-59 88t-88 59.5t-107.5 22q-58 0 -109 -22
t-88.5 -59.5t-59.5 -88t-22 -108.5t22 -108.5t59.5 -88t88.5 -59.5t109 -22q57 0 107.5 22t88 59.5t59 88t21.5 108.5zM259 720l110 85h35l111 -84v1q5 -20 11.5 -39.5t11.5 -39.5l-150 108l-71 -53q-23 -17 -44.5 -32.5t-41.5 -29.5z" />
    <glyph glyph-name="dieresis" unicode="&#xa8;" horiz-adv-x="290" 
d="M89 756q16 0 25.5 -10.5t9.5 -24.5q0 -16 -9.5 -26t-25.5 -10t-25.5 10t-9.5 26q0 14 9.5 24.5t25.5 10.5zM192 756q16 0 25 -10.5t9 -24.5q0 -16 -9 -26t-25 -10t-25.5 10t-9.5 26q0 14 9.5 24.5t25.5 10.5z" />
    <glyph glyph-name="Edieresis" unicode="&#xcb;" horiz-adv-x="471" 
d="M61 0v659h382v-58h-325v-185h219v-58h-219v-300h347v-58h-404zM191 756q16 0 25.5 -10.5t9.5 -24.5q0 -16 -9.5 -26t-25.5 -10t-25.5 10t-9.5 26q0 14 9.5 24.5t25.5 10.5zM294 756q16 0 25 -10.5t9 -24.5q0 -16 -9 -26t-25 -10t-25.5 10t-9.5 26q0 14 9.5 24.5
t25.5 10.5z" />
    <glyph glyph-name="Idieresis" unicode="&#xcf;" horiz-adv-x="335" 
d="M174 659v-659h-57v659h57zM92 756q16 0 25.5 -10.5t9.5 -24.5q0 -16 -9.5 -26t-25.5 -10t-25.5 10t-9.5 26q0 14 9.5 24.5t25.5 10.5zM195 756q16 0 25 -10.5t9 -24.5q0 -16 -9 -26t-25 -10t-25.5 10t-9.5 26q0 14 9.5 24.5t25.5 10.5z" />
    <glyph glyph-name="ellipsis" unicode="&#x2026;" horiz-adv-x="941" 
d="M101 70q16 0 25.5 -10.5t9.5 -24.5q0 -16 -9.5 -25.5t-25.5 -9.5t-25 9.5t-9 25.5q0 14 9 24.5t25 10.5zM460 70q15 0 24.5 -10.5t9.5 -24.5q0 -16 -9.5 -25.5t-24.5 -9.5q-17 0 -26 9.5t-9 25.5q0 14 9 24.5t26 10.5zM808 70q16 0 25.5 -10.5t9.5 -24.5
q0 -16 -9.5 -25.5t-25.5 -9.5t-25 9.5t-9 25.5q0 14 9 24.5t25 10.5z" />
    <glyph glyph-name="Ydieresis" unicode="&#x178;" horiz-adv-x="613" 
d="M378 265q-59 94 -120 191t-119 191l53 26l216 -346q53 85 108.5 173t107.5 173l52 -26l-239 -383q0 -31 -0.5 -62.5t-0.5 -65.5v-136h-56zM361 756q16 0 25.5 -10.5t9.5 -24.5q0 -16 -9.5 -26t-25.5 -10t-25.5 10t-9.5 26q0 14 9.5 24.5t25.5 10.5zM464 756
q16 0 25 -10.5t9 -24.5q0 -16 -9 -26t-25 -10t-25.5 10t-9.5 26q0 14 9.5 24.5t25.5 10.5z" />
    <glyph glyph-name="Adieresis" unicode="&#xc4;" horiz-adv-x="580" 
d="M368 305q-11 34 -34 93t-52 141l-90 -234h176zM282 682l275 -678q-14 -4 -22 -6t-13 -3.5t-9.5 -2.5t-10.5 -2l-111 262h-220l-52 -127q-14 -33 -29 -69t-27 -68q-7 2 -17.5 4.5t-37.5 8.5zM232 757q16 0 25.5 -10.5t9.5 -24.5q0 -16 -9.5 -26t-25.5 -10t-25.5 10
t-9.5 26q0 14 9.5 24.5t25.5 10.5zM335 757q16 0 25 -10.5t9 -24.5q0 -16 -9 -26t-25 -10t-25.5 10t-9.5 26q0 14 9.5 24.5t25.5 10.5z" />
    <glyph glyph-name="Eacute" unicode="&#xc9;" horiz-adv-x="471" 
d="M61 0v659h382v-58h-325v-185h219v-58h-219v-300h347v-58h-404zM168 766l109 81q20 0 40.5 0.5t40.5 0.5l-108 -81l-108 -81z" />
    <glyph glyph-name="Ntilde" unicode="&#xd1;" horiz-adv-x="670" 
d="M603 661v-671l-442 527v-517h-58v670l442 -528v519h58zM494 751q-19 -42 -38 -58t-39 -16q-18 0 -35.5 7.5t-31.5 15.5t-27.5 14.5t-20.5 6.5q-6 0 -12.5 -9t-16.5 -35l-51 23q19 44 38.5 59.5t39.5 15.5q16 0 33.5 -8t32.5 -16q16 -8 28.5 -13.5t20.5 -5.5q6 0 13 9.5
t18 33.5z" />
    <glyph glyph-name="Odieresis" unicode="&#xd6;" horiz-adv-x="782" 
d="M379 665q69 0 130 -26.5t106.5 -72t71.5 -107t26 -130.5t-26 -130.5t-71.5 -107t-106.5 -72t-130 -26.5q-70 0 -131.5 26.5t-107 72t-72 107t-26.5 130.5t26.5 130.5t72 107t107 72t131.5 26.5zM655 329q0 58 -21.5 108.5t-59 88t-88 59.5t-107.5 22q-58 0 -109 -22
t-88.5 -59.5t-59.5 -88t-22 -108.5t22 -108.5t59.5 -88t88.5 -59.5t109 -22q57 0 107.5 22t88 59.5t59 88t21.5 108.5zM323 757q16 0 25.5 -10.5t9.5 -24.5q0 -16 -9.5 -26t-25.5 -10t-25.5 10t-9.5 26q0 14 9.5 24.5t25.5 10.5zM426 757q16 0 25 -10.5t9 -24.5
q0 -16 -9 -26t-25 -10t-25.5 10t-9.5 26q0 14 9.5 24.5t25.5 10.5z" />
    <glyph glyph-name="Udieresis" unicode="&#xdc;" horiz-adv-x="663" 
d="M321 -7q-55 0 -103.5 20.5t-85 55t-57.5 81t-21 98.5v411h58v-411q0 -41 16.5 -77t44.5 -62.5t66 -42t82 -15.5q43 0 81 15.5t66 42t44 62.5t16 77v411h57v-411q0 -52 -21 -98.5t-57 -81t-84 -55t-102 -20.5zM272 757q16 0 25.5 -10.5t9.5 -24.5q0 -16 -9.5 -26
t-25.5 -10t-25.5 10t-9.5 26q0 14 9.5 24.5t25.5 10.5zM375 757q16 0 25 -10.5t9 -24.5q0 -16 -9 -26t-25 -10t-25.5 10t-9.5 26q0 14 9.5 24.5t25.5 10.5z" />
    <glyph glyph-name="aacute" unicode="&#xe1;" horiz-adv-x="478" 
d="M294 241q-16 43 -31.5 81t-32.5 83q-6 -15 -12 -31t-13 -35t-16 -43t-20 -55h125zM230 543q54 -126 110.5 -263t110.5 -269l-51 -14l-84 194h-169q-20 -48 -41.5 -98.5t-41.5 -97.5l-54 14zM146 622l109 81q20 0 40.5 0.5t40.5 0.5l-108 -81l-108 -81z" />
    <glyph glyph-name="agrave" unicode="&#xe0;" horiz-adv-x="478" 
d="M294 241q-16 43 -31.5 81t-32.5 83q-6 -15 -12 -31t-13 -35t-16 -43t-20 -55h125zM230 543q54 -126 110.5 -263t110.5 -269l-51 -14l-84 194h-169q-20 -48 -41.5 -98.5t-41.5 -97.5l-54 14zM328 547q-53 39 -106.5 78.5t-107.5 77.5h82l111 -84v1z" />
    <glyph glyph-name="acircumflex" unicode="&#xe2;" horiz-adv-x="478" 
d="M294 241q-16 43 -31.5 81t-32.5 83q-6 -15 -12 -31t-13 -35t-16 -43t-20 -55h125zM230 543q54 -126 110.5 -263t110.5 -269l-51 -14l-84 194h-169q-20 -48 -41.5 -98.5t-41.5 -97.5l-54 14zM105 609l110 85h35l111 -84v1q5 -20 11.5 -39.5t11.5 -39.5l-150 108l-71 -53
q-23 -17 -44.5 -32.5t-41.5 -29.5z" />
    <glyph glyph-name="adieresis" unicode="&#xe4;" horiz-adv-x="478" 
d="M294 241q-16 43 -31.5 81t-32.5 83q-6 -15 -12 -31t-13 -35t-16 -43t-20 -55h125zM230 543q54 -126 110.5 -263t110.5 -269l-51 -14l-84 194h-169q-20 -48 -41.5 -98.5t-41.5 -97.5l-54 14zM179 690q16 0 25.5 -10.5t9.5 -24.5q0 -16 -9.5 -26t-25.5 -10t-25.5 10
t-9.5 26q0 14 9.5 24.5t25.5 10.5zM282 690q16 0 25 -10.5t9 -24.5q0 -16 -9 -26t-25 -10t-25.5 10t-9.5 26q0 14 9.5 24.5t25.5 10.5z" />
    <glyph glyph-name="atilde" unicode="&#xe3;" horiz-adv-x="478" 
d="M294 241q-16 43 -31.5 81t-32.5 83q-6 -15 -12 -31t-13 -35t-16 -43t-20 -55h125zM230 543q54 -126 110.5 -263t110.5 -269l-51 -14l-84 194h-169q-20 -48 -41.5 -98.5t-41.5 -97.5l-54 14zM371 675q-19 -42 -38 -58t-39 -16q-18 0 -35.5 7.5t-31.5 15.5t-27.5 14.5
t-20.5 6.5q-6 0 -12.5 -9t-16.5 -35l-51 23q19 44 38.5 59.5t39.5 15.5q16 0 33.5 -8t32.5 -16q16 -8 28.5 -13.5t20.5 -5.5q6 0 13 9.5t18 33.5z" />
    <glyph glyph-name="eacute" unicode="&#xe9;" horiz-adv-x="394" 
d="M61 0v526h310v-56h-253v-134h170v-56h-170v-223h270v-57h-327zM140 622l109 81q20 0 40.5 0.5t40.5 0.5l-108 -81l-108 -81z" />
    <glyph glyph-name="egrave" unicode="&#xe8;" horiz-adv-x="394" 
d="M61 0v526h310v-56h-253v-134h170v-56h-170v-223h270v-57h-327zM304 547q-53 39 -106.5 78.5t-107.5 77.5h82l111 -84v1z" />
    <glyph glyph-name="ecircumflex" unicode="&#xea;" horiz-adv-x="394" 
d="M61 0v526h310v-56h-253v-134h170v-56h-170v-223h270v-57h-327zM94 616l110 85h35l111 -84v1q5 -20 11.5 -39.5t11.5 -39.5l-150 108l-71 -53q-23 -17 -44.5 -32.5t-41.5 -29.5z" />
    <glyph glyph-name="edieresis" unicode="&#xeb;" horiz-adv-x="394" 
d="M61 0v526h310v-56h-253v-134h170v-56h-170v-223h270v-57h-327zM162 689q16 0 25.5 -10.5t9.5 -24.5q0 -16 -9.5 -26t-25.5 -10t-25.5 10t-9.5 26q0 14 9.5 24.5t25.5 10.5zM265 689q16 0 25 -10.5t9 -24.5q0 -16 -9 -26t-25 -10t-25.5 10t-9.5 26q0 14 9.5 24.5
t25.5 10.5z" />
    <glyph glyph-name="ring" unicode="&#x2da;" horiz-adv-x="170" 
d="M43 675q0 17 11.5 28.5t28.5 11.5t27.5 -11.5t10.5 -28.5t-10.5 -28t-27.5 -11t-28.5 11t-11.5 28zM72 675q0 -10 11 -10q10 0 10 10q0 11 -10 11q-11 0 -11 -11z" />
    <glyph glyph-name="Aring" unicode="&#xc5;" horiz-adv-x="580" 
d="M368 305q-11 34 -34 93t-52 141l-90 -234h176zM282 682l275 -678q-14 -4 -22 -6t-13 -3.5t-9.5 -2.5t-10.5 -2l-111 262h-220l-52 -127q-14 -33 -29 -69t-27 -68q-7 2 -17.5 4.5t-37.5 8.5zM243 724q0 17 11.5 28.5t28.5 11.5t27.5 -11.5t10.5 -28.5t-10.5 -28t-27.5 -11
t-28.5 11t-11.5 28zM272 724q0 -10 11 -10q10 0 10 10q0 11 -10 11q-11 0 -11 -11z" />
    <glyph glyph-name="aring" unicode="&#xe5;" horiz-adv-x="478" 
d="M294 241q-16 43 -31.5 81t-32.5 83q-6 -15 -12 -31t-13 -35t-16 -43t-20 -55h125zM230 543q54 -126 110.5 -263t110.5 -269l-51 -14l-84 194h-169q-20 -48 -41.5 -98.5t-41.5 -97.5l-54 14zM191 588q0 17 11.5 28.5t28.5 11.5t27.5 -11.5t10.5 -28.5t-10.5 -28t-27.5 -11
t-28.5 11t-11.5 28zM220 588q0 -10 11 -10q10 0 10 10q0 11 -10 11q-11 0 -11 -11z" />
    <glyph glyph-name="cedilla" unicode="&#xb8;" horiz-adv-x="213" 
d="M100 -145q13 0 20.5 10t7.5 24q0 7 -7.5 15.5t-15.5 13.5h-7.5t-8.5 1q-5 0 -10.5 0.5t-7.5 0.5v120h57v-70q26 -9 42 -32.5t16 -50.5q0 -37 -24 -62.5t-62 -25.5q-35 0 -63 27t-36 69l52 13q9 -25 20 -39t27 -14z" />
    <glyph glyph-name="ccedilla" unicode="&#xe7;" horiz-adv-x="474" 
d="M261 -138q14 0 21 9t7 23q0 8 -7 16.5t-15 12.5q-4 0 -8.5 0.5t-8.5 0.5h-17v77q-45 9 -84 33t-67.5 58.5t-45 77t-16.5 89.5q-1 55 20 104t57 85.5t84.5 58t102.5 22.5q35 0 75.5 -12t85.5 -38l-35 -46q-35 23 -66.5 31.5t-59.5 8.5q-44 0 -83 -18t-67.5 -47.5
t-44.5 -68t-16 -80.5q0 -45 18.5 -83t48.5 -66t69 -44t80 -15q31 0 66 13t72 39l33 -46q-91 -60 -169 -62h-2v-21q26 -8 42 -31.5t16 -50.5q0 -37 -24.5 -61.5t-61.5 -24.5q-34 0 -62 24.5t-35 71.5l58 12l1 -26l5 -12q14 -14 33 -14z" />
    <glyph glyph-name="Ccedilla" unicode="&#xc7;" horiz-adv-x="608" 
d="M334 -133q14 0 21.5 9t7.5 23q0 8 -7.5 17.5t-15.5 12.5h-9t-9 1q-3 0 -8.5 0.5t-7.5 0.5v72q-23 7 -46.5 16.5t-43.5 23.5q-38 24 -68 56.5t-51 70t-32 78t-11 81.5q0 45 12 89t37 86q24 38 56 68t69.5 51t79 32t83.5 11q91 0 192 -63l-33 -47q-42 27 -83 39.5t-77 12.5
q-72 0 -135 -34.5t-103 -100.5q-41 -67 -41 -144q0 -71 35 -134.5t101 -103.5q32 -20 68.5 -29.5t74.5 -9.5q42 0 86 15t89 46l33 -47q-52 -36 -105 -54t-102 -18h-29v-14q29 -7 44 -31t15 -52q0 -37 -24.5 -62t-62.5 -25q-35 0 -63.5 24.5t-34.5 72.5l59 13v-26q2 -6 6 -12
l-1 1q11 -16 34 -16z" />
    <glyph glyph-name="Oslash" unicode="&#xd8;" horiz-adv-x="746" 
d="M559 763l-52 -132q42 -20 77 -51t60.5 -70.5t39.5 -85.5t14 -96q0 -69 -26.5 -130.5t-72 -107t-106.5 -72t-130 -26.5q-27 0 -53 3.5t-50 11.5q-2 -7 -5.5 -14t-5.5 -13q-9 -24 -20 -50.5t-21 -48.5h-60l59 148q-41 21 -74 52.5t-56.5 70t-36.5 83t-13 93.5
q0 69 26.5 130.5t72 107t106.5 72t131 26.5q22 0 44.5 -2.5t46.5 -10.5l45 112h60zM642 328q0 40 -12 77t-33.5 69.5t-50 58.5t-61.5 44q-32 -84 -64 -162.5t-64 -158.5q-18 -48 -38 -97.5t-39 -97.5q37 -12 83 -12q58 0 108.5 22t88.5 60t60 88.5t22 108.5zM363 606
q-58 0 -109 -22t-88.5 -59.5t-59.5 -88t-22 -108.5q0 -39 10.5 -75t30 -67.5t45.5 -57.5t58 -44l203 513q-17 5 -33 7t-35 2z" />
    <glyph glyph-name="dotlessi" unicode="&#x131;" horiz-adv-x="213" 
d="M112 527v-527h-57v527h57z" />
    <glyph glyph-name="iacute" unicode="&#xed;" horiz-adv-x="335" 
d="M201 527v-527h-57v527h57zM88 592l109 81q20 0 40.5 0.5t40.5 0.5l-108 -81l-108 -81z" />
    <glyph glyph-name="igrave" unicode="&#xec;" horiz-adv-x="335" 
d="M209 527v-527h-57v527h57zM287 515q-53 39 -106.5 78.5t-107.5 77.5h82l111 -84v1z" />
    <glyph glyph-name="icircumflex" unicode="&#xee;" horiz-adv-x="447" 
d="M247 527v-527h-57v527h57zM93 566l110 85h35l111 -84v1q5 -20 11.5 -39.5t11.5 -39.5l-150 108l-71 -53q-23 -17 -44.5 -32.5t-41.5 -29.5z" />
    <glyph glyph-name="idieresis" unicode="&#xef;" horiz-adv-x="335" 
d="M173 527v-527h-57v527h57zM92 661q16 0 25.5 -10.5t9.5 -24.5q0 -16 -9.5 -26t-25.5 -10t-25.5 10t-9.5 26q0 14 9.5 24.5t25.5 10.5zM195 661q16 0 25 -10.5t9 -24.5q0 -16 -9 -26t-25 -10t-25.5 10t-9.5 26q0 14 9.5 24.5t25.5 10.5z" />
    <glyph glyph-name="ntilde" unicode="&#xf1;" horiz-adv-x="549" 
d="M463 519v-597l-346 459v-381h-56v551l345 -459v427h57zM399 666q-19 -42 -38 -58t-39 -16q-18 0 -35.5 7.5t-31.5 15.5t-27.5 14.5t-20.5 6.5q-6 0 -12.5 -9t-16.5 -35l-51 23q19 44 38.5 59.5t39.5 15.5q16 0 33.5 -8t32.5 -16q16 -8 28.5 -13.5t20.5 -5.5q6 0 13 9.5
t18 33.5z" />
    <glyph glyph-name="oacute" unicode="&#xf3;" horiz-adv-x="649" 
d="M312 531q55 0 104 -21t85 -58t57 -86t21 -104q0 -56 -21 -104.5t-57 -85t-85 -57.5t-104 -21q-56 0 -104.5 21t-85.5 57.5t-58 85t-21 104.5q0 55 21 104t58 86t85.5 58t104.5 21zM523 262q0 44 -16.5 82.5t-45.5 67t-67.5 45t-81.5 16.5q-44 0 -83 -16.5t-67.5 -45
t-45 -67t-16.5 -82.5t16.5 -82t45 -66.5t67.5 -45t83 -16.5q43 0 81.5 16.5t67.5 45t45.5 66.5t16.5 82zM232 622l109 81q20 0 40.5 0.5t40.5 0.5l-108 -81l-108 -81z" />
    <glyph glyph-name="ograve" unicode="&#xf2;" horiz-adv-x="649" 
d="M312 531q55 0 104 -21t85 -58t57 -86t21 -104q0 -56 -21 -104.5t-57 -85t-85 -57.5t-104 -21q-56 0 -104.5 21t-85.5 57.5t-58 85t-21 104.5q0 55 21 104t58 86t85.5 58t104.5 21zM523 262q0 44 -16.5 82.5t-45.5 67t-67.5 45t-81.5 16.5q-44 0 -83 -16.5t-67.5 -45
t-45 -67t-16.5 -82.5t16.5 -82t45 -66.5t67.5 -45t83 -16.5q43 0 81.5 16.5t67.5 45t45.5 66.5t16.5 82zM410 546q-53 39 -106.5 78.5t-107.5 77.5h82l111 -84v1z" />
    <glyph glyph-name="ocircumflex" unicode="&#xf4;" horiz-adv-x="649" 
d="M312 531q55 0 104 -21t85 -58t57 -86t21 -104q0 -56 -21 -104.5t-57 -85t-85 -57.5t-104 -21q-56 0 -104.5 21t-85.5 57.5t-58 85t-21 104.5q0 55 21 104t58 86t85.5 58t104.5 21zM523 262q0 44 -16.5 82.5t-45.5 67t-67.5 45t-81.5 16.5q-44 0 -83 -16.5t-67.5 -45
t-45 -67t-16.5 -82.5t16.5 -82t45 -66.5t67.5 -45t83 -16.5q43 0 81.5 16.5t67.5 45t45.5 66.5t16.5 82zM187 616l110 85h35l111 -84v1q5 -20 11.5 -39.5t11.5 -39.5l-150 108l-71 -53q-23 -17 -44.5 -32.5t-41.5 -29.5z" />
    <glyph glyph-name="odieresis" unicode="&#xf6;" horiz-adv-x="649" 
d="M312 531q55 0 104 -21t85 -58t57 -86t21 -104q0 -56 -21 -104.5t-57 -85t-85 -57.5t-104 -21q-56 0 -104.5 21t-85.5 57.5t-58 85t-21 104.5q0 55 21 104t58 86t85.5 58t104.5 21zM523 262q0 44 -16.5 82.5t-45.5 67t-67.5 45t-81.5 16.5q-44 0 -83 -16.5t-67.5 -45
t-45 -67t-16.5 -82.5t16.5 -82t45 -66.5t67.5 -45t83 -16.5q43 0 81.5 16.5t67.5 45t45.5 66.5t16.5 82zM262 690q16 0 25.5 -10.5t9.5 -24.5q0 -16 -9.5 -26t-25.5 -10t-25.5 10t-9.5 26q0 14 9.5 24.5t25.5 10.5zM365 690q16 0 25 -10.5t9 -24.5q0 -16 -9 -26t-25 -10
t-25.5 10t-9.5 26q0 14 9.5 24.5t25.5 10.5z" />
    <glyph glyph-name="otilde" unicode="&#xf5;" horiz-adv-x="649" 
d="M312 531q55 0 104 -21t85 -58t57 -86t21 -104q0 -56 -21 -104.5t-57 -85t-85 -57.5t-104 -21q-56 0 -104.5 21t-85.5 57.5t-58 85t-21 104.5q0 55 21 104t58 86t85.5 58t104.5 21zM523 262q0 44 -16.5 82.5t-45.5 67t-67.5 45t-81.5 16.5q-44 0 -83 -16.5t-67.5 -45
t-45 -67t-16.5 -82.5t16.5 -82t45 -66.5t67.5 -45t83 -16.5q43 0 81.5 16.5t67.5 45t45.5 66.5t16.5 82zM449 684q-19 -42 -38 -58t-39 -16q-18 0 -35.5 7.5t-31.5 15.5t-27.5 14.5t-20.5 6.5q-6 0 -12.5 -9t-16.5 -35l-51 23q19 44 38.5 59.5t39.5 15.5q16 0 33.5 -8
t32.5 -16q16 -8 28.5 -13.5t20.5 -5.5q6 0 13 9.5t18 33.5z" />
    <glyph glyph-name="uacute" unicode="&#xfa;" horiz-adv-x="559" 
d="M269 -6q-44 0 -83 16.5t-68.5 44t-46.5 65t-17 79.5v327h56v-327q0 -31 12.5 -57.5t34.5 -46.5t50.5 -31.5t61.5 -11.5q32 0 60.5 11.5t49.5 31.5t33 46.5t12 57.5v327h57v-327q0 -42 -17 -79.5t-45.5 -65t-67.5 -44t-82 -16.5zM191 622l109 81q20 0 40.5 0.5t40.5 0.5
l-108 -81l-108 -81z" />
    <glyph glyph-name="ugrave" unicode="&#xf9;" horiz-adv-x="559" 
d="M269 -6q-44 0 -83 16.5t-68.5 44t-46.5 65t-17 79.5v327h56v-327q0 -31 12.5 -57.5t34.5 -46.5t50.5 -31.5t61.5 -11.5q32 0 60.5 11.5t49.5 31.5t33 46.5t12 57.5v327h57v-327q0 -42 -17 -79.5t-45.5 -65t-67.5 -44t-82 -16.5zM374 546q-53 39 -106.5 78.5t-107.5 77.5
h82l111 -84v1z" />
    <glyph glyph-name="ucircumflex" unicode="&#xfb;" horiz-adv-x="559" 
d="M269 -6q-44 0 -83 16.5t-68.5 44t-46.5 65t-17 79.5v327h56v-327q0 -31 12.5 -57.5t34.5 -46.5t50.5 -31.5t61.5 -11.5q32 0 60.5 11.5t49.5 31.5t33 46.5t12 57.5v327h57v-327q0 -42 -17 -79.5t-45.5 -65t-67.5 -44t-82 -16.5zM144 627l110 85h35l111 -84v1
q5 -20 11.5 -39.5t11.5 -39.5l-150 108l-71 -53q-23 -17 -44.5 -32.5t-41.5 -29.5z" />
    <glyph glyph-name="udieresis" unicode="&#xfc;" horiz-adv-x="559" 
d="M269 -6q-44 0 -83 16.5t-68.5 44t-46.5 65t-17 79.5v327h56v-327q0 -31 12.5 -57.5t34.5 -46.5t50.5 -31.5t61.5 -11.5q32 0 60.5 11.5t49.5 31.5t33 46.5t12 57.5v327h57v-327q0 -42 -17 -79.5t-45.5 -65t-67.5 -44t-82 -16.5zM219 690q16 0 25.5 -10.5t9.5 -24.5
q0 -16 -9.5 -26t-25.5 -10t-25.5 10t-9.5 26q0 14 9.5 24.5t25.5 10.5zM322 690q16 0 25 -10.5t9 -24.5q0 -16 -9 -26t-25 -10t-25.5 10t-9.5 26q0 14 9.5 24.5t25.5 10.5z" />
    <glyph glyph-name="AE" unicode="&#xc6;" horiz-adv-x="920" 
d="M478 278v324h-11q-25 -36 -46.5 -69.5t-44.5 -65.5l-127 -189h229zM859 659v-57h-323v-196h269v-58h-269v-291h345v-57h-403v220h-266l-151 -229l-46 35l423 633h421z" />
    <glyph glyph-name="ae" unicode="&#xe6;" horiz-adv-x="750" 
d="M381 472l-75 -110q-23 -36 -44.5 -67.5t-45.5 -66.5h165v244zM692 472h-254v-143h211v-56h-211v-218h271v-55h-328v172h-199l-10 -14q-5 -8 -11.5 -16.5t-11.5 -16.5l-89 -133l-45 33l337 502h340v-55z" />
    <glyph glyph-name="oe" unicode="&#x153;" horiz-adv-x="780" 
d="M738 56v-56h-422q-55 0 -103.5 20.5t-84.5 56t-56.5 83.5t-20.5 103t20.5 103t56.5 84t84.5 56.5t104.5 20.5h404v-55h-255v-138h171v-54h-171v-224h272zM410 56v416h-93q-44 0 -82 -16.5t-66.5 -45t-45 -66.5t-16.5 -81t16.5 -80.5t45 -65.5t66.5 -44.5t81 -16.5h94z
" />
    <glyph glyph-name="at" unicode="@" 
d="M988 435q0 -3 -0.5 -11t-1.5 -16.5t-2 -16.5t-1 -12q-2 -12 -5 -24l-6 -24q-22 -82 -68 -149.5t-109 -116t-140 -75.5t-162 -27q-106 0 -197.5 40.5t-158 110t-103.5 162.5t-34 198q2 1 2 4q2 63 19 120t50 111q11 19 28 42t37.5 45t42 40.5t41.5 28.5l1 4h4l2 3
q3 2 6.5 3t6.5 3q6 4 11.5 7.5t10.5 7.5q14 8 29.5 14t30.5 12q41 16 83.5 23.5t86.5 7.5q96 0 186.5 -35.5t159.5 -103.5q23 -23 44 -48.5t38 -54.5q5 -9 9 -19t9 -19q3 -6 6.5 -11t5.5 -11q8 -16 12.5 -32.5t9.5 -33.5q10 -39 13 -72.5t3 -74.5zM754 677
q-35 -3 -70.5 -2.5t-70.5 0.5h-27q-12 -36 -21.5 -72.5t-21.5 -72.5q6 -1 12 -0.5t12 0.5q9 0 14 -2v-324h145v159h110q8 33 18.5 65.5t18.5 66.5h-147q1 5 0.5 10.5t-0.5 10.5v6.5t2 5.5h123q9 40 21.5 79t22.5 79h-138q-5 -2 -3 -9zM134 670q-9 -35 -20 -70t-19 -70
q6 -1 12 -0.5t12 0.5h6.5t6.5 -2v-324h145v125v21.5t2 21.5q14 -1 28 -0.5t28 0.5h16.5t17.5 -2v-164q14 -2 28 -2h28q22 0 44 0.5t45 -0.5v471q-23 -1 -45 0t-44 1q-29 0 -56 -3v-152h-92q0 23 0.5 47t0.5 47q0 30 -3 60h-137q-2 0 -2.5 -2t-1.5 -3zM562 -63q-2 -4 -2.5 -8
t-3.5 -8q-3 0 -6 1t-7 1q-2 0 -3 -1q3 -5 9 -6t11 -5q3 -5 3 -11q0 -7 -3 -13q-8 -7 -21 -7q-9 0 -18 3v2q0 5 1.5 8.5t2.5 8.5q4 -1 7.5 -2.5t7.5 -1.5h3q0 5 -5 6t-9 2q-3 5 -6.5 7.5t-3.5 8.5q0 10 10 14t18 4q7 0 15 -3zM184 -61h37v-1q1 -5 -1.5 -8.5t-1.5 -8.5
q-3 -1 -6 -0.5t-6 0.5q-4 0 -5 -2q2 -3 7.5 -2.5t8.5 0.5h3q-1 -5 -3 -8t-1 -9h-15v-20h-10q-7 0 -9 2l1 36q0 1 -4 3q2 5 2.5 9t2.5 9zM246 -61q0 -6 -0.5 -12t-0.5 -12q0 -10 4 -17h3q5 0 5 6v10v25h10q6 0 8 -2l1 -18q0 -13 -3.5 -26t-20.5 -13q-11 0 -21 9q-2 8 -2 14.5
v14.5q0 2 -2 2.5t-4 0.5q2 5 3 9t3 9h17zM301 -63q0 -9 -0.5 -18.5t0.5 -18.5q1 -2 4.5 -2h5.5h2q-2 -5 -3 -9t-3 -9h-24v38q0 2 -2 2t-4 1q2 4 3 8.5t3 9.5h10q6 0 8 -2zM335 -61q0 -10 -0.5 -19.5t0.5 -19.5q0 -2 3.5 -2h5.5h2v-2q1 -5 -1.5 -8t-2.5 -8q-4 0 -7.5 -0.5
t-7.5 -0.5q-7 0 -11 3l1 35q0 4 -4 4q2 5 2.5 9t2.5 9h17zM367 -61h18q2 -6 4.5 -11.5t3.5 -12.5q5 4 6 11.5t3 12.5h19q-3 -15 -8.5 -30t-10.5 -29h-15q-5 14 -10.5 29t-9.5 30zM424 -61h39q-2 -5 -3.5 -9t-1.5 -9q-2 -1 -5 -0.5t-5 0.5q-4 0 -5 -2q2 -3 7.5 -2.5t8.5 0.5
h3q-1 -4 -2 -7.5t-2 -7.5h-15q2 -3 7.5 -2t8.5 0h3v-1q0 -5 -2 -9.5t-4 -9.5h-32v39q0 2 -2 1.5t-3 0.5q2 4 3 8.5t2 9.5zM514 -84q0 -5 -1.5 -10t-6.5 -8q0 -5 4 -8t4 -9v-1q-3 -1 -8 -1q-6 0 -11.5 2t-5.5 10q-2 -1 -2 -3v-4q0 -4 -1 -4h-17v38q0 2 -2 2t-2 2q0 5 2 8.5
t4 8.5h8q14 1 24.5 -2.5t10.5 -20.5zM488 -89h2q6 0 5 6v2q-2 0 -3 1t-3 1h-1v-10zM586 -61v-59h-17l1 38q0 2 -2 2.5t-4 0.5q2 5 3 9t2 9h17zM614 -63q2 2 8 2q5 0 10 -2.5t10 -4.5q5 -8 9 -21q-2 -11 -8.5 -21t-19.5 -10q-14 0 -22.5 9.5t-8.5 23.5q0 9 7 16t15 8z
M629 -81q-4 2 -8 2t-7.5 -2.5t-3.5 -7.5q0 -13 14 -13h1q7 5 7 12q0 4 -3 9zM674 -61q3 -5 6 -9t5 -9q2 1 2 5.5v7.5q0 4 2 5h16v-59h-15q-4 5 -7.5 11.5t-6.5 12.5q-3 -3 -2.5 -9.5t0.5 -11.5v-3h-17v38q0 2 -2 2t-4 1q2 5 3 9t3 9h17zM752 -63q3 3 8 3t10 -3t10 -5
q3 -5 6 -11t3 -12q0 -13 -8.5 -20.5t-20.5 -7.5q-14 0 -22 8t-8 22q0 9 7 17t15 9zM760 -102q11 0 11 12q0 5 -4 8t-8 3t-3 -2q-8 -1 -8 -10q0 -11 12 -11zM811 -61q4 -5 7 -9t5 -9q2 1 1.5 5.5t-0.5 7.5t2 5h17v-59h-15q-2 6 -6.5 11t-6.5 11q-3 -2 -2 -8t1 -9l-1 -3
q-2 -2 -8 -2h-10v38q0 2 -2 2t-2 3q0 5 2 8t2 8h16zM508 -158l-2 -10t-3 -10h-15q2 -3 7.5 -2t7.5 0h3q0 -1 0.5 -1.5t0.5 -1.5q0 -3 -1.5 -6t-1.5 -6q-2 -1 -5 -0.5t-6 0.5q-4 0 -5 -2q2 -2 8 -1.5t9 0.5l3 -1q-2 -5 -2.5 -9t-2.5 -9h-34v36q0 2 -2 2.5t-2 2.5t2.5 8.5
t3.5 8.5l6 -1q7 0 13.5 1.5t13.5 1.5zM553 -158q-2 -11 -6 -20h-15q0 -5 6.5 -4t9.5 1q1 0 1.5 -0.5t1.5 -0.5q-1 -8 -6 -17h-13v-18h-18q-2 7 -1 13.5t1 14.5q0 5 -2 9t-2 6q3 2 3 6.5t3 8.5l6 -1q7 0 13 1.5t13 1.5zM715 -158q-2 -5 -3 -13t-10 -7v-39h-19v37q0 3 -3 2.5
t-5 -0.5h-1q0 5 1.5 9.5t1.5 9.5l6 -1q7 0 13.5 1.5t13.5 1.5zM737 -219h-6v2q-4 0 -9 1t-5 6q3 5 1 11l4 2q4 0 7.5 -2t7.5 -2l2 1q0 3 -4 4.5t-8.5 3.5t-8 5t-3.5 11q0 10 9 14t17 4q7 0 15 -3v-3q0 -4 -1.5 -5.5t-0.5 -6.5q-2 -2 -3 -2q-3 0 -5.5 1t-5.5 1q-4 0 -5 -2
q8 -2 16 -6.5t8 -14.5q0 -7 -7.5 -13.5t-14.5 -6.5zM813 -219h-5v2q-13 1 -20 9.5t-7 20.5q0 13 9.5 20.5t21.5 7.5q10 0 18 -6q-2 -5 -4 -8.5t-3 -8.5q-4 4 -12 4q-3 0 -6 -1t-5 -5v-9q0 -3 3.5 -4t5.5 -1q4 0 7 1t7 1q1 0 1 -1q1 -4 2.5 -6.5t3.5 -6.5q-2 -5 -7.5 -5.5
t-9.5 -3.5zM80 -159h19q1 -5 2 -10.5t1 -10.5l4 10t2 11h15q2 -5 2.5 -10.5t2.5 -10.5q4 4 3.5 10t2.5 11h37v-3q0 -5 1.5 -8t0.5 -8q5 2 5.5 8t2.5 11h14q0 -6 2.5 -11t1.5 -10q4 4 4 10t2 11h37q2 -5 2 -10.5t2 -10.5q2 5 3.5 10t1.5 11h15q2 -5 3 -10.5t3 -10.5q3 4 3 10
t2 11h17q-1 -15 -5 -29.5t-6 -28.5h-19v2q1 5 -1.5 9t-1.5 9q-4 -4 -5 -9.5t-1 -10.5h-19q-3 13 -5.5 25.5t-7.5 24.5q-8 -26 -11 -50h-18q-2 5 -3 9.5t-3 8.5q-4 -3 -3.5 -8.5t-2.5 -9.5h-18q-2 14 -5.5 26t-5.5 26q-6 -12 -7.5 -25.5t-5.5 -26.5h-19v2q1 5 -2 9t-2 9
q-3 -4 -4 -9.5t-1 -10.5h-19q-2 14 -6.5 28.5t-6.5 29.5zM337 -159v-19h9q3 2 2 7.5t0 8.5v3q3 -1 5.5 -0.5t5.5 0.5h4t4 -2v-56h-19v20h-9q-3 -2 -2.5 -8t0.5 -9v-3h-19v33q1 1 1 3t-2 2.5t-2 2.5q0 5 1.5 8.5t1.5 8.5h19zM369 -159h18l6 -12q2 2 2.5 5.5t2.5 6.5h19
q-2 -9 -5 -15l-6 -12t-4.5 -13t0.5 -18h-19q0 18 -1 25t-3 10.5t-4.5 7t-5.5 15.5zM439 -206v-11h-18v37q0 2 -2.5 2h-3.5q2 5 3 9.5t3 9.5h9q11 0 22 -4.5t11 -18.5q0 -11 -11 -22h-1q-4 0 -5.5 -1.5t-6.5 -0.5zM439 -187l2 -1q4 0 4 5t-4 5h-2v-9zM584 -219v2q-14 0 -21 9
t-7 23q0 11 9.5 18t20.5 7q13 0 21.5 -8t8.5 -21q0 -11 -10.5 -21.5t-21.5 -8.5zM592 -178q-2 0 -2.5 0.5t-2.5 0.5q-12 0 -12 -12q0 -4 4 -10q2 0 3 -0.5t3 -0.5q10 0 12 13q-1 2 -2.5 4.5t-2.5 4.5zM640 -159q1 -6 4.5 -10t5.5 -9q2 2 1.5 7.5t-0.5 8.5v3h19v-58h-17
l-6 12t-9 10v-22h-16v37q0 2 -2 2h-4q2 5 3 9.5t3 9.5h18zM860 -219v2q-11 0 -19 8.5t-8 19.5q0 13 7.5 21t21.5 8q11 0 20.5 -7.5t9.5 -19.5q0 -13 -9.5 -23t-22.5 -9zM860 -200q9 0 13 7v3q1 7 -3 10t-10 2h-4q-4 -4 -4 -10q0 -9 8 -12zM897 -159h19q2 -3 3.5 -6.5
t5.5 -5.5q3 2 5 5.5t4 6.5h19v-58h-19v26q0 1 -1 1q-2 0 -3.5 -3.5t-2.5 -5.5h-1q-5 0 -5.5 4.5t-4.5 5.5v-28h-19v36q0 2 -2 2.5t-2 2.5q0 4 2 8t2 9zM303 -219q-8 4 -8 11q0 9 10 9q9 0 9 -9q0 -11 -11 -11zM771 -219h-2q-4 0 -6 4.5t-2 6.5q0 10 10 10q4 0 5.5 -3t3.5 -5
v-3q0 -5 -3.5 -6.5t-5.5 -3.5z" />
    <glyph glyph-name="exclam" unicode="!" horiz-adv-x="164" 
d="M114 68q12 0 21 -8.5t9 -23.5q0 -17 -9 -24.5t-21 -7.5q-34 0 -34 32t34 32zM142 87h-58v571h58v-571z" />
    <glyph glyph-name="bullet" unicode="&#x2022;" horiz-adv-x="186" 
d="M89 355q24 0 39.5 -16.5t15.5 -39.5q0 -24 -15.5 -39t-39.5 -15q-22 0 -38 15t-16 39q0 23 16 39.5t38 16.5z" />
    <glyph glyph-name="germandbls" unicode="&#xdf;" horiz-adv-x="808" 
d="M382 148q0 -37 -15.5 -65.5t-42.5 -48t-63 -30t-76 -10.5q-17 0 -38 3t-43 7.5t-44 10.5t-41 12l15 51q35 -10 72.5 -17.5t63.5 -7.5h31q25 0 47 6.5t39 19t27 31.5t10 43q0 11 -5 23.5t-10 20.5q-9 12 -22.5 20t-28.5 13t-31 7.5t-30 3.5q-29 1 -56.5 5.5t-52.5 18.5
q-29 18 -48.5 49t-19.5 69q0 55 39 93t108 51q10 2 29.5 4.5t38.5 2.5q12 0 29.5 -3t35.5 -7.5t36 -10.5t32 -11l-16 -52q-42 14 -72 19.5t-64 5.5q-23 0 -47.5 -5.5t-45 -16.5t-33.5 -29t-13 -42q0 -15 11 -34.5t26 -30.5q17 -11 35.5 -14t35.5 -5l-1 1q1 0 2 -0.5t3 -0.5
h3q31 -2 64 -9t61 -25q29 -19 47 -51.5t18 -64.5zM740 148q0 -37 -15.5 -65.5t-42 -48t-62.5 -30t-76 -10.5q-17 0 -38 3t-43 7.5t-44 10.5t-41 12l14 51q36 -10 73 -17.5t63 -7.5h32q25 0 47 6.5t39 19t27 31.5t10 43q0 11 -5 23.5t-11 20.5q-9 12 -22 20t-28 13t-31 7.5
t-30 3.5q-29 1 -56.5 5.5t-52.5 18.5q-29 18 -48.5 49t-19.5 69q0 55 39 93t108 51q10 2 29.5 4.5t38.5 2.5q12 0 29.5 -3t35.5 -7.5t36 -10.5t32 -11l-16 -52q-42 14 -72 19.5t-64 5.5q-23 0 -47.5 -5.5t-45 -16.5t-33.5 -29t-13 -42q0 -15 11 -34.5t26 -30.5
q17 -11 35.5 -14t35.5 -5l-1 1q1 0 2 -0.5t3 -0.5h3q31 -2 63.5 -9t61.5 -25q29 -19 46.5 -51.5t17.5 -64.5z" />
    <glyph glyph-name="ydieresis" unicode="&#xff;" horiz-adv-x="446" 
d="M185 212l-171 300l50 25l150 -263l149 263l52 -25l-174 -302v-210h-56v212zM165 690q16 0 25.5 -10.5t9.5 -24.5q0 -16 -9.5 -26t-25.5 -10t-25.5 10t-9.5 26q0 14 9.5 24.5t25.5 10.5zM268 690q16 0 25 -10.5t9 -24.5q0 -16 -9 -26t-25 -10t-25.5 10t-9.5 26
q0 14 9.5 24.5t25.5 10.5z" />
    <glyph glyph-name="questiondown" unicode="&#xbf;" horiz-adv-x="636" 
d="M346.019 380.002q0 -16.999 -10.5 -26.499q-10.499 -9.49902 -23.498 -9.49902t-23.499 9.49902q-10.499 9.5 -10.499 26.499t10.499 25.498q10.5 8.5 23.499 8.5t23.498 -8.5q10.5 -8.49902 10.5 -25.498zM122.032 -183.964q-27.999 31.998 -40.998 68.9961
q-12.999 36.9971 -12.999 74.9951q0 41.9971 15.499 82.4951q15.499 40.4971 43.4971 73.4951q27.999 32.998 67.4961 56.4971q39.498 23.498 87.4951 30.498v127.992h58.9961v-182.989h-27.998l1 1q-39.998 -3 -74.4961 -20.499q-34.4971 -17.499 -59.4961 -43.4971
q-24.998 -25.998 -38.9971 -58.4961q-14 -32.498 -14 -66.4961q0 -28.998 10.5 -57.9961q10.499 -28.999 32.498 -51.9971q27.998 -29.998 60.4961 -42.998q32.498 -12.999 67.4961 -12.999q35.998 0 70.9951 14.499q34.998 14.499 62.9961 39.998
q27.999 25.498 46.4971 60.4961q18.499 34.998 21.499 75.9951l59.9961 -2q-4.99902 -52.9961 -29.498 -98.4932q-24.498 -45.498 -60.4961 -78.4951q-35.998 -32.998 -80.9951 -51.4971t-91.9941 -18.499t-92.4941 18.999q-45.498 18.999 -82.4951 60.9961z" />
    <glyph glyph-name="exclamdown" unicode="&#xa1;" horiz-adv-x="163" 
d="M43 326.004q12 0 21 8.5q9 8.49902 9 23.498q0 16.999 -9 24.499q-9 7.49902 -21 7.49902q-34 0 -34 -31.998t34 -31.998zM71 307.005h-58v-570.965h58v570.965z" />
    <glyph glyph-name="caron" unicode="&#x2c7;" horiz-adv-x="326" 
d="M4 835l154 -115l153 110l-25 -85l-108 -82h-42l-107 82z" />
    <glyph glyph-name="Scaron" unicode="&#x160;" horiz-adv-x="658" 
d="M544 183q0 -46 -19.5 -81.5t-53 -59.5t-78 -36.5t-94.5 -12.5q-21 0 -47 3t-53.5 8.5t-55 13t-52.5 16.5l24 48l32 -7l28 -7t34 -7t36 -5.5t33 -2.5h41q33 0 63 9t53 26.5t36.5 43t13.5 58.5q0 14 -7 31t-15 28v-1q-14 19 -31.5 30.5t-36 17.5t-39 8.5t-40.5 4.5
q-34 2 -69 6.5t-67 24.5v-1q-36 20 -59.5 58t-23.5 86q0 66 49 113t130 64h-1q12 2 35.5 4.5t52.5 2.5q16 0 37 -3.5t43.5 -8.5t44.5 -12t40 -14l-23 -54q-26 9 -47.5 15.5t-41 10t-38 5.5t-38.5 2q-31 0 -63.5 -7.5t-59.5 -22.5t-44.5 -39t-17.5 -57q0 -11 4 -23.5
t11 -24.5t16 -23t19 -18q26 -16 54.5 -20.5t57.5 -6.5q34 -2 73.5 -10t73.5 -29q18 -12 32.5 -28.5t25 -35.5t16.5 -39.5t6 -40.5zM172 860l154 -115l153 110l-25 -85l-108 -82h-42l-107 82z" />
    <glyph glyph-name="scaron" unicode="&#x161;" horiz-adv-x="419" 
d="M392 148q0 -37 -15.5 -65.5t-42.5 -48t-63 -30t-76 -10.5q-16 0 -36.5 3t-43 7.5t-45 10.5t-41.5 12l16 51q35 -10 72 -17.5t63 -7.5h31q25 0 47 6.5t39 19t27 31.5t10 43q0 12 -4.5 24.5t-9.5 19.5q-19 23 -51.5 32.5t-60.5 11.5q-29 1 -56 5.5t-53 18.5
q-30 17 -49.5 48.5t-19.5 69.5q0 55 39.5 93t107.5 51q11 2 30.5 4.5t37.5 2.5q12 0 29.5 -3t35.5 -7.5t36 -10.5t32 -11l-14 -52q-42 14 -72.5 19.5t-64.5 5.5q-23 0 -48 -5.5t-45 -16.5t-33 -29t-13 -42q0 -15 10.5 -34.5t25.5 -30.5q17 -11 35.5 -14t35.5 -5l-1 1
q2 0 4.5 -0.5t4.5 -0.5q30 -2 63.5 -9t62.5 -25q28 -19 45.5 -51.5t17.5 -64.5zM67 753l154 -115l153 110l-25 -85l-108 -82h-42l-107 82z" />
    <glyph glyph-name="Yacute" unicode="&#xdd;" horiz-adv-x="745" 
d="M378 265q-59 94 -120 191t-119 191l53 26l216 -346q53 85 108.5 173t107.5 173l52 -26l-239 -383q0 -31 -0.5 -62.5t-0.5 -65.5v-136h-56zM324 746l109 81q20 0 40.5 0.5t40.5 0.5l-108 -81l-108 -81z" />
    <glyph glyph-name="yacute" unicode="&#xfd;" horiz-adv-x="573" 
d="M255 212l-171 300l50 25l150 -263l149 263l52 -25l-174 -302v-210h-56v212zM218 642l109 81q20 0 40.5 0.5t40.5 0.5l-108 -81l-108 -81z" />
    <glyph glyph-name="minus" unicode="&#x2212;" horiz-adv-x="574" 
d="M492 271h-430v58h430v-58z" />
    <glyph glyph-name="brokenbar" unicode="&#xa6;" horiz-adv-x="177" 
d="M112 729v-375h-57v375h57zM112 247v-374h-57v374h57z" />
    <glyph glyph-name="bar" unicode="|" horiz-adv-x="212" 
d="M112 729v-856h-57v856h57z" />
    <glyph glyph-name="backslash" unicode="\" horiz-adv-x="529" 
d="M40 729l496 -729h-65l-496 729h65z" />
    <glyph glyph-name="hyphen" unicode="-" horiz-adv-x="555" 
d="M492 271h-430v58h430v-58z" />
    <glyph glyph-name="endash" unicode="&#x2013;" horiz-adv-x="650" 
d="M565 271h-503v58h503v-58z" />
    <glyph glyph-name="emdash" unicode="&#x2014;" horiz-adv-x="724" 
d="M635 271h-571v58h571v-58z" />
    <glyph glyph-name="divide" unicode="&#xf7;" horiz-adv-x="580" 
d="M307 211q16 0 26 -10.5t10 -24.5q0 -16 -10 -25.5t-26 -9.5q-15 0 -25 9.5t-10 25.5q0 14 10 24.5t25 10.5zM307 477q16 0 26 -10.5t10 -25.5t-10 -24.5t-26 -9.5q-15 0 -25 9.5t-10 24.5t10 25.5t25 10.5zM517 271h-430v58h430v-58z" />
    <glyph glyph-name="percent" unicode="%" horiz-adv-x="817" 
d="M671 729l-495 -729h-65l496 729h64zM373 511q0 -42 -12 -80.5t-33.5 -68.5t-51.5 -48t-67 -18t-67.5 18t-52.5 48t-34.5 68.5t-12.5 80.5t12.5 81.5t34.5 70t52.5 49t67.5 18.5t67 -18.5t51.5 -49t33.5 -70t12 -81.5zM315 511q0 30 -7.5 59.5t-21.5 52t-33.5 36.5
t-43.5 14t-44.5 -14t-35.5 -36.5t-23 -52t-8 -59.5q0 -29 8 -57t23 -50t35.5 -36t44.5 -14t43.5 14t33.5 36t21.5 50t7.5 57zM746 207q0 -42 -12 -81t-34 -69t-52 -48t-67 -18q-36 0 -66.5 18t-52.5 48t-34.5 69t-12.5 81t12.5 81.5t34.5 69.5t52.5 48.5t66.5 18.5
q37 0 67 -18.5t52 -48.5t34 -69.5t12 -81.5zM688 207q0 30 -7.5 58.5t-21.5 51.5t-34 37t-44 14t-44 -14t-34.5 -37t-22.5 -51.5t-8 -58.5q0 -29 8 -57t22.5 -50.5t34.5 -36.5t44 -14t44 14t34 36.5t21.5 50.5t7.5 57z" />
    <glyph glyph-name="notequal" unicode="&#x2260;" horiz-adv-x="408" 
d="M333 380v-57h-103q-8 -23 -15.5 -40.5t-15.5 -40.5h134v-57h-157q-9 -23 -18 -48t-18 -47l-52 20l27 75h-86v57h108l30 81h-138v57h159q9 21 18.5 44t17.5 43l53 -21l-27 -66h83z" />
    <glyph glyph-name="underscore" unicode="_" horiz-adv-x="650" 
d="M565 -24h-503v57h503v-57z" />
    <glyph glyph-name="Eth" unicode="&#xd0;" horiz-adv-x="698" 
d="M307 659q68 0 128 -26t104.5 -71t70 -105t25.5 -128t-25.5 -128t-70 -104.5t-104.5 -70.5t-128 -26h-203v339h-67v58h67v262h203zM412 339h-251v-281h146q56 0 105.5 21t86.5 58t58.5 86t21.5 106q0 56 -21.5 106t-58.5 87t-86.5 58.5t-105.5 21.5h-146v-205h251v-58z
" />
    <glyph glyph-name="Lslash" unicode="&#x141;" horiz-adv-x="586" 
d="M360 448l-159 -148v-241h373v-58h-431v247q-20 -20 -43.5 -41t-41.5 -38l-59 27l144 131v332h58v-283l7 7l94 89z" />
    <glyph glyph-name="lslash" unicode="&#x142;" horiz-adv-x="477" 
d="M300 356l-127 -119v-180h292v-56h-349v184q-26 -24 -38.5 -35.5t-20.5 -19.5l-55 28l114 104v264h57v-213l72 69z" />
    <glyph glyph-name="Zcaron" unicode="&#x17d;" horiz-adv-x="741" 
d="M531 58v-58h-550l428 601h-398v58h510l-428 -601h438zM104 860l154 -115l153 110l-25 -85l-108 -82h-42l-107 82z" />
    <glyph glyph-name="zcaron" unicode="&#x17e;" horiz-adv-x="443" 
d="M427 57v-57h-445l333 470h-306v56h416l-333 -469h335zM67 756l154 -115l153 110l-25 -85l-108 -82h-42l-107 82z" />
    <glyph glyph-name="multiply" unicode="&#xd7;" horiz-adv-x="467" 
d="M86 503l138 -161l142 161l54 -24l-157 -178q57 -66 97.5 -111.5t63.5 -70.5l-60 -16l-139 157l-137 -157l-60 16l159 181l-155 179z" />
    <glyph glyph-name="quoteright" unicode="&#x2019;" horiz-adv-x="182" 
d="M165 674l-81 -178l-57 26l57 124z" />
    <glyph glyph-name="perthousand" unicode="&#x2030;" horiz-adv-x="1178" 
d="M685 729l-497 -729h-63l496 729h64zM386 511q0 -42 -12 -80.5t-33.5 -68.5t-51.5 -48t-66 -18q-37 0 -67.5 18t-53 48t-35 68.5t-12.5 80.5t12.5 81.5t35 70t53 49t67.5 18.5q36 0 66 -18.5t51.5 -49t33.5 -70t12 -81.5zM328 511q0 30 -7.5 59.5t-21 52t-33 36.5
t-43.5 14t-44.5 -14t-35.5 -36.5t-23 -52t-8 -59.5q0 -29 8 -57t23 -50t35.5 -36t44.5 -14t43.5 14t33 36t21 50t7.5 57zM759 207q0 -42 -12 -81t-33.5 -69t-51.5 -48t-67 -18q-36 0 -66.5 18t-52.5 48t-34.5 69t-12.5 81t12.5 81.5t34.5 69.5t52.5 48.5t66.5 18.5
q37 0 67 -18.5t51.5 -48.5t33.5 -69.5t12 -81.5zM702 207q0 30 -7.5 58.5t-21.5 51.5t-34 37t-44 14t-44 -14t-34.5 -37t-22.5 -51.5t-8 -58.5q0 -29 8 -57t22.5 -50.5t34.5 -36.5t44 -14t44 14t34 36.5t21.5 50.5t7.5 57zM1106 207q0 -42 -12 -81t-34 -69t-52 -48t-67 -18
q-36 0 -66.5 18t-52.5 48t-34.5 69t-12.5 81t12.5 81.5t34.5 69.5t52.5 48.5t66.5 18.5q37 0 67 -18.5t52 -48.5t34 -69.5t12 -81.5zM1048 207q0 30 -7.5 58.5t-21.5 51.5t-34 37t-44 14t-44 -14t-34.5 -37t-22.5 -51.5t-8 -58.5q0 -29 8 -57t22.5 -50.5t34.5 -36.5t44 -14
t44 14t34 36.5t21.5 50.5t7.5 57z" />
    <glyph glyph-name="oslash" unicode="&#xf8;" horiz-adv-x="603" 
d="M478 651l-60 -150q66 -34 104.5 -96.5t38.5 -142.5q0 -56 -21 -104.5t-57.5 -84.5t-85.5 -57t-105 -21q-38 0 -70 8q-5 -15 -11.5 -29.5t-11.5 -28.5l-12 -31l-23 -58h-62l66 166q-69 32 -108.5 95t-39.5 145q0 56 21.5 105t58 86t86 58t106.5 21q34 0 72 -11
q5 14 11.5 29t11.5 29q8 17 16 36.5t13 35.5h62zM78 262q0 -28 9 -55t24 -51t35.5 -44t44.5 -34l152 389q-13 4 -26 5t-25 1q-45 0 -84 -16.5t-68 -45.5t-45.5 -67.5t-16.5 -81.5zM504 262q0 57 -30 105.5t-78 75.5l-153 -387q21 -3 49 -3q43 0 82 16.5t67.5 45t45.5 66.5
t17 81z" />
    <glyph glyph-name="dagger" unicode="&#x2020;" horiz-adv-x="429" 
d="M423 440h-188v-567h-58v567h-185v58h185v231h58v-231h188v-58z" />
    <glyph glyph-name="daggerdbl" unicode="&#x2021;" horiz-adv-x="429" 
d="M235 263h188v-58h-188v-332h-58v332h-185v58h185v177h-185v58h185v231h58v-231h188v-58h-188v-177z" />
    <glyph glyph-name="greater" unicode="&#x3e;" horiz-adv-x="553" 
d="M572 301l-515 -238l-23 51l403 187q-48 21 -95 43t-95 45q-52 24 -107.5 50t-105.5 49l23 52z" />
    <glyph glyph-name="quotedblleft" unicode="&#x201c;" horiz-adv-x="224" 
d="M56 588v142h60v-89zM132 588v142h60v-89z" />
    <glyph glyph-name="quotedblright" unicode="&#x201d;" horiz-adv-x="226" 
d="M134 641v89h60v-144zM48 641v89h60v-144z" />
    <glyph glyph-name="quoteleft" unicode="&#x2018;" horiz-adv-x="169" 
d="M55 588v142h59v-89z" />
    <glyph glyph-name="plusminus" unicode="&#xb1;" horiz-adv-x="251" 
d="M150 509v-99h103v-56h-103v-107h-56v107h-105v56h105v99h56zM253 184h-264v56h264v-56z" />
    <glyph glyph-name="lessequal" unicode="&#x2264;" horiz-adv-x="514" 
d="M479 670l23 -52l-403 -187q48 -21 95 -43t95 -45q52 -24 107.5 -50t105.5 -49l-23 -51l-515 238zM496 103h-505v57h505v-57z" />
    <glyph glyph-name="greaterequal" unicode="&#x2265;" horiz-adv-x="514" 
d="M534 431l-515 -238l-24 51l403 187q-48 22 -95 43.5t-95 44.5q-51 24 -106.5 50t-106.5 49l24 52zM0 160h506v-57h-506v57z" />
    <glyph glyph-name="fraction" unicode="&#x2044;" horiz-adv-x="529" 
d="M540 729l-497 -729h-66l495 729h68z" />
    <glyph glyph-name="guilsinglleft" unicode="&#x2039;" horiz-adv-x="264" 
d="M211 628v-44q0 -10 0.5 -19t0.5 -11v-17l-159 -202l44 -54l115 -145q0 -2 -0.5 -6t-0.5 -6v-76q-11 13 -28 34t-35.5 44t-36 44.5t-29.5 36.5l-45 57l-55 71z" />
    <glyph glyph-name="guilsinglright" unicode="&#x203a;" horiz-adv-x="264" 
d="M275 335l-231 -290v45q0 10 -0.5 17.5t-0.5 9.5v17l115 147l44 54l-159 204v15q0 2 0.5 10.5t0.5 18.5v45z" />
    <glyph glyph-name="guillemotleft" unicode="&#xab;" horiz-adv-x="482" 
d="M235 627v-43q0 -10 0.5 -19t0.5 -11v-17l-159 -202l44 -54l115 -145q0 -2 -0.5 -6t-0.5 -6v-77l-231 288zM412 628v-44q0 -10 0.5 -19t0.5 -11v-17l-158 -202l44 -54l114 -145q0 -2 -0.5 -6t-0.5 -6v-77l-230 288z" />
    <glyph glyph-name="guillemotright" unicode="&#xbb;" horiz-adv-x="484" 
d="M462 335l-230 -290v45q0 10 -0.5 17.5t-0.5 9.5v17l116 147l44 54l-160 204v15q0 2 0.5 10.5t0.5 18.5v45zM284 335l-230 -290v45q0 10 -0.5 17.5t-0.5 9.5v17l116 147l44 54l-160 204v15q0 2 0.5 10.5t0.5 18.5v45z" />
    <glyph glyph-name="registered" unicode="&#xae;" horiz-adv-x="350" 
d="M47 572q0 25 10 47.5t27 39.5t39.5 27t47.5 10t47.5 -10t39 -27t26 -39.5t9.5 -47.5t-9.5 -47.5t-26 -39t-39 -26.5t-47.5 -10t-47.5 10t-39.5 26.5t-27 39t-10 47.5zM89 572q0 -20 9 -38t24 -29v133q-15 -11 -24 -28.5t-9 -37.5zM171 654q-8 0 -14.5 -1t-11.5 -3h28
q20 0 34 -15t19 -37q0 -28 -17 -42l22 -22l9 -7q4 9 7.5 21t3.5 24q0 35 -23 58.5t-57 23.5zM171 491q21 0 35 7l-43 46v-45h-28q8 -4 16.5 -6t19.5 -2zM163 610v-25h10q5 0 8.5 3t3.5 6q0 6 -3.5 11t-8.5 5h-10z" />
    <glyph glyph-name="copyright" unicode="&#xa9;" horiz-adv-x="350" 
d="M47 572q0 25 10 47.5t27 39.5t39.5 27t47.5 10t47.5 -10t39 -27t26 -39.5t9.5 -47.5t-9.5 -47.5t-26 -39t-39 -26.5t-47.5 -10t-47.5 10t-39.5 26.5t-27 39t-10 47.5zM233 520q18 23 18 52q0 35 -23 58.5t-57 23.5q-35 0 -58.5 -23.5t-23.5 -58.5t23.5 -58t58.5 -23
q17 0 30.5 5.5t24.5 14.5q-15 -9 -27.5 -12t-23.5 -3q-37 0 -59 22.5t-22 52.5q0 15 7 29.5t18.5 25t26 17t29.5 6.5q9 0 21 -4t30 -14l-11 -42q-17 12 -26.5 16.5t-13.5 4.5q-15 0 -28 -12t-13 -27t11.5 -24.5t28.5 -9.5q8 0 17.5 4t20.5 10z" />
    <glyph glyph-name="trademark" unicode="&#x2122;" horiz-adv-x="465" 
d="M381 713v-210h-41v95q-12 -13 -24 -28t-19 -24l-48 57v-100h-41v154h-67v-154h-41v154h-65v40h173v21l89 -105z" />
    <glyph glyph-name="numbersign" unicode="#" horiz-adv-x="608" 
d="M409 300h139l-14 -56h-137q-11 -44 -24 -91t-24 -91q-11 0 -24.5 0.5t-19.5 0.5h-13l48 181h-132l-41 -160q-1 -5 -3 -11.5t-3 -10.5q-11 0 -24.5 0.5t-19.5 0.5h-14l48 181h-147l14 56h145l18 69l3.5 10.5t3.5 12.5h-147l14 56h146l37 145h58l-37 -145h131l37 145h56
l-34 -145h136l-14 -56h-137zM219 300h134q6 22 10 36.5t6 24t3.5 16.5t3.5 13l1 2h-132z" />
    <glyph glyph-name="DLE" horiz-adv-x="0" 
 />
    <glyph glyph-name="uni00A0" unicode="&#xa0;" horiz-adv-x="0" 
 />
    <glyph glyph-name="apple" unicode="&#xf8ff;" horiz-adv-x="0" 
 />
    <glyph glyph-name="zero" unicode="0" 
d="M988 435q0 -3 -0.5 -11t-1.5 -16.5t-2 -16.5t-1 -12q-2 -12 -5 -24l-6 -24q-22 -82 -68 -149.5t-109 -116t-140 -75.5t-162 -27q-106 0 -197.5 40.5t-158 110t-103.5 162.5t-34 198q2 1 2 4q2 63 19 120t50 111q11 19 28 42t37.5 45t42 40.5t41.5 28.5l1 4h4l2 3
q3 2 6.5 3t6.5 3q6 4 11.5 7.5t10.5 7.5q14 8 29.5 14t30.5 12q41 16 83.5 23.5t86.5 7.5q96 0 186.5 -35.5t159.5 -103.5q23 -23 44 -48.5t38 -54.5q5 -9 9 -19t9 -19q3 -6 6.5 -11t5.5 -11q8 -16 12.5 -32.5t9.5 -33.5q10 -39 13 -72.5t3 -74.5zM754 677
q-35 -3 -70.5 -2.5t-70.5 0.5h-27q-12 -36 -21.5 -72.5t-21.5 -72.5q6 -1 12 -0.5t12 0.5q9 0 14 -2v-324h145v159h110q8 33 18.5 65.5t18.5 66.5h-147q1 5 0.5 10.5t-0.5 10.5v6.5t2 5.5h123q9 40 21.5 79t22.5 79h-138q-5 -2 -3 -9zM134 670q-9 -35 -20 -70t-19 -70
q6 -1 12 -0.5t12 0.5h6.5t6.5 -2v-324h145v125v21.5t2 21.5q14 -1 28 -0.5t28 0.5h16.5t17.5 -2v-164q14 -2 28 -2h28q22 0 44 0.5t45 -0.5v471q-23 -1 -45 0t-44 1q-29 0 -56 -3v-152h-92q0 23 0.5 47t0.5 47q0 30 -3 60h-137q-2 0 -2.5 -2t-1.5 -3zM562 -63q-2 -4 -2.5 -8
t-3.5 -8q-3 0 -6 1t-7 1q-2 0 -3 -1q3 -5 9 -6t11 -5q3 -5 3 -11q0 -7 -3 -13q-8 -7 -21 -7q-9 0 -18 3v2q0 5 1.5 8.5t2.5 8.5q4 -1 7.5 -2.5t7.5 -1.5h3q0 5 -5 6t-9 2q-3 5 -6.5 7.5t-3.5 8.5q0 10 10 14t18 4q7 0 15 -3zM184 -61h37v-1q1 -5 -1.5 -8.5t-1.5 -8.5
q-3 -1 -6 -0.5t-6 0.5q-4 0 -5 -2q2 -3 7.5 -2.5t8.5 0.5h3q-1 -5 -3 -8t-1 -9h-15v-20h-10q-7 0 -9 2l1 36q0 1 -4 3q2 5 2.5 9t2.5 9zM246 -61q0 -6 -0.5 -12t-0.5 -12q0 -10 4 -17h3q5 0 5 6v10v25h10q6 0 8 -2l1 -18q0 -13 -3.5 -26t-20.5 -13q-11 0 -21 9q-2 8 -2 14.5
v14.5q0 2 -2 2.5t-4 0.5q2 5 3 9t3 9h17zM301 -63q0 -9 -0.5 -18.5t0.5 -18.5q1 -2 4.5 -2h5.5h2q-2 -5 -3 -9t-3 -9h-24v38q0 2 -2 2t-4 1q2 4 3 8.5t3 9.5h10q6 0 8 -2zM335 -61q0 -10 -0.5 -19.5t0.5 -19.5q0 -2 3.5 -2h5.5h2v-2q1 -5 -1.5 -8t-2.5 -8q-4 0 -7.5 -0.5
t-7.5 -0.5q-7 0 -11 3l1 35q0 4 -4 4q2 5 2.5 9t2.5 9h17zM367 -61h18q2 -6 4.5 -11.5t3.5 -12.5q5 4 6 11.5t3 12.5h19q-3 -15 -8.5 -30t-10.5 -29h-15q-5 14 -10.5 29t-9.5 30zM424 -61h39q-2 -5 -3.5 -9t-1.5 -9q-2 -1 -5 -0.5t-5 0.5q-4 0 -5 -2q2 -3 7.5 -2.5t8.5 0.5
h3q-1 -4 -2 -7.5t-2 -7.5h-15q2 -3 7.5 -2t8.5 0h3v-1q0 -5 -2 -9.5t-4 -9.5h-32v39q0 2 -2 1.5t-3 0.5q2 4 3 8.5t2 9.5zM514 -84q0 -5 -1.5 -10t-6.5 -8q0 -5 4 -8t4 -9v-1q-3 -1 -8 -1q-6 0 -11.5 2t-5.5 10q-2 -1 -2 -3v-4q0 -4 -1 -4h-17v38q0 2 -2 2t-2 2q0 5 2 8.5
t4 8.5h8q14 1 24.5 -2.5t10.5 -20.5zM488 -89h2q6 0 5 6v2q-2 0 -3 1t-3 1h-1v-10zM586 -61v-59h-17l1 38q0 2 -2 2.5t-4 0.5q2 5 3 9t2 9h17zM614 -63q2 2 8 2q5 0 10 -2.5t10 -4.5q5 -8 9 -21q-2 -11 -8.5 -21t-19.5 -10q-14 0 -22.5 9.5t-8.5 23.5q0 9 7 16t15 8z
M629 -81q-4 2 -8 2t-7.5 -2.5t-3.5 -7.5q0 -13 14 -13h1q7 5 7 12q0 4 -3 9zM674 -61q3 -5 6 -9t5 -9q2 1 2 5.5v7.5q0 4 2 5h16v-59h-15q-4 5 -7.5 11.5t-6.5 12.5q-3 -3 -2.5 -9.5t0.5 -11.5v-3h-17v38q0 2 -2 2t-4 1q2 5 3 9t3 9h17zM752 -63q3 3 8 3t10 -3t10 -5
q3 -5 6 -11t3 -12q0 -13 -8.5 -20.5t-20.5 -7.5q-14 0 -22 8t-8 22q0 9 7 17t15 9zM760 -102q11 0 11 12q0 5 -4 8t-8 3t-3 -2q-8 -1 -8 -10q0 -11 12 -11zM811 -61q4 -5 7 -9t5 -9q2 1 1.5 5.5t-0.5 7.5t2 5h17v-59h-15q-2 6 -6.5 11t-6.5 11q-3 -2 -2 -8t1 -9l-1 -3
q-2 -2 -8 -2h-10v38q0 2 -2 2t-2 3q0 5 2 8t2 8h16zM508 -158l-2 -10t-3 -10h-15q2 -3 7.5 -2t7.5 0h3q0 -1 0.5 -1.5t0.5 -1.5q0 -3 -1.5 -6t-1.5 -6q-2 -1 -5 -0.5t-6 0.5q-4 0 -5 -2q2 -2 8 -1.5t9 0.5l3 -1q-2 -5 -2.5 -9t-2.5 -9h-34v36q0 2 -2 2.5t-2 2.5t2.5 8.5
t3.5 8.5l6 -1q7 0 13.5 1.5t13.5 1.5zM553 -158q-2 -11 -6 -20h-15q0 -5 6.5 -4t9.5 1q1 0 1.5 -0.5t1.5 -0.5q-1 -8 -6 -17h-13v-18h-18q-2 7 -1 13.5t1 14.5q0 5 -2 9t-2 6q3 2 3 6.5t3 8.5l6 -1q7 0 13 1.5t13 1.5zM715 -158q-2 -5 -3 -13t-10 -7v-39h-19v37q0 3 -3 2.5
t-5 -0.5h-1q0 5 1.5 9.5t1.5 9.5l6 -1q7 0 13.5 1.5t13.5 1.5zM737 -219h-6v2q-4 0 -9 1t-5 6q3 5 1 11l4 2q4 0 7.5 -2t7.5 -2l2 1q0 3 -4 4.5t-8.5 3.5t-8 5t-3.5 11q0 10 9 14t17 4q7 0 15 -3v-3q0 -4 -1.5 -5.5t-0.5 -6.5q-2 -2 -3 -2q-3 0 -5.5 1t-5.5 1q-4 0 -5 -2
q8 -2 16 -6.5t8 -14.5q0 -7 -7.5 -13.5t-14.5 -6.5zM813 -219h-5v2q-13 1 -20 9.5t-7 20.5q0 13 9.5 20.5t21.5 7.5q10 0 18 -6q-2 -5 -4 -8.5t-3 -8.5q-4 4 -12 4q-3 0 -6 -1t-5 -5v-9q0 -3 3.5 -4t5.5 -1q4 0 7 1t7 1q1 0 1 -1q1 -4 2.5 -6.5t3.5 -6.5q-2 -5 -7.5 -5.5
t-9.5 -3.5zM80 -159h19q1 -5 2 -10.5t1 -10.5l4 10t2 11h15q2 -5 2.5 -10.5t2.5 -10.5q4 4 3.5 10t2.5 11h37v-3q0 -5 1.5 -8t0.5 -8q5 2 5.5 8t2.5 11h14q0 -6 2.5 -11t1.5 -10q4 4 4 10t2 11h37q2 -5 2 -10.5t2 -10.5q2 5 3.5 10t1.5 11h15q2 -5 3 -10.5t3 -10.5q3 4 3 10
t2 11h17q-1 -15 -5 -29.5t-6 -28.5h-19v2q1 5 -1.5 9t-1.5 9q-4 -4 -5 -9.5t-1 -10.5h-19q-3 13 -5.5 25.5t-7.5 24.5q-8 -26 -11 -50h-18q-2 5 -3 9.5t-3 8.5q-4 -3 -3.5 -8.5t-2.5 -9.5h-18q-2 14 -5.5 26t-5.5 26q-6 -12 -7.5 -25.5t-5.5 -26.5h-19v2q1 5 -2 9t-2 9
q-3 -4 -4 -9.5t-1 -10.5h-19q-2 14 -6.5 28.5t-6.5 29.5zM337 -159v-19h9q3 2 2 7.5t0 8.5v3q3 -1 5.5 -0.5t5.5 0.5h4t4 -2v-56h-19v20h-9q-3 -2 -2.5 -8t0.5 -9v-3h-19v33q1 1 1 3t-2 2.5t-2 2.5q0 5 1.5 8.5t1.5 8.5h19zM369 -159h18l6 -12q2 2 2.5 5.5t2.5 6.5h19
q-2 -9 -5 -15l-6 -12t-4.5 -13t0.5 -18h-19q0 18 -1 25t-3 10.5t-4.5 7t-5.5 15.5zM439 -206v-11h-18v37q0 2 -2.5 2h-3.5q2 5 3 9.5t3 9.5h9q11 0 22 -4.5t11 -18.5q0 -11 -11 -22h-1q-4 0 -5.5 -1.5t-6.5 -0.5zM439 -187l2 -1q4 0 4 5t-4 5h-2v-9zM584 -219v2q-14 0 -21 9
t-7 23q0 11 9.5 18t20.5 7q13 0 21.5 -8t8.5 -21q0 -11 -10.5 -21.5t-21.5 -8.5zM592 -178q-2 0 -2.5 0.5t-2.5 0.5q-12 0 -12 -12q0 -4 4 -10q2 0 3 -0.5t3 -0.5q10 0 12 13q-1 2 -2.5 4.5t-2.5 4.5zM640 -159q1 -6 4.5 -10t5.5 -9q2 2 1.5 7.5t-0.5 8.5v3h19v-58h-17
l-6 12t-9 10v-22h-16v37q0 2 -2 2h-4q2 5 3 9.5t3 9.5h18zM860 -219v2q-11 0 -19 8.5t-8 19.5q0 13 7.5 21t21.5 8q11 0 20.5 -7.5t9.5 -19.5q0 -13 -9.5 -23t-22.5 -9zM860 -200q9 0 13 7v3q1 7 -3 10t-10 2h-4q-4 -4 -4 -10q0 -9 8 -12zM897 -159h19q2 -3 3.5 -6.5
t5.5 -5.5q3 2 5 5.5t4 6.5h19v-58h-19v26q0 1 -1 1q-2 0 -3.5 -3.5t-2.5 -5.5h-1q-5 0 -5.5 4.5t-4.5 5.5v-28h-19v36q0 2 -2 2.5t-2 2.5q0 4 2 8t2 9zM303 -219q-8 4 -8 11q0 9 10 9q9 0 9 -9q0 -11 -11 -11zM771 -219h-2q-4 0 -6 4.5t-2 6.5q0 10 10 10q4 0 5.5 -3t3.5 -5
v-3q0 -5 -3.5 -6.5t-5.5 -3.5z" />
    <glyph glyph-name="two" unicode="2" 
d="M988 435q0 -3 -0.5 -11t-1.5 -16.5t-2 -16.5t-1 -12q-2 -12 -5 -24l-6 -24q-22 -82 -68 -149.5t-109 -116t-140 -75.5t-162 -27q-106 0 -197.5 40.5t-158 110t-103.5 162.5t-34 198q2 1 2 4q2 63 19 120t50 111q11 19 28 42t37.5 45t42 40.5t41.5 28.5l1 4h4l2 3
q3 2 6.5 3t6.5 3q6 4 11.5 7.5t10.5 7.5q14 8 29.5 14t30.5 12q41 16 83.5 23.5t86.5 7.5q96 0 186.5 -35.5t159.5 -103.5q23 -23 44 -48.5t38 -54.5q5 -9 9 -19t9 -19q3 -6 6.5 -11t5.5 -11q8 -16 12.5 -32.5t9.5 -33.5q10 -39 13 -72.5t3 -74.5zM754 677
q-35 -3 -70.5 -2.5t-70.5 0.5h-27q-12 -36 -21.5 -72.5t-21.5 -72.5q6 -1 12 -0.5t12 0.5q9 0 14 -2v-324h145v159h110q8 33 18.5 65.5t18.5 66.5h-147q1 5 0.5 10.5t-0.5 10.5v6.5t2 5.5h123q9 40 21.5 79t22.5 79h-138q-5 -2 -3 -9zM134 670q-9 -35 -20 -70t-19 -70
q6 -1 12 -0.5t12 0.5h6.5t6.5 -2v-324h145v125v21.5t2 21.5q14 -1 28 -0.5t28 0.5h16.5t17.5 -2v-164q14 -2 28 -2h28q22 0 44 0.5t45 -0.5v471q-23 -1 -45 0t-44 1q-29 0 -56 -3v-152h-92q0 23 0.5 47t0.5 47q0 30 -3 60h-137q-2 0 -2.5 -2t-1.5 -3zM562 -63q-2 -4 -2.5 -8
t-3.5 -8q-3 0 -6 1t-7 1q-2 0 -3 -1q3 -5 9 -6t11 -5q3 -5 3 -11q0 -7 -3 -13q-8 -7 -21 -7q-9 0 -18 3v2q0 5 1.5 8.5t2.5 8.5q4 -1 7.5 -2.5t7.5 -1.5h3q0 5 -5 6t-9 2q-3 5 -6.5 7.5t-3.5 8.5q0 10 10 14t18 4q7 0 15 -3zM184 -61h37v-1q1 -5 -1.5 -8.5t-1.5 -8.5
q-3 -1 -6 -0.5t-6 0.5q-4 0 -5 -2q2 -3 7.5 -2.5t8.5 0.5h3q-1 -5 -3 -8t-1 -9h-15v-20h-10q-7 0 -9 2l1 36q0 1 -4 3q2 5 2.5 9t2.5 9zM246 -61q0 -6 -0.5 -12t-0.5 -12q0 -10 4 -17h3q5 0 5 6v10v25h10q6 0 8 -2l1 -18q0 -13 -3.5 -26t-20.5 -13q-11 0 -21 9q-2 8 -2 14.5
v14.5q0 2 -2 2.5t-4 0.5q2 5 3 9t3 9h17zM301 -63q0 -9 -0.5 -18.5t0.5 -18.5q1 -2 4.5 -2h5.5h2q-2 -5 -3 -9t-3 -9h-24v38q0 2 -2 2t-4 1q2 4 3 8.5t3 9.5h10q6 0 8 -2zM335 -61q0 -10 -0.5 -19.5t0.5 -19.5q0 -2 3.5 -2h5.5h2v-2q1 -5 -1.5 -8t-2.5 -8q-4 0 -7.5 -0.5
t-7.5 -0.5q-7 0 -11 3l1 35q0 4 -4 4q2 5 2.5 9t2.5 9h17zM367 -61h18q2 -6 4.5 -11.5t3.5 -12.5q5 4 6 11.5t3 12.5h19q-3 -15 -8.5 -30t-10.5 -29h-15q-5 14 -10.5 29t-9.5 30zM424 -61h39q-2 -5 -3.5 -9t-1.5 -9q-2 -1 -5 -0.5t-5 0.5q-4 0 -5 -2q2 -3 7.5 -2.5t8.5 0.5
h3q-1 -4 -2 -7.5t-2 -7.5h-15q2 -3 7.5 -2t8.5 0h3v-1q0 -5 -2 -9.5t-4 -9.5h-32v39q0 2 -2 1.5t-3 0.5q2 4 3 8.5t2 9.5zM514 -84q0 -5 -1.5 -10t-6.5 -8q0 -5 4 -8t4 -9v-1q-3 -1 -8 -1q-6 0 -11.5 2t-5.5 10q-2 -1 -2 -3v-4q0 -4 -1 -4h-17v38q0 2 -2 2t-2 2q0 5 2 8.5
t4 8.5h8q14 1 24.5 -2.5t10.5 -20.5zM488 -89h2q6 0 5 6v2q-2 0 -3 1t-3 1h-1v-10zM586 -61v-59h-17l1 38q0 2 -2 2.5t-4 0.5q2 5 3 9t2 9h17zM614 -63q2 2 8 2q5 0 10 -2.5t10 -4.5q5 -8 9 -21q-2 -11 -8.5 -21t-19.5 -10q-14 0 -22.5 9.5t-8.5 23.5q0 9 7 16t15 8z
M629 -81q-4 2 -8 2t-7.5 -2.5t-3.5 -7.5q0 -13 14 -13h1q7 5 7 12q0 4 -3 9zM674 -61q3 -5 6 -9t5 -9q2 1 2 5.5v7.5q0 4 2 5h16v-59h-15q-4 5 -7.5 11.5t-6.5 12.5q-3 -3 -2.5 -9.5t0.5 -11.5v-3h-17v38q0 2 -2 2t-4 1q2 5 3 9t3 9h17zM752 -63q3 3 8 3t10 -3t10 -5
q3 -5 6 -11t3 -12q0 -13 -8.5 -20.5t-20.5 -7.5q-14 0 -22 8t-8 22q0 9 7 17t15 9zM760 -102q11 0 11 12q0 5 -4 8t-8 3t-3 -2q-8 -1 -8 -10q0 -11 12 -11zM811 -61q4 -5 7 -9t5 -9q2 1 1.5 5.5t-0.5 7.5t2 5h17v-59h-15q-2 6 -6.5 11t-6.5 11q-3 -2 -2 -8t1 -9l-1 -3
q-2 -2 -8 -2h-10v38q0 2 -2 2t-2 3q0 5 2 8t2 8h16zM508 -158l-2 -10t-3 -10h-15q2 -3 7.5 -2t7.5 0h3q0 -1 0.5 -1.5t0.5 -1.5q0 -3 -1.5 -6t-1.5 -6q-2 -1 -5 -0.5t-6 0.5q-4 0 -5 -2q2 -2 8 -1.5t9 0.5l3 -1q-2 -5 -2.5 -9t-2.5 -9h-34v36q0 2 -2 2.5t-2 2.5t2.5 8.5
t3.5 8.5l6 -1q7 0 13.5 1.5t13.5 1.5zM553 -158q-2 -11 -6 -20h-15q0 -5 6.5 -4t9.5 1q1 0 1.5 -0.5t1.5 -0.5q-1 -8 -6 -17h-13v-18h-18q-2 7 -1 13.5t1 14.5q0 5 -2 9t-2 6q3 2 3 6.5t3 8.5l6 -1q7 0 13 1.5t13 1.5zM715 -158q-2 -5 -3 -13t-10 -7v-39h-19v37q0 3 -3 2.5
t-5 -0.5h-1q0 5 1.5 9.5t1.5 9.5l6 -1q7 0 13.5 1.5t13.5 1.5zM737 -219h-6v2q-4 0 -9 1t-5 6q3 5 1 11l4 2q4 0 7.5 -2t7.5 -2l2 1q0 3 -4 4.5t-8.5 3.5t-8 5t-3.5 11q0 10 9 14t17 4q7 0 15 -3v-3q0 -4 -1.5 -5.5t-0.5 -6.5q-2 -2 -3 -2q-3 0 -5.5 1t-5.5 1q-4 0 -5 -2
q8 -2 16 -6.5t8 -14.5q0 -7 -7.5 -13.5t-14.5 -6.5zM813 -219h-5v2q-13 1 -20 9.5t-7 20.5q0 13 9.5 20.5t21.5 7.5q10 0 18 -6q-2 -5 -4 -8.5t-3 -8.5q-4 4 -12 4q-3 0 -6 -1t-5 -5v-9q0 -3 3.5 -4t5.5 -1q4 0 7 1t7 1q1 0 1 -1q1 -4 2.5 -6.5t3.5 -6.5q-2 -5 -7.5 -5.5
t-9.5 -3.5zM80 -159h19q1 -5 2 -10.5t1 -10.5l4 10t2 11h15q2 -5 2.5 -10.5t2.5 -10.5q4 4 3.5 10t2.5 11h37v-3q0 -5 1.5 -8t0.5 -8q5 2 5.5 8t2.5 11h14q0 -6 2.5 -11t1.5 -10q4 4 4 10t2 11h37q2 -5 2 -10.5t2 -10.5q2 5 3.5 10t1.5 11h15q2 -5 3 -10.5t3 -10.5q3 4 3 10
t2 11h17q-1 -15 -5 -29.5t-6 -28.5h-19v2q1 5 -1.5 9t-1.5 9q-4 -4 -5 -9.5t-1 -10.5h-19q-3 13 -5.5 25.5t-7.5 24.5q-8 -26 -11 -50h-18q-2 5 -3 9.5t-3 8.5q-4 -3 -3.5 -8.5t-2.5 -9.5h-18q-2 14 -5.5 26t-5.5 26q-6 -12 -7.5 -25.5t-5.5 -26.5h-19v2q1 5 -2 9t-2 9
q-3 -4 -4 -9.5t-1 -10.5h-19q-2 14 -6.5 28.5t-6.5 29.5zM337 -159v-19h9q3 2 2 7.5t0 8.5v3q3 -1 5.5 -0.5t5.5 0.5h4t4 -2v-56h-19v20h-9q-3 -2 -2.5 -8t0.5 -9v-3h-19v33q1 1 1 3t-2 2.5t-2 2.5q0 5 1.5 8.5t1.5 8.5h19zM369 -159h18l6 -12q2 2 2.5 5.5t2.5 6.5h19
q-2 -9 -5 -15l-6 -12t-4.5 -13t0.5 -18h-19q0 18 -1 25t-3 10.5t-4.5 7t-5.5 15.5zM439 -206v-11h-18v37q0 2 -2.5 2h-3.5q2 5 3 9.5t3 9.5h9q11 0 22 -4.5t11 -18.5q0 -11 -11 -22h-1q-4 0 -5.5 -1.5t-6.5 -0.5zM439 -187l2 -1q4 0 4 5t-4 5h-2v-9zM584 -219v2q-14 0 -21 9
t-7 23q0 11 9.5 18t20.5 7q13 0 21.5 -8t8.5 -21q0 -11 -10.5 -21.5t-21.5 -8.5zM592 -178q-2 0 -2.5 0.5t-2.5 0.5q-12 0 -12 -12q0 -4 4 -10q2 0 3 -0.5t3 -0.5q10 0 12 13q-1 2 -2.5 4.5t-2.5 4.5zM640 -159q1 -6 4.5 -10t5.5 -9q2 2 1.5 7.5t-0.5 8.5v3h19v-58h-17
l-6 12t-9 10v-22h-16v37q0 2 -2 2h-4q2 5 3 9.5t3 9.5h18zM860 -219v2q-11 0 -19 8.5t-8 19.5q0 13 7.5 21t21.5 8q11 0 20.5 -7.5t9.5 -19.5q0 -13 -9.5 -23t-22.5 -9zM860 -200q9 0 13 7v3q1 7 -3 10t-10 2h-4q-4 -4 -4 -10q0 -9 8 -12zM897 -159h19q2 -3 3.5 -6.5
t5.5 -5.5q3 2 5 5.5t4 6.5h19v-58h-19v26q0 1 -1 1q-2 0 -3.5 -3.5t-2.5 -5.5h-1q-5 0 -5.5 4.5t-4.5 5.5v-28h-19v36q0 2 -2 2.5t-2 2.5q0 4 2 8t2 9zM303 -219q-8 4 -8 11q0 9 10 9q9 0 9 -9q0 -11 -11 -11zM771 -219h-2q-4 0 -6 4.5t-2 6.5q0 10 10 10q4 0 5.5 -3t3.5 -5
v-3q0 -5 -3.5 -6.5t-5.5 -3.5z" />
    <glyph glyph-name="three" unicode="3" 
d="M988 435q0 -3 -0.5 -11t-1.5 -16.5t-2 -16.5t-1 -12q-2 -12 -5 -24l-6 -24q-22 -82 -68 -149.5t-109 -116t-140 -75.5t-162 -27q-106 0 -197.5 40.5t-158 110t-103.5 162.5t-34 198q2 1 2 4q2 63 19 120t50 111q11 19 28 42t37.5 45t42 40.5t41.5 28.5l1 4h4l2 3
q3 2 6.5 3t6.5 3q6 4 11.5 7.5t10.5 7.5q14 8 29.5 14t30.5 12q41 16 83.5 23.5t86.5 7.5q96 0 186.5 -35.5t159.5 -103.5q23 -23 44 -48.5t38 -54.5q5 -9 9 -19t9 -19q3 -6 6.5 -11t5.5 -11q8 -16 12.5 -32.5t9.5 -33.5q10 -39 13 -72.5t3 -74.5zM754 677
q-35 -3 -70.5 -2.5t-70.5 0.5h-27q-12 -36 -21.5 -72.5t-21.5 -72.5q6 -1 12 -0.5t12 0.5q9 0 14 -2v-324h145v159h110q8 33 18.5 65.5t18.5 66.5h-147q1 5 0.5 10.5t-0.5 10.5v6.5t2 5.5h123q9 40 21.5 79t22.5 79h-138q-5 -2 -3 -9zM134 670q-9 -35 -20 -70t-19 -70
q6 -1 12 -0.5t12 0.5h6.5t6.5 -2v-324h145v125v21.5t2 21.5q14 -1 28 -0.5t28 0.5h16.5t17.5 -2v-164q14 -2 28 -2h28q22 0 44 0.5t45 -0.5v471q-23 -1 -45 0t-44 1q-29 0 -56 -3v-152h-92q0 23 0.5 47t0.5 47q0 30 -3 60h-137q-2 0 -2.5 -2t-1.5 -3zM562 -63q-2 -4 -2.5 -8
t-3.5 -8q-3 0 -6 1t-7 1q-2 0 -3 -1q3 -5 9 -6t11 -5q3 -5 3 -11q0 -7 -3 -13q-8 -7 -21 -7q-9 0 -18 3v2q0 5 1.5 8.5t2.5 8.5q4 -1 7.5 -2.5t7.5 -1.5h3q0 5 -5 6t-9 2q-3 5 -6.5 7.5t-3.5 8.5q0 10 10 14t18 4q7 0 15 -3zM184 -61h37v-1q1 -5 -1.5 -8.5t-1.5 -8.5
q-3 -1 -6 -0.5t-6 0.5q-4 0 -5 -2q2 -3 7.5 -2.5t8.5 0.5h3q-1 -5 -3 -8t-1 -9h-15v-20h-10q-7 0 -9 2l1 36q0 1 -4 3q2 5 2.5 9t2.5 9zM246 -61q0 -6 -0.5 -12t-0.5 -12q0 -10 4 -17h3q5 0 5 6v10v25h10q6 0 8 -2l1 -18q0 -13 -3.5 -26t-20.5 -13q-11 0 -21 9q-2 8 -2 14.5
v14.5q0 2 -2 2.5t-4 0.5q2 5 3 9t3 9h17zM301 -63q0 -9 -0.5 -18.5t0.5 -18.5q1 -2 4.5 -2h5.5h2q-2 -5 -3 -9t-3 -9h-24v38q0 2 -2 2t-4 1q2 4 3 8.5t3 9.5h10q6 0 8 -2zM335 -61q0 -10 -0.5 -19.5t0.5 -19.5q0 -2 3.5 -2h5.5h2v-2q1 -5 -1.5 -8t-2.5 -8q-4 0 -7.5 -0.5
t-7.5 -0.5q-7 0 -11 3l1 35q0 4 -4 4q2 5 2.5 9t2.5 9h17zM367 -61h18q2 -6 4.5 -11.5t3.5 -12.5q5 4 6 11.5t3 12.5h19q-3 -15 -8.5 -30t-10.5 -29h-15q-5 14 -10.5 29t-9.5 30zM424 -61h39q-2 -5 -3.5 -9t-1.5 -9q-2 -1 -5 -0.5t-5 0.5q-4 0 -5 -2q2 -3 7.5 -2.5t8.5 0.5
h3q-1 -4 -2 -7.5t-2 -7.5h-15q2 -3 7.5 -2t8.5 0h3v-1q0 -5 -2 -9.5t-4 -9.5h-32v39q0 2 -2 1.5t-3 0.5q2 4 3 8.5t2 9.5zM514 -84q0 -5 -1.5 -10t-6.5 -8q0 -5 4 -8t4 -9v-1q-3 -1 -8 -1q-6 0 -11.5 2t-5.5 10q-2 -1 -2 -3v-4q0 -4 -1 -4h-17v38q0 2 -2 2t-2 2q0 5 2 8.5
t4 8.5h8q14 1 24.5 -2.5t10.5 -20.5zM488 -89h2q6 0 5 6v2q-2 0 -3 1t-3 1h-1v-10zM586 -61v-59h-17l1 38q0 2 -2 2.5t-4 0.5q2 5 3 9t2 9h17zM614 -63q2 2 8 2q5 0 10 -2.5t10 -4.5q5 -8 9 -21q-2 -11 -8.5 -21t-19.5 -10q-14 0 -22.5 9.5t-8.5 23.5q0 9 7 16t15 8z
M629 -81q-4 2 -8 2t-7.5 -2.5t-3.5 -7.5q0 -13 14 -13h1q7 5 7 12q0 4 -3 9zM674 -61q3 -5 6 -9t5 -9q2 1 2 5.5v7.5q0 4 2 5h16v-59h-15q-4 5 -7.5 11.5t-6.5 12.5q-3 -3 -2.5 -9.5t0.5 -11.5v-3h-17v38q0 2 -2 2t-4 1q2 5 3 9t3 9h17zM752 -63q3 3 8 3t10 -3t10 -5
q3 -5 6 -11t3 -12q0 -13 -8.5 -20.5t-20.5 -7.5q-14 0 -22 8t-8 22q0 9 7 17t15 9zM760 -102q11 0 11 12q0 5 -4 8t-8 3t-3 -2q-8 -1 -8 -10q0 -11 12 -11zM811 -61q4 -5 7 -9t5 -9q2 1 1.5 5.5t-0.5 7.5t2 5h17v-59h-15q-2 6 -6.5 11t-6.5 11q-3 -2 -2 -8t1 -9l-1 -3
q-2 -2 -8 -2h-10v38q0 2 -2 2t-2 3q0 5 2 8t2 8h16zM508 -158l-2 -10t-3 -10h-15q2 -3 7.5 -2t7.5 0h3q0 -1 0.5 -1.5t0.5 -1.5q0 -3 -1.5 -6t-1.5 -6q-2 -1 -5 -0.5t-6 0.5q-4 0 -5 -2q2 -2 8 -1.5t9 0.5l3 -1q-2 -5 -2.5 -9t-2.5 -9h-34v36q0 2 -2 2.5t-2 2.5t2.5 8.5
t3.5 8.5l6 -1q7 0 13.5 1.5t13.5 1.5zM553 -158q-2 -11 -6 -20h-15q0 -5 6.5 -4t9.5 1q1 0 1.5 -0.5t1.5 -0.5q-1 -8 -6 -17h-13v-18h-18q-2 7 -1 13.5t1 14.5q0 5 -2 9t-2 6q3 2 3 6.5t3 8.5l6 -1q7 0 13 1.5t13 1.5zM715 -158q-2 -5 -3 -13t-10 -7v-39h-19v37q0 3 -3 2.5
t-5 -0.5h-1q0 5 1.5 9.5t1.5 9.5l6 -1q7 0 13.5 1.5t13.5 1.5zM737 -219h-6v2q-4 0 -9 1t-5 6q3 5 1 11l4 2q4 0 7.5 -2t7.5 -2l2 1q0 3 -4 4.5t-8.5 3.5t-8 5t-3.5 11q0 10 9 14t17 4q7 0 15 -3v-3q0 -4 -1.5 -5.5t-0.5 -6.5q-2 -2 -3 -2q-3 0 -5.5 1t-5.5 1q-4 0 -5 -2
q8 -2 16 -6.5t8 -14.5q0 -7 -7.5 -13.5t-14.5 -6.5zM813 -219h-5v2q-13 1 -20 9.5t-7 20.5q0 13 9.5 20.5t21.5 7.5q10 0 18 -6q-2 -5 -4 -8.5t-3 -8.5q-4 4 -12 4q-3 0 -6 -1t-5 -5v-9q0 -3 3.5 -4t5.5 -1q4 0 7 1t7 1q1 0 1 -1q1 -4 2.5 -6.5t3.5 -6.5q-2 -5 -7.5 -5.5
t-9.5 -3.5zM80 -159h19q1 -5 2 -10.5t1 -10.5l4 10t2 11h15q2 -5 2.5 -10.5t2.5 -10.5q4 4 3.5 10t2.5 11h37v-3q0 -5 1.5 -8t0.5 -8q5 2 5.5 8t2.5 11h14q0 -6 2.5 -11t1.5 -10q4 4 4 10t2 11h37q2 -5 2 -10.5t2 -10.5q2 5 3.5 10t1.5 11h15q2 -5 3 -10.5t3 -10.5q3 4 3 10
t2 11h17q-1 -15 -5 -29.5t-6 -28.5h-19v2q1 5 -1.5 9t-1.5 9q-4 -4 -5 -9.5t-1 -10.5h-19q-3 13 -5.5 25.5t-7.5 24.5q-8 -26 -11 -50h-18q-2 5 -3 9.5t-3 8.5q-4 -3 -3.5 -8.5t-2.5 -9.5h-18q-2 14 -5.5 26t-5.5 26q-6 -12 -7.5 -25.5t-5.5 -26.5h-19v2q1 5 -2 9t-2 9
q-3 -4 -4 -9.5t-1 -10.5h-19q-2 14 -6.5 28.5t-6.5 29.5zM337 -159v-19h9q3 2 2 7.5t0 8.5v3q3 -1 5.5 -0.5t5.5 0.5h4t4 -2v-56h-19v20h-9q-3 -2 -2.5 -8t0.5 -9v-3h-19v33q1 1 1 3t-2 2.5t-2 2.5q0 5 1.5 8.5t1.5 8.5h19zM369 -159h18l6 -12q2 2 2.5 5.5t2.5 6.5h19
q-2 -9 -5 -15l-6 -12t-4.5 -13t0.5 -18h-19q0 18 -1 25t-3 10.5t-4.5 7t-5.5 15.5zM439 -206v-11h-18v37q0 2 -2.5 2h-3.5q2 5 3 9.5t3 9.5h9q11 0 22 -4.5t11 -18.5q0 -11 -11 -22h-1q-4 0 -5.5 -1.5t-6.5 -0.5zM439 -187l2 -1q4 0 4 5t-4 5h-2v-9zM584 -219v2q-14 0 -21 9
t-7 23q0 11 9.5 18t20.5 7q13 0 21.5 -8t8.5 -21q0 -11 -10.5 -21.5t-21.5 -8.5zM592 -178q-2 0 -2.5 0.5t-2.5 0.5q-12 0 -12 -12q0 -4 4 -10q2 0 3 -0.5t3 -0.5q10 0 12 13q-1 2 -2.5 4.5t-2.5 4.5zM640 -159q1 -6 4.5 -10t5.5 -9q2 2 1.5 7.5t-0.5 8.5v3h19v-58h-17
l-6 12t-9 10v-22h-16v37q0 2 -2 2h-4q2 5 3 9.5t3 9.5h18zM860 -219v2q-11 0 -19 8.5t-8 19.5q0 13 7.5 21t21.5 8q11 0 20.5 -7.5t9.5 -19.5q0 -13 -9.5 -23t-22.5 -9zM860 -200q9 0 13 7v3q1 7 -3 10t-10 2h-4q-4 -4 -4 -10q0 -9 8 -12zM897 -159h19q2 -3 3.5 -6.5
t5.5 -5.5q3 2 5 5.5t4 6.5h19v-58h-19v26q0 1 -1 1q-2 0 -3.5 -3.5t-2.5 -5.5h-1q-5 0 -5.5 4.5t-4.5 5.5v-28h-19v36q0 2 -2 2.5t-2 2.5q0 4 2 8t2 9zM303 -219q-8 4 -8 11q0 9 10 9q9 0 9 -9q0 -11 -11 -11zM771 -219h-2q-4 0 -6 4.5t-2 6.5q0 10 10 10q4 0 5.5 -3t3.5 -5
v-3q0 -5 -3.5 -6.5t-5.5 -3.5z" />
    <glyph glyph-name="four" unicode="4" 
d="M988 435q0 -3 -0.5 -11t-1.5 -16.5t-2 -16.5t-1 -12q-2 -12 -5 -24l-6 -24q-22 -82 -68 -149.5t-109 -116t-140 -75.5t-162 -27q-106 0 -197.5 40.5t-158 110t-103.5 162.5t-34 198q2 1 2 4q2 63 19 120t50 111q11 19 28 42t37.5 45t42 40.5t41.5 28.5l1 4h4l2 3
q3 2 6.5 3t6.5 3q6 4 11.5 7.5t10.5 7.5q14 8 29.5 14t30.5 12q41 16 83.5 23.5t86.5 7.5q96 0 186.5 -35.5t159.5 -103.5q23 -23 44 -48.5t38 -54.5q5 -9 9 -19t9 -19q3 -6 6.5 -11t5.5 -11q8 -16 12.5 -32.5t9.5 -33.5q10 -39 13 -72.5t3 -74.5zM754 677
q-35 -3 -70.5 -2.5t-70.5 0.5h-27q-12 -36 -21.5 -72.5t-21.5 -72.5q6 -1 12 -0.5t12 0.5q9 0 14 -2v-324h145v159h110q8 33 18.5 65.5t18.5 66.5h-147q1 5 0.5 10.5t-0.5 10.5v6.5t2 5.5h123q9 40 21.5 79t22.5 79h-138q-5 -2 -3 -9zM134 670q-9 -35 -20 -70t-19 -70
q6 -1 12 -0.5t12 0.5h6.5t6.5 -2v-324h145v125v21.5t2 21.5q14 -1 28 -0.5t28 0.5h16.5t17.5 -2v-164q14 -2 28 -2h28q22 0 44 0.5t45 -0.5v471q-23 -1 -45 0t-44 1q-29 0 -56 -3v-152h-92q0 23 0.5 47t0.5 47q0 30 -3 60h-137q-2 0 -2.5 -2t-1.5 -3zM562 -63q-2 -4 -2.5 -8
t-3.5 -8q-3 0 -6 1t-7 1q-2 0 -3 -1q3 -5 9 -6t11 -5q3 -5 3 -11q0 -7 -3 -13q-8 -7 -21 -7q-9 0 -18 3v2q0 5 1.5 8.5t2.5 8.5q4 -1 7.5 -2.5t7.5 -1.5h3q0 5 -5 6t-9 2q-3 5 -6.5 7.5t-3.5 8.5q0 10 10 14t18 4q7 0 15 -3zM184 -61h37v-1q1 -5 -1.5 -8.5t-1.5 -8.5
q-3 -1 -6 -0.5t-6 0.5q-4 0 -5 -2q2 -3 7.5 -2.5t8.5 0.5h3q-1 -5 -3 -8t-1 -9h-15v-20h-10q-7 0 -9 2l1 36q0 1 -4 3q2 5 2.5 9t2.5 9zM246 -61q0 -6 -0.5 -12t-0.5 -12q0 -10 4 -17h3q5 0 5 6v10v25h10q6 0 8 -2l1 -18q0 -13 -3.5 -26t-20.5 -13q-11 0 -21 9q-2 8 -2 14.5
v14.5q0 2 -2 2.5t-4 0.5q2 5 3 9t3 9h17zM301 -63q0 -9 -0.5 -18.5t0.5 -18.5q1 -2 4.5 -2h5.5h2q-2 -5 -3 -9t-3 -9h-24v38q0 2 -2 2t-4 1q2 4 3 8.5t3 9.5h10q6 0 8 -2zM335 -61q0 -10 -0.5 -19.5t0.5 -19.5q0 -2 3.5 -2h5.5h2v-2q1 -5 -1.5 -8t-2.5 -8q-4 0 -7.5 -0.5
t-7.5 -0.5q-7 0 -11 3l1 35q0 4 -4 4q2 5 2.5 9t2.5 9h17zM367 -61h18q2 -6 4.5 -11.5t3.5 -12.5q5 4 6 11.5t3 12.5h19q-3 -15 -8.5 -30t-10.5 -29h-15q-5 14 -10.5 29t-9.5 30zM424 -61h39q-2 -5 -3.5 -9t-1.5 -9q-2 -1 -5 -0.5t-5 0.5q-4 0 -5 -2q2 -3 7.5 -2.5t8.5 0.5
h3q-1 -4 -2 -7.5t-2 -7.5h-15q2 -3 7.5 -2t8.5 0h3v-1q0 -5 -2 -9.5t-4 -9.5h-32v39q0 2 -2 1.5t-3 0.5q2 4 3 8.5t2 9.5zM514 -84q0 -5 -1.5 -10t-6.5 -8q0 -5 4 -8t4 -9v-1q-3 -1 -8 -1q-6 0 -11.5 2t-5.5 10q-2 -1 -2 -3v-4q0 -4 -1 -4h-17v38q0 2 -2 2t-2 2q0 5 2 8.5
t4 8.5h8q14 1 24.5 -2.5t10.5 -20.5zM488 -89h2q6 0 5 6v2q-2 0 -3 1t-3 1h-1v-10zM586 -61v-59h-17l1 38q0 2 -2 2.5t-4 0.5q2 5 3 9t2 9h17zM614 -63q2 2 8 2q5 0 10 -2.5t10 -4.5q5 -8 9 -21q-2 -11 -8.5 -21t-19.5 -10q-14 0 -22.5 9.5t-8.5 23.5q0 9 7 16t15 8z
M629 -81q-4 2 -8 2t-7.5 -2.5t-3.5 -7.5q0 -13 14 -13h1q7 5 7 12q0 4 -3 9zM674 -61q3 -5 6 -9t5 -9q2 1 2 5.5v7.5q0 4 2 5h16v-59h-15q-4 5 -7.5 11.5t-6.5 12.5q-3 -3 -2.5 -9.5t0.5 -11.5v-3h-17v38q0 2 -2 2t-4 1q2 5 3 9t3 9h17zM752 -63q3 3 8 3t10 -3t10 -5
q3 -5 6 -11t3 -12q0 -13 -8.5 -20.5t-20.5 -7.5q-14 0 -22 8t-8 22q0 9 7 17t15 9zM760 -102q11 0 11 12q0 5 -4 8t-8 3t-3 -2q-8 -1 -8 -10q0 -11 12 -11zM811 -61q4 -5 7 -9t5 -9q2 1 1.5 5.5t-0.5 7.5t2 5h17v-59h-15q-2 6 -6.5 11t-6.5 11q-3 -2 -2 -8t1 -9l-1 -3
q-2 -2 -8 -2h-10v38q0 2 -2 2t-2 3q0 5 2 8t2 8h16zM508 -158l-2 -10t-3 -10h-15q2 -3 7.5 -2t7.5 0h3q0 -1 0.5 -1.5t0.5 -1.5q0 -3 -1.5 -6t-1.5 -6q-2 -1 -5 -0.5t-6 0.5q-4 0 -5 -2q2 -2 8 -1.5t9 0.5l3 -1q-2 -5 -2.5 -9t-2.5 -9h-34v36q0 2 -2 2.5t-2 2.5t2.5 8.5
t3.5 8.5l6 -1q7 0 13.5 1.5t13.5 1.5zM553 -158q-2 -11 -6 -20h-15q0 -5 6.5 -4t9.5 1q1 0 1.5 -0.5t1.5 -0.5q-1 -8 -6 -17h-13v-18h-18q-2 7 -1 13.5t1 14.5q0 5 -2 9t-2 6q3 2 3 6.5t3 8.5l6 -1q7 0 13 1.5t13 1.5zM715 -158q-2 -5 -3 -13t-10 -7v-39h-19v37q0 3 -3 2.5
t-5 -0.5h-1q0 5 1.5 9.5t1.5 9.5l6 -1q7 0 13.5 1.5t13.5 1.5zM737 -219h-6v2q-4 0 -9 1t-5 6q3 5 1 11l4 2q4 0 7.5 -2t7.5 -2l2 1q0 3 -4 4.5t-8.5 3.5t-8 5t-3.5 11q0 10 9 14t17 4q7 0 15 -3v-3q0 -4 -1.5 -5.5t-0.5 -6.5q-2 -2 -3 -2q-3 0 -5.5 1t-5.5 1q-4 0 -5 -2
q8 -2 16 -6.5t8 -14.5q0 -7 -7.5 -13.5t-14.5 -6.5zM813 -219h-5v2q-13 1 -20 9.5t-7 20.5q0 13 9.5 20.5t21.5 7.5q10 0 18 -6q-2 -5 -4 -8.5t-3 -8.5q-4 4 -12 4q-3 0 -6 -1t-5 -5v-9q0 -3 3.5 -4t5.5 -1q4 0 7 1t7 1q1 0 1 -1q1 -4 2.5 -6.5t3.5 -6.5q-2 -5 -7.5 -5.5
t-9.5 -3.5zM80 -159h19q1 -5 2 -10.5t1 -10.5l4 10t2 11h15q2 -5 2.5 -10.5t2.5 -10.5q4 4 3.5 10t2.5 11h37v-3q0 -5 1.5 -8t0.5 -8q5 2 5.5 8t2.5 11h14q0 -6 2.5 -11t1.5 -10q4 4 4 10t2 11h37q2 -5 2 -10.5t2 -10.5q2 5 3.5 10t1.5 11h15q2 -5 3 -10.5t3 -10.5q3 4 3 10
t2 11h17q-1 -15 -5 -29.5t-6 -28.5h-19v2q1 5 -1.5 9t-1.5 9q-4 -4 -5 -9.5t-1 -10.5h-19q-3 13 -5.5 25.5t-7.5 24.5q-8 -26 -11 -50h-18q-2 5 -3 9.5t-3 8.5q-4 -3 -3.5 -8.5t-2.5 -9.5h-18q-2 14 -5.5 26t-5.5 26q-6 -12 -7.5 -25.5t-5.5 -26.5h-19v2q1 5 -2 9t-2 9
q-3 -4 -4 -9.5t-1 -10.5h-19q-2 14 -6.5 28.5t-6.5 29.5zM337 -159v-19h9q3 2 2 7.5t0 8.5v3q3 -1 5.5 -0.5t5.5 0.5h4t4 -2v-56h-19v20h-9q-3 -2 -2.5 -8t0.5 -9v-3h-19v33q1 1 1 3t-2 2.5t-2 2.5q0 5 1.5 8.5t1.5 8.5h19zM369 -159h18l6 -12q2 2 2.5 5.5t2.5 6.5h19
q-2 -9 -5 -15l-6 -12t-4.5 -13t0.5 -18h-19q0 18 -1 25t-3 10.5t-4.5 7t-5.5 15.5zM439 -206v-11h-18v37q0 2 -2.5 2h-3.5q2 5 3 9.5t3 9.5h9q11 0 22 -4.5t11 -18.5q0 -11 -11 -22h-1q-4 0 -5.5 -1.5t-6.5 -0.5zM439 -187l2 -1q4 0 4 5t-4 5h-2v-9zM584 -219v2q-14 0 -21 9
t-7 23q0 11 9.5 18t20.5 7q13 0 21.5 -8t8.5 -21q0 -11 -10.5 -21.5t-21.5 -8.5zM592 -178q-2 0 -2.5 0.5t-2.5 0.5q-12 0 -12 -12q0 -4 4 -10q2 0 3 -0.5t3 -0.5q10 0 12 13q-1 2 -2.5 4.5t-2.5 4.5zM640 -159q1 -6 4.5 -10t5.5 -9q2 2 1.5 7.5t-0.5 8.5v3h19v-58h-17
l-6 12t-9 10v-22h-16v37q0 2 -2 2h-4q2 5 3 9.5t3 9.5h18zM860 -219v2q-11 0 -19 8.5t-8 19.5q0 13 7.5 21t21.5 8q11 0 20.5 -7.5t9.5 -19.5q0 -13 -9.5 -23t-22.5 -9zM860 -200q9 0 13 7v3q1 7 -3 10t-10 2h-4q-4 -4 -4 -10q0 -9 8 -12zM897 -159h19q2 -3 3.5 -6.5
t5.5 -5.5q3 2 5 5.5t4 6.5h19v-58h-19v26q0 1 -1 1q-2 0 -3.5 -3.5t-2.5 -5.5h-1q-5 0 -5.5 4.5t-4.5 5.5v-28h-19v36q0 2 -2 2.5t-2 2.5q0 4 2 8t2 9zM303 -219q-8 4 -8 11q0 9 10 9q9 0 9 -9q0 -11 -11 -11zM771 -219h-2q-4 0 -6 4.5t-2 6.5q0 10 10 10q4 0 5.5 -3t3.5 -5
v-3q0 -5 -3.5 -6.5t-5.5 -3.5z" />
    <glyph glyph-name="one" unicode="1" 
d="M988 435q0 -3 -0.5 -11t-1.5 -16.5t-2 -16.5t-1 -12q-2 -12 -5 -24l-6 -24q-22 -82 -68 -149.5t-109 -116t-140 -75.5t-162 -27q-106 0 -197.5 40.5t-158 110t-103.5 162.5t-34 198q2 1 2 4q2 63 19 120t50 111q11 19 28 42t37.5 45t42 40.5t41.5 28.5l1 4h4l2 3
q3 2 6.5 3t6.5 3q6 4 11.5 7.5t10.5 7.5q14 8 29.5 14t30.5 12q41 16 83.5 23.5t86.5 7.5q96 0 186.5 -35.5t159.5 -103.5q23 -23 44 -48.5t38 -54.5q5 -9 9 -19t9 -19q3 -6 6.5 -11t5.5 -11q8 -16 12.5 -32.5t9.5 -33.5q10 -39 13 -72.5t3 -74.5zM754 677
q-35 -3 -70.5 -2.5t-70.5 0.5h-27q-12 -36 -21.5 -72.5t-21.5 -72.5q6 -1 12 -0.5t12 0.5q9 0 14 -2v-324h145v159h110q8 33 18.5 65.5t18.5 66.5h-147q1 5 0.5 10.5t-0.5 10.5v6.5t2 5.5h123q9 40 21.5 79t22.5 79h-138q-5 -2 -3 -9zM134 670q-9 -35 -20 -70t-19 -70
q6 -1 12 -0.5t12 0.5h6.5t6.5 -2v-324h145v125v21.5t2 21.5q14 -1 28 -0.5t28 0.5h16.5t17.5 -2v-164q14 -2 28 -2h28q22 0 44 0.5t45 -0.5v471q-23 -1 -45 0t-44 1q-29 0 -56 -3v-152h-92q0 23 0.5 47t0.5 47q0 30 -3 60h-137q-2 0 -2.5 -2t-1.5 -3zM562 -63q-2 -4 -2.5 -8
t-3.5 -8q-3 0 -6 1t-7 1q-2 0 -3 -1q3 -5 9 -6t11 -5q3 -5 3 -11q0 -7 -3 -13q-8 -7 -21 -7q-9 0 -18 3v2q0 5 1.5 8.5t2.5 8.5q4 -1 7.5 -2.5t7.5 -1.5h3q0 5 -5 6t-9 2q-3 5 -6.5 7.5t-3.5 8.5q0 10 10 14t18 4q7 0 15 -3zM184 -61h37v-1q1 -5 -1.5 -8.5t-1.5 -8.5
q-3 -1 -6 -0.5t-6 0.5q-4 0 -5 -2q2 -3 7.5 -2.5t8.5 0.5h3q-1 -5 -3 -8t-1 -9h-15v-20h-10q-7 0 -9 2l1 36q0 1 -4 3q2 5 2.5 9t2.5 9zM246 -61q0 -6 -0.5 -12t-0.5 -12q0 -10 4 -17h3q5 0 5 6v10v25h10q6 0 8 -2l1 -18q0 -13 -3.5 -26t-20.5 -13q-11 0 -21 9q-2 8 -2 14.5
v14.5q0 2 -2 2.5t-4 0.5q2 5 3 9t3 9h17zM301 -63q0 -9 -0.5 -18.5t0.5 -18.5q1 -2 4.5 -2h5.5h2q-2 -5 -3 -9t-3 -9h-24v38q0 2 -2 2t-4 1q2 4 3 8.5t3 9.5h10q6 0 8 -2zM335 -61q0 -10 -0.5 -19.5t0.5 -19.5q0 -2 3.5 -2h5.5h2v-2q1 -5 -1.5 -8t-2.5 -8q-4 0 -7.5 -0.5
t-7.5 -0.5q-7 0 -11 3l1 35q0 4 -4 4q2 5 2.5 9t2.5 9h17zM367 -61h18q2 -6 4.5 -11.5t3.5 -12.5q5 4 6 11.5t3 12.5h19q-3 -15 -8.5 -30t-10.5 -29h-15q-5 14 -10.5 29t-9.5 30zM424 -61h39q-2 -5 -3.5 -9t-1.5 -9q-2 -1 -5 -0.5t-5 0.5q-4 0 -5 -2q2 -3 7.5 -2.5t8.5 0.5
h3q-1 -4 -2 -7.5t-2 -7.5h-15q2 -3 7.5 -2t8.5 0h3v-1q0 -5 -2 -9.5t-4 -9.5h-32v39q0 2 -2 1.5t-3 0.5q2 4 3 8.5t2 9.5zM514 -84q0 -5 -1.5 -10t-6.5 -8q0 -5 4 -8t4 -9v-1q-3 -1 -8 -1q-6 0 -11.5 2t-5.5 10q-2 -1 -2 -3v-4q0 -4 -1 -4h-17v38q0 2 -2 2t-2 2q0 5 2 8.5
t4 8.5h8q14 1 24.5 -2.5t10.5 -20.5zM488 -89h2q6 0 5 6v2q-2 0 -3 1t-3 1h-1v-10zM586 -61v-59h-17l1 38q0 2 -2 2.5t-4 0.5q2 5 3 9t2 9h17zM614 -63q2 2 8 2q5 0 10 -2.5t10 -4.5q5 -8 9 -21q-2 -11 -8.5 -21t-19.5 -10q-14 0 -22.5 9.5t-8.5 23.5q0 9 7 16t15 8z
M629 -81q-4 2 -8 2t-7.5 -2.5t-3.5 -7.5q0 -13 14 -13h1q7 5 7 12q0 4 -3 9zM674 -61q3 -5 6 -9t5 -9q2 1 2 5.5v7.5q0 4 2 5h16v-59h-15q-4 5 -7.5 11.5t-6.5 12.5q-3 -3 -2.5 -9.5t0.5 -11.5v-3h-17v38q0 2 -2 2t-4 1q2 5 3 9t3 9h17zM752 -63q3 3 8 3t10 -3t10 -5
q3 -5 6 -11t3 -12q0 -13 -8.5 -20.5t-20.5 -7.5q-14 0 -22 8t-8 22q0 9 7 17t15 9zM760 -102q11 0 11 12q0 5 -4 8t-8 3t-3 -2q-8 -1 -8 -10q0 -11 12 -11zM811 -61q4 -5 7 -9t5 -9q2 1 1.5 5.5t-0.5 7.5t2 5h17v-59h-15q-2 6 -6.5 11t-6.5 11q-3 -2 -2 -8t1 -9l-1 -3
q-2 -2 -8 -2h-10v38q0 2 -2 2t-2 3q0 5 2 8t2 8h16zM508 -158l-2 -10t-3 -10h-15q2 -3 7.5 -2t7.5 0h3q0 -1 0.5 -1.5t0.5 -1.5q0 -3 -1.5 -6t-1.5 -6q-2 -1 -5 -0.5t-6 0.5q-4 0 -5 -2q2 -2 8 -1.5t9 0.5l3 -1q-2 -5 -2.5 -9t-2.5 -9h-34v36q0 2 -2 2.5t-2 2.5t2.5 8.5
t3.5 8.5l6 -1q7 0 13.5 1.5t13.5 1.5zM553 -158q-2 -11 -6 -20h-15q0 -5 6.5 -4t9.5 1q1 0 1.5 -0.5t1.5 -0.5q-1 -8 -6 -17h-13v-18h-18q-2 7 -1 13.5t1 14.5q0 5 -2 9t-2 6q3 2 3 6.5t3 8.5l6 -1q7 0 13 1.5t13 1.5zM715 -158q-2 -5 -3 -13t-10 -7v-39h-19v37q0 3 -3 2.5
t-5 -0.5h-1q0 5 1.5 9.5t1.5 9.5l6 -1q7 0 13.5 1.5t13.5 1.5zM737 -219h-6v2q-4 0 -9 1t-5 6q3 5 1 11l4 2q4 0 7.5 -2t7.5 -2l2 1q0 3 -4 4.5t-8.5 3.5t-8 5t-3.5 11q0 10 9 14t17 4q7 0 15 -3v-3q0 -4 -1.5 -5.5t-0.5 -6.5q-2 -2 -3 -2q-3 0 -5.5 1t-5.5 1q-4 0 -5 -2
q8 -2 16 -6.5t8 -14.5q0 -7 -7.5 -13.5t-14.5 -6.5zM813 -219h-5v2q-13 1 -20 9.5t-7 20.5q0 13 9.5 20.5t21.5 7.5q10 0 18 -6q-2 -5 -4 -8.5t-3 -8.5q-4 4 -12 4q-3 0 -6 -1t-5 -5v-9q0 -3 3.5 -4t5.5 -1q4 0 7 1t7 1q1 0 1 -1q1 -4 2.5 -6.5t3.5 -6.5q-2 -5 -7.5 -5.5
t-9.5 -3.5zM80 -159h19q1 -5 2 -10.5t1 -10.5l4 10t2 11h15q2 -5 2.5 -10.5t2.5 -10.5q4 4 3.5 10t2.5 11h37v-3q0 -5 1.5 -8t0.5 -8q5 2 5.5 8t2.5 11h14q0 -6 2.5 -11t1.5 -10q4 4 4 10t2 11h37q2 -5 2 -10.5t2 -10.5q2 5 3.5 10t1.5 11h15q2 -5 3 -10.5t3 -10.5q3 4 3 10
t2 11h17q-1 -15 -5 -29.5t-6 -28.5h-19v2q1 5 -1.5 9t-1.5 9q-4 -4 -5 -9.5t-1 -10.5h-19q-3 13 -5.5 25.5t-7.5 24.5q-8 -26 -11 -50h-18q-2 5 -3 9.5t-3 8.5q-4 -3 -3.5 -8.5t-2.5 -9.5h-18q-2 14 -5.5 26t-5.5 26q-6 -12 -7.5 -25.5t-5.5 -26.5h-19v2q1 5 -2 9t-2 9
q-3 -4 -4 -9.5t-1 -10.5h-19q-2 14 -6.5 28.5t-6.5 29.5zM337 -159v-19h9q3 2 2 7.5t0 8.5v3q3 -1 5.5 -0.5t5.5 0.5h4t4 -2v-56h-19v20h-9q-3 -2 -2.5 -8t0.5 -9v-3h-19v33q1 1 1 3t-2 2.5t-2 2.5q0 5 1.5 8.5t1.5 8.5h19zM369 -159h18l6 -12q2 2 2.5 5.5t2.5 6.5h19
q-2 -9 -5 -15l-6 -12t-4.5 -13t0.5 -18h-19q0 18 -1 25t-3 10.5t-4.5 7t-5.5 15.5zM439 -206v-11h-18v37q0 2 -2.5 2h-3.5q2 5 3 9.5t3 9.5h9q11 0 22 -4.5t11 -18.5q0 -11 -11 -22h-1q-4 0 -5.5 -1.5t-6.5 -0.5zM439 -187l2 -1q4 0 4 5t-4 5h-2v-9zM584 -219v2q-14 0 -21 9
t-7 23q0 11 9.5 18t20.5 7q13 0 21.5 -8t8.5 -21q0 -11 -10.5 -21.5t-21.5 -8.5zM592 -178q-2 0 -2.5 0.5t-2.5 0.5q-12 0 -12 -12q0 -4 4 -10q2 0 3 -0.5t3 -0.5q10 0 12 13q-1 2 -2.5 4.5t-2.5 4.5zM640 -159q1 -6 4.5 -10t5.5 -9q2 2 1.5 7.5t-0.5 8.5v3h19v-58h-17
l-6 12t-9 10v-22h-16v37q0 2 -2 2h-4q2 5 3 9.5t3 9.5h18zM860 -219v2q-11 0 -19 8.5t-8 19.5q0 13 7.5 21t21.5 8q11 0 20.5 -7.5t9.5 -19.5q0 -13 -9.5 -23t-22.5 -9zM860 -200q9 0 13 7v3q1 7 -3 10t-10 2h-4q-4 -4 -4 -10q0 -9 8 -12zM897 -159h19q2 -3 3.5 -6.5
t5.5 -5.5q3 2 5 5.5t4 6.5h19v-58h-19v26q0 1 -1 1q-2 0 -3.5 -3.5t-2.5 -5.5h-1q-5 0 -5.5 4.5t-4.5 5.5v-28h-19v36q0 2 -2 2.5t-2 2.5q0 4 2 8t2 9zM303 -219q-8 4 -8 11q0 9 10 9q9 0 9 -9q0 -11 -11 -11zM771 -219h-2q-4 0 -6 4.5t-2 6.5q0 10 10 10q4 0 5.5 -3t3.5 -5
v-3q0 -5 -3.5 -6.5t-5.5 -3.5z" />
    <glyph glyph-name="five" unicode="5" 
d="M988 435q0 -3 -0.5 -11t-1.5 -16.5t-2 -16.5t-1 -12q-2 -12 -5 -24l-6 -24q-22 -82 -68 -149.5t-109 -116t-140 -75.5t-162 -27q-106 0 -197.5 40.5t-158 110t-103.5 162.5t-34 198q2 1 2 4q2 63 19 120t50 111q11 19 28 42t37.5 45t42 40.5t41.5 28.5l1 4h4l2 3
q3 2 6.5 3t6.5 3q6 4 11.5 7.5t10.5 7.5q14 8 29.5 14t30.5 12q41 16 83.5 23.5t86.5 7.5q96 0 186.5 -35.5t159.5 -103.5q23 -23 44 -48.5t38 -54.5q5 -9 9 -19t9 -19q3 -6 6.5 -11t5.5 -11q8 -16 12.5 -32.5t9.5 -33.5q10 -39 13 -72.5t3 -74.5zM754 677
q-35 -3 -70.5 -2.5t-70.5 0.5h-27q-12 -36 -21.5 -72.5t-21.5 -72.5q6 -1 12 -0.5t12 0.5q9 0 14 -2v-324h145v159h110q8 33 18.5 65.5t18.5 66.5h-147q1 5 0.5 10.5t-0.5 10.5v6.5t2 5.5h123q9 40 21.5 79t22.5 79h-138q-5 -2 -3 -9zM134 670q-9 -35 -20 -70t-19 -70
q6 -1 12 -0.5t12 0.5h6.5t6.5 -2v-324h145v125v21.5t2 21.5q14 -1 28 -0.5t28 0.5h16.5t17.5 -2v-164q14 -2 28 -2h28q22 0 44 0.5t45 -0.5v471q-23 -1 -45 0t-44 1q-29 0 -56 -3v-152h-92q0 23 0.5 47t0.5 47q0 30 -3 60h-137q-2 0 -2.5 -2t-1.5 -3zM562 -63q-2 -4 -2.5 -8
t-3.5 -8q-3 0 -6 1t-7 1q-2 0 -3 -1q3 -5 9 -6t11 -5q3 -5 3 -11q0 -7 -3 -13q-8 -7 -21 -7q-9 0 -18 3v2q0 5 1.5 8.5t2.5 8.5q4 -1 7.5 -2.5t7.5 -1.5h3q0 5 -5 6t-9 2q-3 5 -6.5 7.5t-3.5 8.5q0 10 10 14t18 4q7 0 15 -3zM184 -61h37v-1q1 -5 -1.5 -8.5t-1.5 -8.5
q-3 -1 -6 -0.5t-6 0.5q-4 0 -5 -2q2 -3 7.5 -2.5t8.5 0.5h3q-1 -5 -3 -8t-1 -9h-15v-20h-10q-7 0 -9 2l1 36q0 1 -4 3q2 5 2.5 9t2.5 9zM246 -61q0 -6 -0.5 -12t-0.5 -12q0 -10 4 -17h3q5 0 5 6v10v25h10q6 0 8 -2l1 -18q0 -13 -3.5 -26t-20.5 -13q-11 0 -21 9q-2 8 -2 14.5
v14.5q0 2 -2 2.5t-4 0.5q2 5 3 9t3 9h17zM301 -63q0 -9 -0.5 -18.5t0.5 -18.5q1 -2 4.5 -2h5.5h2q-2 -5 -3 -9t-3 -9h-24v38q0 2 -2 2t-4 1q2 4 3 8.5t3 9.5h10q6 0 8 -2zM335 -61q0 -10 -0.5 -19.5t0.5 -19.5q0 -2 3.5 -2h5.5h2v-2q1 -5 -1.5 -8t-2.5 -8q-4 0 -7.5 -0.5
t-7.5 -0.5q-7 0 -11 3l1 35q0 4 -4 4q2 5 2.5 9t2.5 9h17zM367 -61h18q2 -6 4.5 -11.5t3.5 -12.5q5 4 6 11.5t3 12.5h19q-3 -15 -8.5 -30t-10.5 -29h-15q-5 14 -10.5 29t-9.5 30zM424 -61h39q-2 -5 -3.5 -9t-1.5 -9q-2 -1 -5 -0.5t-5 0.5q-4 0 -5 -2q2 -3 7.5 -2.5t8.5 0.5
h3q-1 -4 -2 -7.5t-2 -7.5h-15q2 -3 7.5 -2t8.5 0h3v-1q0 -5 -2 -9.5t-4 -9.5h-32v39q0 2 -2 1.5t-3 0.5q2 4 3 8.5t2 9.5zM514 -84q0 -5 -1.5 -10t-6.5 -8q0 -5 4 -8t4 -9v-1q-3 -1 -8 -1q-6 0 -11.5 2t-5.5 10q-2 -1 -2 -3v-4q0 -4 -1 -4h-17v38q0 2 -2 2t-2 2q0 5 2 8.5
t4 8.5h8q14 1 24.5 -2.5t10.5 -20.5zM488 -89h2q6 0 5 6v2q-2 0 -3 1t-3 1h-1v-10zM586 -61v-59h-17l1 38q0 2 -2 2.5t-4 0.5q2 5 3 9t2 9h17zM614 -63q2 2 8 2q5 0 10 -2.5t10 -4.5q5 -8 9 -21q-2 -11 -8.5 -21t-19.5 -10q-14 0 -22.5 9.5t-8.5 23.5q0 9 7 16t15 8z
M629 -81q-4 2 -8 2t-7.5 -2.5t-3.5 -7.5q0 -13 14 -13h1q7 5 7 12q0 4 -3 9zM674 -61q3 -5 6 -9t5 -9q2 1 2 5.5v7.5q0 4 2 5h16v-59h-15q-4 5 -7.5 11.5t-6.5 12.5q-3 -3 -2.5 -9.5t0.5 -11.5v-3h-17v38q0 2 -2 2t-4 1q2 5 3 9t3 9h17zM752 -63q3 3 8 3t10 -3t10 -5
q3 -5 6 -11t3 -12q0 -13 -8.5 -20.5t-20.5 -7.5q-14 0 -22 8t-8 22q0 9 7 17t15 9zM760 -102q11 0 11 12q0 5 -4 8t-8 3t-3 -2q-8 -1 -8 -10q0 -11 12 -11zM811 -61q4 -5 7 -9t5 -9q2 1 1.5 5.5t-0.5 7.5t2 5h17v-59h-15q-2 6 -6.5 11t-6.5 11q-3 -2 -2 -8t1 -9l-1 -3
q-2 -2 -8 -2h-10v38q0 2 -2 2t-2 3q0 5 2 8t2 8h16zM508 -158l-2 -10t-3 -10h-15q2 -3 7.5 -2t7.5 0h3q0 -1 0.5 -1.5t0.5 -1.5q0 -3 -1.5 -6t-1.5 -6q-2 -1 -5 -0.5t-6 0.5q-4 0 -5 -2q2 -2 8 -1.5t9 0.5l3 -1q-2 -5 -2.5 -9t-2.5 -9h-34v36q0 2 -2 2.5t-2 2.5t2.5 8.5
t3.5 8.5l6 -1q7 0 13.5 1.5t13.5 1.5zM553 -158q-2 -11 -6 -20h-15q0 -5 6.5 -4t9.5 1q1 0 1.5 -0.5t1.5 -0.5q-1 -8 -6 -17h-13v-18h-18q-2 7 -1 13.5t1 14.5q0 5 -2 9t-2 6q3 2 3 6.5t3 8.5l6 -1q7 0 13 1.5t13 1.5zM715 -158q-2 -5 -3 -13t-10 -7v-39h-19v37q0 3 -3 2.5
t-5 -0.5h-1q0 5 1.5 9.5t1.5 9.5l6 -1q7 0 13.5 1.5t13.5 1.5zM737 -219h-6v2q-4 0 -9 1t-5 6q3 5 1 11l4 2q4 0 7.5 -2t7.5 -2l2 1q0 3 -4 4.5t-8.5 3.5t-8 5t-3.5 11q0 10 9 14t17 4q7 0 15 -3v-3q0 -4 -1.5 -5.5t-0.5 -6.5q-2 -2 -3 -2q-3 0 -5.5 1t-5.5 1q-4 0 -5 -2
q8 -2 16 -6.5t8 -14.5q0 -7 -7.5 -13.5t-14.5 -6.5zM813 -219h-5v2q-13 1 -20 9.5t-7 20.5q0 13 9.5 20.5t21.5 7.5q10 0 18 -6q-2 -5 -4 -8.5t-3 -8.5q-4 4 -12 4q-3 0 -6 -1t-5 -5v-9q0 -3 3.5 -4t5.5 -1q4 0 7 1t7 1q1 0 1 -1q1 -4 2.5 -6.5t3.5 -6.5q-2 -5 -7.5 -5.5
t-9.5 -3.5zM80 -159h19q1 -5 2 -10.5t1 -10.5l4 10t2 11h15q2 -5 2.5 -10.5t2.5 -10.5q4 4 3.5 10t2.5 11h37v-3q0 -5 1.5 -8t0.5 -8q5 2 5.5 8t2.5 11h14q0 -6 2.5 -11t1.5 -10q4 4 4 10t2 11h37q2 -5 2 -10.5t2 -10.5q2 5 3.5 10t1.5 11h15q2 -5 3 -10.5t3 -10.5q3 4 3 10
t2 11h17q-1 -15 -5 -29.5t-6 -28.5h-19v2q1 5 -1.5 9t-1.5 9q-4 -4 -5 -9.5t-1 -10.5h-19q-3 13 -5.5 25.5t-7.5 24.5q-8 -26 -11 -50h-18q-2 5 -3 9.5t-3 8.5q-4 -3 -3.5 -8.5t-2.5 -9.5h-18q-2 14 -5.5 26t-5.5 26q-6 -12 -7.5 -25.5t-5.5 -26.5h-19v2q1 5 -2 9t-2 9
q-3 -4 -4 -9.5t-1 -10.5h-19q-2 14 -6.5 28.5t-6.5 29.5zM337 -159v-19h9q3 2 2 7.5t0 8.5v3q3 -1 5.5 -0.5t5.5 0.5h4t4 -2v-56h-19v20h-9q-3 -2 -2.5 -8t0.5 -9v-3h-19v33q1 1 1 3t-2 2.5t-2 2.5q0 5 1.5 8.5t1.5 8.5h19zM369 -159h18l6 -12q2 2 2.5 5.5t2.5 6.5h19
q-2 -9 -5 -15l-6 -12t-4.5 -13t0.5 -18h-19q0 18 -1 25t-3 10.5t-4.5 7t-5.5 15.5zM439 -206v-11h-18v37q0 2 -2.5 2h-3.5q2 5 3 9.5t3 9.5h9q11 0 22 -4.5t11 -18.5q0 -11 -11 -22h-1q-4 0 -5.5 -1.5t-6.5 -0.5zM439 -187l2 -1q4 0 4 5t-4 5h-2v-9zM584 -219v2q-14 0 -21 9
t-7 23q0 11 9.5 18t20.5 7q13 0 21.5 -8t8.5 -21q0 -11 -10.5 -21.5t-21.5 -8.5zM592 -178q-2 0 -2.5 0.5t-2.5 0.5q-12 0 -12 -12q0 -4 4 -10q2 0 3 -0.5t3 -0.5q10 0 12 13q-1 2 -2.5 4.5t-2.5 4.5zM640 -159q1 -6 4.5 -10t5.5 -9q2 2 1.5 7.5t-0.5 8.5v3h19v-58h-17
l-6 12t-9 10v-22h-16v37q0 2 -2 2h-4q2 5 3 9.5t3 9.5h18zM860 -219v2q-11 0 -19 8.5t-8 19.5q0 13 7.5 21t21.5 8q11 0 20.5 -7.5t9.5 -19.5q0 -13 -9.5 -23t-22.5 -9zM860 -200q9 0 13 7v3q1 7 -3 10t-10 2h-4q-4 -4 -4 -10q0 -9 8 -12zM897 -159h19q2 -3 3.5 -6.5
t5.5 -5.5q3 2 5 5.5t4 6.5h19v-58h-19v26q0 1 -1 1q-2 0 -3.5 -3.5t-2.5 -5.5h-1q-5 0 -5.5 4.5t-4.5 5.5v-28h-19v36q0 2 -2 2.5t-2 2.5q0 4 2 8t2 9zM303 -219q-8 4 -8 11q0 9 10 9q9 0 9 -9q0 -11 -11 -11zM771 -219h-2q-4 0 -6 4.5t-2 6.5q0 10 10 10q4 0 5.5 -3t3.5 -5
v-3q0 -5 -3.5 -6.5t-5.5 -3.5z" />
    <glyph glyph-name="six" unicode="6" 
d="M988 435q0 -3 -0.5 -11t-1.5 -16.5t-2 -16.5t-1 -12q-2 -12 -5 -24l-6 -24q-22 -82 -68 -149.5t-109 -116t-140 -75.5t-162 -27q-106 0 -197.5 40.5t-158 110t-103.5 162.5t-34 198q2 1 2 4q2 63 19 120t50 111q11 19 28 42t37.5 45t42 40.5t41.5 28.5l1 4h4l2 3
q3 2 6.5 3t6.5 3q6 4 11.5 7.5t10.5 7.5q14 8 29.5 14t30.5 12q41 16 83.5 23.5t86.5 7.5q96 0 186.5 -35.5t159.5 -103.5q23 -23 44 -48.5t38 -54.5q5 -9 9 -19t9 -19q3 -6 6.5 -11t5.5 -11q8 -16 12.5 -32.5t9.5 -33.5q10 -39 13 -72.5t3 -74.5zM754 677
q-35 -3 -70.5 -2.5t-70.5 0.5h-27q-12 -36 -21.5 -72.5t-21.5 -72.5q6 -1 12 -0.5t12 0.5q9 0 14 -2v-324h145v159h110q8 33 18.5 65.5t18.5 66.5h-147q1 5 0.5 10.5t-0.5 10.5v6.5t2 5.5h123q9 40 21.5 79t22.5 79h-138q-5 -2 -3 -9zM134 670q-9 -35 -20 -70t-19 -70
q6 -1 12 -0.5t12 0.5h6.5t6.5 -2v-324h145v125v21.5t2 21.5q14 -1 28 -0.5t28 0.5h16.5t17.5 -2v-164q14 -2 28 -2h28q22 0 44 0.5t45 -0.5v471q-23 -1 -45 0t-44 1q-29 0 -56 -3v-152h-92q0 23 0.5 47t0.5 47q0 30 -3 60h-137q-2 0 -2.5 -2t-1.5 -3zM562 -63q-2 -4 -2.5 -8
t-3.5 -8q-3 0 -6 1t-7 1q-2 0 -3 -1q3 -5 9 -6t11 -5q3 -5 3 -11q0 -7 -3 -13q-8 -7 -21 -7q-9 0 -18 3v2q0 5 1.5 8.5t2.5 8.5q4 -1 7.5 -2.5t7.5 -1.5h3q0 5 -5 6t-9 2q-3 5 -6.5 7.5t-3.5 8.5q0 10 10 14t18 4q7 0 15 -3zM184 -61h37v-1q1 -5 -1.5 -8.5t-1.5 -8.5
q-3 -1 -6 -0.5t-6 0.5q-4 0 -5 -2q2 -3 7.5 -2.5t8.5 0.5h3q-1 -5 -3 -8t-1 -9h-15v-20h-10q-7 0 -9 2l1 36q0 1 -4 3q2 5 2.5 9t2.5 9zM246 -61q0 -6 -0.5 -12t-0.5 -12q0 -10 4 -17h3q5 0 5 6v10v25h10q6 0 8 -2l1 -18q0 -13 -3.5 -26t-20.5 -13q-11 0 -21 9q-2 8 -2 14.5
v14.5q0 2 -2 2.5t-4 0.5q2 5 3 9t3 9h17zM301 -63q0 -9 -0.5 -18.5t0.5 -18.5q1 -2 4.5 -2h5.5h2q-2 -5 -3 -9t-3 -9h-24v38q0 2 -2 2t-4 1q2 4 3 8.5t3 9.5h10q6 0 8 -2zM335 -61q0 -10 -0.5 -19.5t0.5 -19.5q0 -2 3.5 -2h5.5h2v-2q1 -5 -1.5 -8t-2.5 -8q-4 0 -7.5 -0.5
t-7.5 -0.5q-7 0 -11 3l1 35q0 4 -4 4q2 5 2.5 9t2.5 9h17zM367 -61h18q2 -6 4.5 -11.5t3.5 -12.5q5 4 6 11.5t3 12.5h19q-3 -15 -8.5 -30t-10.5 -29h-15q-5 14 -10.5 29t-9.5 30zM424 -61h39q-2 -5 -3.5 -9t-1.5 -9q-2 -1 -5 -0.5t-5 0.5q-4 0 -5 -2q2 -3 7.5 -2.5t8.5 0.5
h3q-1 -4 -2 -7.5t-2 -7.5h-15q2 -3 7.5 -2t8.5 0h3v-1q0 -5 -2 -9.5t-4 -9.5h-32v39q0 2 -2 1.5t-3 0.5q2 4 3 8.5t2 9.5zM514 -84q0 -5 -1.5 -10t-6.5 -8q0 -5 4 -8t4 -9v-1q-3 -1 -8 -1q-6 0 -11.5 2t-5.5 10q-2 -1 -2 -3v-4q0 -4 -1 -4h-17v38q0 2 -2 2t-2 2q0 5 2 8.5
t4 8.5h8q14 1 24.5 -2.5t10.5 -20.5zM488 -89h2q6 0 5 6v2q-2 0 -3 1t-3 1h-1v-10zM586 -61v-59h-17l1 38q0 2 -2 2.5t-4 0.5q2 5 3 9t2 9h17zM614 -63q2 2 8 2q5 0 10 -2.5t10 -4.5q5 -8 9 -21q-2 -11 -8.5 -21t-19.5 -10q-14 0 -22.5 9.5t-8.5 23.5q0 9 7 16t15 8z
M629 -81q-4 2 -8 2t-7.5 -2.5t-3.5 -7.5q0 -13 14 -13h1q7 5 7 12q0 4 -3 9zM674 -61q3 -5 6 -9t5 -9q2 1 2 5.5v7.5q0 4 2 5h16v-59h-15q-4 5 -7.5 11.5t-6.5 12.5q-3 -3 -2.5 -9.5t0.5 -11.5v-3h-17v38q0 2 -2 2t-4 1q2 5 3 9t3 9h17zM752 -63q3 3 8 3t10 -3t10 -5
q3 -5 6 -11t3 -12q0 -13 -8.5 -20.5t-20.5 -7.5q-14 0 -22 8t-8 22q0 9 7 17t15 9zM760 -102q11 0 11 12q0 5 -4 8t-8 3t-3 -2q-8 -1 -8 -10q0 -11 12 -11zM811 -61q4 -5 7 -9t5 -9q2 1 1.5 5.5t-0.5 7.5t2 5h17v-59h-15q-2 6 -6.5 11t-6.5 11q-3 -2 -2 -8t1 -9l-1 -3
q-2 -2 -8 -2h-10v38q0 2 -2 2t-2 3q0 5 2 8t2 8h16zM508 -158l-2 -10t-3 -10h-15q2 -3 7.5 -2t7.5 0h3q0 -1 0.5 -1.5t0.5 -1.5q0 -3 -1.5 -6t-1.5 -6q-2 -1 -5 -0.5t-6 0.5q-4 0 -5 -2q2 -2 8 -1.5t9 0.5l3 -1q-2 -5 -2.5 -9t-2.5 -9h-34v36q0 2 -2 2.5t-2 2.5t2.5 8.5
t3.5 8.5l6 -1q7 0 13.5 1.5t13.5 1.5zM553 -158q-2 -11 -6 -20h-15q0 -5 6.5 -4t9.5 1q1 0 1.5 -0.5t1.5 -0.5q-1 -8 -6 -17h-13v-18h-18q-2 7 -1 13.5t1 14.5q0 5 -2 9t-2 6q3 2 3 6.5t3 8.5l6 -1q7 0 13 1.5t13 1.5zM715 -158q-2 -5 -3 -13t-10 -7v-39h-19v37q0 3 -3 2.5
t-5 -0.5h-1q0 5 1.5 9.5t1.5 9.5l6 -1q7 0 13.5 1.5t13.5 1.5zM737 -219h-6v2q-4 0 -9 1t-5 6q3 5 1 11l4 2q4 0 7.5 -2t7.5 -2l2 1q0 3 -4 4.5t-8.5 3.5t-8 5t-3.5 11q0 10 9 14t17 4q7 0 15 -3v-3q0 -4 -1.5 -5.5t-0.5 -6.5q-2 -2 -3 -2q-3 0 -5.5 1t-5.5 1q-4 0 -5 -2
q8 -2 16 -6.5t8 -14.5q0 -7 -7.5 -13.5t-14.5 -6.5zM813 -219h-5v2q-13 1 -20 9.5t-7 20.5q0 13 9.5 20.5t21.5 7.5q10 0 18 -6q-2 -5 -4 -8.5t-3 -8.5q-4 4 -12 4q-3 0 -6 -1t-5 -5v-9q0 -3 3.5 -4t5.5 -1q4 0 7 1t7 1q1 0 1 -1q1 -4 2.5 -6.5t3.5 -6.5q-2 -5 -7.5 -5.5
t-9.5 -3.5zM80 -159h19q1 -5 2 -10.5t1 -10.5l4 10t2 11h15q2 -5 2.5 -10.5t2.5 -10.5q4 4 3.5 10t2.5 11h37v-3q0 -5 1.5 -8t0.5 -8q5 2 5.5 8t2.5 11h14q0 -6 2.5 -11t1.5 -10q4 4 4 10t2 11h37q2 -5 2 -10.5t2 -10.5q2 5 3.5 10t1.5 11h15q2 -5 3 -10.5t3 -10.5q3 4 3 10
t2 11h17q-1 -15 -5 -29.5t-6 -28.5h-19v2q1 5 -1.5 9t-1.5 9q-4 -4 -5 -9.5t-1 -10.5h-19q-3 13 -5.5 25.5t-7.5 24.5q-8 -26 -11 -50h-18q-2 5 -3 9.5t-3 8.5q-4 -3 -3.5 -8.5t-2.5 -9.5h-18q-2 14 -5.5 26t-5.5 26q-6 -12 -7.5 -25.5t-5.5 -26.5h-19v2q1 5 -2 9t-2 9
q-3 -4 -4 -9.5t-1 -10.5h-19q-2 14 -6.5 28.5t-6.5 29.5zM337 -159v-19h9q3 2 2 7.5t0 8.5v3q3 -1 5.5 -0.5t5.5 0.5h4t4 -2v-56h-19v20h-9q-3 -2 -2.5 -8t0.5 -9v-3h-19v33q1 1 1 3t-2 2.5t-2 2.5q0 5 1.5 8.5t1.5 8.5h19zM369 -159h18l6 -12q2 2 2.5 5.5t2.5 6.5h19
q-2 -9 -5 -15l-6 -12t-4.5 -13t0.5 -18h-19q0 18 -1 25t-3 10.5t-4.5 7t-5.5 15.5zM439 -206v-11h-18v37q0 2 -2.5 2h-3.5q2 5 3 9.5t3 9.5h9q11 0 22 -4.5t11 -18.5q0 -11 -11 -22h-1q-4 0 -5.5 -1.5t-6.5 -0.5zM439 -187l2 -1q4 0 4 5t-4 5h-2v-9zM584 -219v2q-14 0 -21 9
t-7 23q0 11 9.5 18t20.5 7q13 0 21.5 -8t8.5 -21q0 -11 -10.5 -21.5t-21.5 -8.5zM592 -178q-2 0 -2.5 0.5t-2.5 0.5q-12 0 -12 -12q0 -4 4 -10q2 0 3 -0.5t3 -0.5q10 0 12 13q-1 2 -2.5 4.5t-2.5 4.5zM640 -159q1 -6 4.5 -10t5.5 -9q2 2 1.5 7.5t-0.5 8.5v3h19v-58h-17
l-6 12t-9 10v-22h-16v37q0 2 -2 2h-4q2 5 3 9.5t3 9.5h18zM860 -219v2q-11 0 -19 8.5t-8 19.5q0 13 7.5 21t21.5 8q11 0 20.5 -7.5t9.5 -19.5q0 -13 -9.5 -23t-22.5 -9zM860 -200q9 0 13 7v3q1 7 -3 10t-10 2h-4q-4 -4 -4 -10q0 -9 8 -12zM897 -159h19q2 -3 3.5 -6.5
t5.5 -5.5q3 2 5 5.5t4 6.5h19v-58h-19v26q0 1 -1 1q-2 0 -3.5 -3.5t-2.5 -5.5h-1q-5 0 -5.5 4.5t-4.5 5.5v-28h-19v36q0 2 -2 2.5t-2 2.5q0 4 2 8t2 9zM303 -219q-8 4 -8 11q0 9 10 9q9 0 9 -9q0 -11 -11 -11zM771 -219h-2q-4 0 -6 4.5t-2 6.5q0 10 10 10q4 0 5.5 -3t3.5 -5
v-3q0 -5 -3.5 -6.5t-5.5 -3.5z" />
    <glyph glyph-name="seven" unicode="7" 
d="M988 435q0 -3 -0.5 -11t-1.5 -16.5t-2 -16.5t-1 -12q-2 -12 -5 -24l-6 -24q-22 -82 -68 -149.5t-109 -116t-140 -75.5t-162 -27q-106 0 -197.5 40.5t-158 110t-103.5 162.5t-34 198q2 1 2 4q2 63 19 120t50 111q11 19 28 42t37.5 45t42 40.5t41.5 28.5l1 4h4l2 3
q3 2 6.5 3t6.5 3q6 4 11.5 7.5t10.5 7.5q14 8 29.5 14t30.5 12q41 16 83.5 23.5t86.5 7.5q96 0 186.5 -35.5t159.5 -103.5q23 -23 44 -48.5t38 -54.5q5 -9 9 -19t9 -19q3 -6 6.5 -11t5.5 -11q8 -16 12.5 -32.5t9.5 -33.5q10 -39 13 -72.5t3 -74.5zM754 677
q-35 -3 -70.5 -2.5t-70.5 0.5h-27q-12 -36 -21.5 -72.5t-21.5 -72.5q6 -1 12 -0.5t12 0.5q9 0 14 -2v-324h145v159h110q8 33 18.5 65.5t18.5 66.5h-147q1 5 0.5 10.5t-0.5 10.5v6.5t2 5.5h123q9 40 21.5 79t22.5 79h-138q-5 -2 -3 -9zM134 670q-9 -35 -20 -70t-19 -70
q6 -1 12 -0.5t12 0.5h6.5t6.5 -2v-324h145v125v21.5t2 21.5q14 -1 28 -0.5t28 0.5h16.5t17.5 -2v-164q14 -2 28 -2h28q22 0 44 0.5t45 -0.5v471q-23 -1 -45 0t-44 1q-29 0 -56 -3v-152h-92q0 23 0.5 47t0.5 47q0 30 -3 60h-137q-2 0 -2.5 -2t-1.5 -3zM562 -63q-2 -4 -2.5 -8
t-3.5 -8q-3 0 -6 1t-7 1q-2 0 -3 -1q3 -5 9 -6t11 -5q3 -5 3 -11q0 -7 -3 -13q-8 -7 -21 -7q-9 0 -18 3v2q0 5 1.5 8.5t2.5 8.5q4 -1 7.5 -2.5t7.5 -1.5h3q0 5 -5 6t-9 2q-3 5 -6.5 7.5t-3.5 8.5q0 10 10 14t18 4q7 0 15 -3zM184 -61h37v-1q1 -5 -1.5 -8.5t-1.5 -8.5
q-3 -1 -6 -0.5t-6 0.5q-4 0 -5 -2q2 -3 7.5 -2.5t8.5 0.5h3q-1 -5 -3 -8t-1 -9h-15v-20h-10q-7 0 -9 2l1 36q0 1 -4 3q2 5 2.5 9t2.5 9zM246 -61q0 -6 -0.5 -12t-0.5 -12q0 -10 4 -17h3q5 0 5 6v10v25h10q6 0 8 -2l1 -18q0 -13 -3.5 -26t-20.5 -13q-11 0 -21 9q-2 8 -2 14.5
v14.5q0 2 -2 2.5t-4 0.5q2 5 3 9t3 9h17zM301 -63q0 -9 -0.5 -18.5t0.5 -18.5q1 -2 4.5 -2h5.5h2q-2 -5 -3 -9t-3 -9h-24v38q0 2 -2 2t-4 1q2 4 3 8.5t3 9.5h10q6 0 8 -2zM335 -61q0 -10 -0.5 -19.5t0.5 -19.5q0 -2 3.5 -2h5.5h2v-2q1 -5 -1.5 -8t-2.5 -8q-4 0 -7.5 -0.5
t-7.5 -0.5q-7 0 -11 3l1 35q0 4 -4 4q2 5 2.5 9t2.5 9h17zM367 -61h18q2 -6 4.5 -11.5t3.5 -12.5q5 4 6 11.5t3 12.5h19q-3 -15 -8.5 -30t-10.5 -29h-15q-5 14 -10.5 29t-9.5 30zM424 -61h39q-2 -5 -3.5 -9t-1.5 -9q-2 -1 -5 -0.5t-5 0.5q-4 0 -5 -2q2 -3 7.5 -2.5t8.5 0.5
h3q-1 -4 -2 -7.5t-2 -7.5h-15q2 -3 7.5 -2t8.5 0h3v-1q0 -5 -2 -9.5t-4 -9.5h-32v39q0 2 -2 1.5t-3 0.5q2 4 3 8.5t2 9.5zM514 -84q0 -5 -1.5 -10t-6.5 -8q0 -5 4 -8t4 -9v-1q-3 -1 -8 -1q-6 0 -11.5 2t-5.5 10q-2 -1 -2 -3v-4q0 -4 -1 -4h-17v38q0 2 -2 2t-2 2q0 5 2 8.5
t4 8.5h8q14 1 24.5 -2.5t10.5 -20.5zM488 -89h2q6 0 5 6v2q-2 0 -3 1t-3 1h-1v-10zM586 -61v-59h-17l1 38q0 2 -2 2.5t-4 0.5q2 5 3 9t2 9h17zM614 -63q2 2 8 2q5 0 10 -2.5t10 -4.5q5 -8 9 -21q-2 -11 -8.5 -21t-19.5 -10q-14 0 -22.5 9.5t-8.5 23.5q0 9 7 16t15 8z
M629 -81q-4 2 -8 2t-7.5 -2.5t-3.5 -7.5q0 -13 14 -13h1q7 5 7 12q0 4 -3 9zM674 -61q3 -5 6 -9t5 -9q2 1 2 5.5v7.5q0 4 2 5h16v-59h-15q-4 5 -7.5 11.5t-6.5 12.5q-3 -3 -2.5 -9.5t0.5 -11.5v-3h-17v38q0 2 -2 2t-4 1q2 5 3 9t3 9h17zM752 -63q3 3 8 3t10 -3t10 -5
q3 -5 6 -11t3 -12q0 -13 -8.5 -20.5t-20.5 -7.5q-14 0 -22 8t-8 22q0 9 7 17t15 9zM760 -102q11 0 11 12q0 5 -4 8t-8 3t-3 -2q-8 -1 -8 -10q0 -11 12 -11zM811 -61q4 -5 7 -9t5 -9q2 1 1.5 5.5t-0.5 7.5t2 5h17v-59h-15q-2 6 -6.5 11t-6.5 11q-3 -2 -2 -8t1 -9l-1 -3
q-2 -2 -8 -2h-10v38q0 2 -2 2t-2 3q0 5 2 8t2 8h16zM508 -158l-2 -10t-3 -10h-15q2 -3 7.5 -2t7.5 0h3q0 -1 0.5 -1.5t0.5 -1.5q0 -3 -1.5 -6t-1.5 -6q-2 -1 -5 -0.5t-6 0.5q-4 0 -5 -2q2 -2 8 -1.5t9 0.5l3 -1q-2 -5 -2.5 -9t-2.5 -9h-34v36q0 2 -2 2.5t-2 2.5t2.5 8.5
t3.5 8.5l6 -1q7 0 13.5 1.5t13.5 1.5zM553 -158q-2 -11 -6 -20h-15q0 -5 6.5 -4t9.5 1q1 0 1.5 -0.5t1.5 -0.5q-1 -8 -6 -17h-13v-18h-18q-2 7 -1 13.5t1 14.5q0 5 -2 9t-2 6q3 2 3 6.5t3 8.5l6 -1q7 0 13 1.5t13 1.5zM715 -158q-2 -5 -3 -13t-10 -7v-39h-19v37q0 3 -3 2.5
t-5 -0.5h-1q0 5 1.5 9.5t1.5 9.5l6 -1q7 0 13.5 1.5t13.5 1.5zM737 -219h-6v2q-4 0 -9 1t-5 6q3 5 1 11l4 2q4 0 7.5 -2t7.5 -2l2 1q0 3 -4 4.5t-8.5 3.5t-8 5t-3.5 11q0 10 9 14t17 4q7 0 15 -3v-3q0 -4 -1.5 -5.5t-0.5 -6.5q-2 -2 -3 -2q-3 0 -5.5 1t-5.5 1q-4 0 -5 -2
q8 -2 16 -6.5t8 -14.5q0 -7 -7.5 -13.5t-14.5 -6.5zM813 -219h-5v2q-13 1 -20 9.5t-7 20.5q0 13 9.5 20.5t21.5 7.5q10 0 18 -6q-2 -5 -4 -8.5t-3 -8.5q-4 4 -12 4q-3 0 -6 -1t-5 -5v-9q0 -3 3.5 -4t5.5 -1q4 0 7 1t7 1q1 0 1 -1q1 -4 2.5 -6.5t3.5 -6.5q-2 -5 -7.5 -5.5
t-9.5 -3.5zM80 -159h19q1 -5 2 -10.5t1 -10.5l4 10t2 11h15q2 -5 2.5 -10.5t2.5 -10.5q4 4 3.5 10t2.5 11h37v-3q0 -5 1.5 -8t0.5 -8q5 2 5.5 8t2.5 11h14q0 -6 2.5 -11t1.5 -10q4 4 4 10t2 11h37q2 -5 2 -10.5t2 -10.5q2 5 3.5 10t1.5 11h15q2 -5 3 -10.5t3 -10.5q3 4 3 10
t2 11h17q-1 -15 -5 -29.5t-6 -28.5h-19v2q1 5 -1.5 9t-1.5 9q-4 -4 -5 -9.5t-1 -10.5h-19q-3 13 -5.5 25.5t-7.5 24.5q-8 -26 -11 -50h-18q-2 5 -3 9.5t-3 8.5q-4 -3 -3.5 -8.5t-2.5 -9.5h-18q-2 14 -5.5 26t-5.5 26q-6 -12 -7.5 -25.5t-5.5 -26.5h-19v2q1 5 -2 9t-2 9
q-3 -4 -4 -9.5t-1 -10.5h-19q-2 14 -6.5 28.5t-6.5 29.5zM337 -159v-19h9q3 2 2 7.5t0 8.5v3q3 -1 5.5 -0.5t5.5 0.5h4t4 -2v-56h-19v20h-9q-3 -2 -2.5 -8t0.5 -9v-3h-19v33q1 1 1 3t-2 2.5t-2 2.5q0 5 1.5 8.5t1.5 8.5h19zM369 -159h18l6 -12q2 2 2.5 5.5t2.5 6.5h19
q-2 -9 -5 -15l-6 -12t-4.5 -13t0.5 -18h-19q0 18 -1 25t-3 10.5t-4.5 7t-5.5 15.5zM439 -206v-11h-18v37q0 2 -2.5 2h-3.5q2 5 3 9.5t3 9.5h9q11 0 22 -4.5t11 -18.5q0 -11 -11 -22h-1q-4 0 -5.5 -1.5t-6.5 -0.5zM439 -187l2 -1q4 0 4 5t-4 5h-2v-9zM584 -219v2q-14 0 -21 9
t-7 23q0 11 9.5 18t20.5 7q13 0 21.5 -8t8.5 -21q0 -11 -10.5 -21.5t-21.5 -8.5zM592 -178q-2 0 -2.5 0.5t-2.5 0.5q-12 0 -12 -12q0 -4 4 -10q2 0 3 -0.5t3 -0.5q10 0 12 13q-1 2 -2.5 4.5t-2.5 4.5zM640 -159q1 -6 4.5 -10t5.5 -9q2 2 1.5 7.5t-0.5 8.5v3h19v-58h-17
l-6 12t-9 10v-22h-16v37q0 2 -2 2h-4q2 5 3 9.5t3 9.5h18zM860 -219v2q-11 0 -19 8.5t-8 19.5q0 13 7.5 21t21.5 8q11 0 20.5 -7.5t9.5 -19.5q0 -13 -9.5 -23t-22.5 -9zM860 -200q9 0 13 7v3q1 7 -3 10t-10 2h-4q-4 -4 -4 -10q0 -9 8 -12zM897 -159h19q2 -3 3.5 -6.5
t5.5 -5.5q3 2 5 5.5t4 6.5h19v-58h-19v26q0 1 -1 1q-2 0 -3.5 -3.5t-2.5 -5.5h-1q-5 0 -5.5 4.5t-4.5 5.5v-28h-19v36q0 2 -2 2.5t-2 2.5q0 4 2 8t2 9zM303 -219q-8 4 -8 11q0 9 10 9q9 0 9 -9q0 -11 -11 -11zM771 -219h-2q-4 0 -6 4.5t-2 6.5q0 10 10 10q4 0 5.5 -3t3.5 -5
v-3q0 -5 -3.5 -6.5t-5.5 -3.5z" />
    <glyph glyph-name="eight" unicode="8" 
d="M988 435q0 -3 -0.5 -11t-1.5 -16.5t-2 -16.5t-1 -12q-2 -12 -5 -24l-6 -24q-22 -82 -68 -149.5t-109 -116t-140 -75.5t-162 -27q-106 0 -197.5 40.5t-158 110t-103.5 162.5t-34 198q2 1 2 4q2 63 19 120t50 111q11 19 28 42t37.5 45t42 40.5t41.5 28.5l1 4h4l2 3
q3 2 6.5 3t6.5 3q6 4 11.5 7.5t10.5 7.5q14 8 29.5 14t30.5 12q41 16 83.5 23.5t86.5 7.5q96 0 186.5 -35.5t159.5 -103.5q23 -23 44 -48.5t38 -54.5q5 -9 9 -19t9 -19q3 -6 6.5 -11t5.5 -11q8 -16 12.5 -32.5t9.5 -33.5q10 -39 13 -72.5t3 -74.5zM754 677
q-35 -3 -70.5 -2.5t-70.5 0.5h-27q-12 -36 -21.5 -72.5t-21.5 -72.5q6 -1 12 -0.5t12 0.5q9 0 14 -2v-324h145v159h110q8 33 18.5 65.5t18.5 66.5h-147q1 5 0.5 10.5t-0.5 10.5v6.5t2 5.5h123q9 40 21.5 79t22.5 79h-138q-5 -2 -3 -9zM134 670q-9 -35 -20 -70t-19 -70
q6 -1 12 -0.5t12 0.5h6.5t6.5 -2v-324h145v125v21.5t2 21.5q14 -1 28 -0.5t28 0.5h16.5t17.5 -2v-164q14 -2 28 -2h28q22 0 44 0.5t45 -0.5v471q-23 -1 -45 0t-44 1q-29 0 -56 -3v-152h-92q0 23 0.5 47t0.5 47q0 30 -3 60h-137q-2 0 -2.5 -2t-1.5 -3zM562 -63q-2 -4 -2.5 -8
t-3.5 -8q-3 0 -6 1t-7 1q-2 0 -3 -1q3 -5 9 -6t11 -5q3 -5 3 -11q0 -7 -3 -13q-8 -7 -21 -7q-9 0 -18 3v2q0 5 1.5 8.5t2.5 8.5q4 -1 7.5 -2.5t7.5 -1.5h3q0 5 -5 6t-9 2q-3 5 -6.5 7.5t-3.5 8.5q0 10 10 14t18 4q7 0 15 -3zM184 -61h37v-1q1 -5 -1.5 -8.5t-1.5 -8.5
q-3 -1 -6 -0.5t-6 0.5q-4 0 -5 -2q2 -3 7.5 -2.5t8.5 0.5h3q-1 -5 -3 -8t-1 -9h-15v-20h-10q-7 0 -9 2l1 36q0 1 -4 3q2 5 2.5 9t2.5 9zM246 -61q0 -6 -0.5 -12t-0.5 -12q0 -10 4 -17h3q5 0 5 6v10v25h10q6 0 8 -2l1 -18q0 -13 -3.5 -26t-20.5 -13q-11 0 -21 9q-2 8 -2 14.5
v14.5q0 2 -2 2.5t-4 0.5q2 5 3 9t3 9h17zM301 -63q0 -9 -0.5 -18.5t0.5 -18.5q1 -2 4.5 -2h5.5h2q-2 -5 -3 -9t-3 -9h-24v38q0 2 -2 2t-4 1q2 4 3 8.5t3 9.5h10q6 0 8 -2zM335 -61q0 -10 -0.5 -19.5t0.5 -19.5q0 -2 3.5 -2h5.5h2v-2q1 -5 -1.5 -8t-2.5 -8q-4 0 -7.5 -0.5
t-7.5 -0.5q-7 0 -11 3l1 35q0 4 -4 4q2 5 2.5 9t2.5 9h17zM367 -61h18q2 -6 4.5 -11.5t3.5 -12.5q5 4 6 11.5t3 12.5h19q-3 -15 -8.5 -30t-10.5 -29h-15q-5 14 -10.5 29t-9.5 30zM424 -61h39q-2 -5 -3.5 -9t-1.5 -9q-2 -1 -5 -0.5t-5 0.5q-4 0 -5 -2q2 -3 7.5 -2.5t8.5 0.5
h3q-1 -4 -2 -7.5t-2 -7.5h-15q2 -3 7.5 -2t8.5 0h3v-1q0 -5 -2 -9.5t-4 -9.5h-32v39q0 2 -2 1.5t-3 0.5q2 4 3 8.5t2 9.5zM514 -84q0 -5 -1.5 -10t-6.5 -8q0 -5 4 -8t4 -9v-1q-3 -1 -8 -1q-6 0 -11.5 2t-5.5 10q-2 -1 -2 -3v-4q0 -4 -1 -4h-17v38q0 2 -2 2t-2 2q0 5 2 8.5
t4 8.5h8q14 1 24.5 -2.5t10.5 -20.5zM488 -89h2q6 0 5 6v2q-2 0 -3 1t-3 1h-1v-10zM586 -61v-59h-17l1 38q0 2 -2 2.5t-4 0.5q2 5 3 9t2 9h17zM614 -63q2 2 8 2q5 0 10 -2.5t10 -4.5q5 -8 9 -21q-2 -11 -8.5 -21t-19.5 -10q-14 0 -22.5 9.5t-8.5 23.5q0 9 7 16t15 8z
M629 -81q-4 2 -8 2t-7.5 -2.5t-3.5 -7.5q0 -13 14 -13h1q7 5 7 12q0 4 -3 9zM674 -61q3 -5 6 -9t5 -9q2 1 2 5.5v7.5q0 4 2 5h16v-59h-15q-4 5 -7.5 11.5t-6.5 12.5q-3 -3 -2.5 -9.5t0.5 -11.5v-3h-17v38q0 2 -2 2t-4 1q2 5 3 9t3 9h17zM752 -63q3 3 8 3t10 -3t10 -5
q3 -5 6 -11t3 -12q0 -13 -8.5 -20.5t-20.5 -7.5q-14 0 -22 8t-8 22q0 9 7 17t15 9zM760 -102q11 0 11 12q0 5 -4 8t-8 3t-3 -2q-8 -1 -8 -10q0 -11 12 -11zM811 -61q4 -5 7 -9t5 -9q2 1 1.5 5.5t-0.5 7.5t2 5h17v-59h-15q-2 6 -6.5 11t-6.5 11q-3 -2 -2 -8t1 -9l-1 -3
q-2 -2 -8 -2h-10v38q0 2 -2 2t-2 3q0 5 2 8t2 8h16zM508 -158l-2 -10t-3 -10h-15q2 -3 7.5 -2t7.5 0h3q0 -1 0.5 -1.5t0.5 -1.5q0 -3 -1.5 -6t-1.5 -6q-2 -1 -5 -0.5t-6 0.5q-4 0 -5 -2q2 -2 8 -1.5t9 0.5l3 -1q-2 -5 -2.5 -9t-2.5 -9h-34v36q0 2 -2 2.5t-2 2.5t2.5 8.5
t3.5 8.5l6 -1q7 0 13.5 1.5t13.5 1.5zM553 -158q-2 -11 -6 -20h-15q0 -5 6.5 -4t9.5 1q1 0 1.5 -0.5t1.5 -0.5q-1 -8 -6 -17h-13v-18h-18q-2 7 -1 13.5t1 14.5q0 5 -2 9t-2 6q3 2 3 6.5t3 8.5l6 -1q7 0 13 1.5t13 1.5zM715 -158q-2 -5 -3 -13t-10 -7v-39h-19v37q0 3 -3 2.5
t-5 -0.5h-1q0 5 1.5 9.5t1.5 9.5l6 -1q7 0 13.5 1.5t13.5 1.5zM737 -219h-6v2q-4 0 -9 1t-5 6q3 5 1 11l4 2q4 0 7.5 -2t7.5 -2l2 1q0 3 -4 4.5t-8.5 3.5t-8 5t-3.5 11q0 10 9 14t17 4q7 0 15 -3v-3q0 -4 -1.5 -5.5t-0.5 -6.5q-2 -2 -3 -2q-3 0 -5.5 1t-5.5 1q-4 0 -5 -2
q8 -2 16 -6.5t8 -14.5q0 -7 -7.5 -13.5t-14.5 -6.5zM813 -219h-5v2q-13 1 -20 9.5t-7 20.5q0 13 9.5 20.5t21.5 7.5q10 0 18 -6q-2 -5 -4 -8.5t-3 -8.5q-4 4 -12 4q-3 0 -6 -1t-5 -5v-9q0 -3 3.5 -4t5.5 -1q4 0 7 1t7 1q1 0 1 -1q1 -4 2.5 -6.5t3.5 -6.5q-2 -5 -7.5 -5.5
t-9.5 -3.5zM80 -159h19q1 -5 2 -10.5t1 -10.5l4 10t2 11h15q2 -5 2.5 -10.5t2.5 -10.5q4 4 3.5 10t2.5 11h37v-3q0 -5 1.5 -8t0.5 -8q5 2 5.5 8t2.5 11h14q0 -6 2.5 -11t1.5 -10q4 4 4 10t2 11h37q2 -5 2 -10.5t2 -10.5q2 5 3.5 10t1.5 11h15q2 -5 3 -10.5t3 -10.5q3 4 3 10
t2 11h17q-1 -15 -5 -29.5t-6 -28.5h-19v2q1 5 -1.5 9t-1.5 9q-4 -4 -5 -9.5t-1 -10.5h-19q-3 13 -5.5 25.5t-7.5 24.5q-8 -26 -11 -50h-18q-2 5 -3 9.5t-3 8.5q-4 -3 -3.5 -8.5t-2.5 -9.5h-18q-2 14 -5.5 26t-5.5 26q-6 -12 -7.5 -25.5t-5.5 -26.5h-19v2q1 5 -2 9t-2 9
q-3 -4 -4 -9.5t-1 -10.5h-19q-2 14 -6.5 28.5t-6.5 29.5zM337 -159v-19h9q3 2 2 7.5t0 8.5v3q3 -1 5.5 -0.5t5.5 0.5h4t4 -2v-56h-19v20h-9q-3 -2 -2.5 -8t0.5 -9v-3h-19v33q1 1 1 3t-2 2.5t-2 2.5q0 5 1.5 8.5t1.5 8.5h19zM369 -159h18l6 -12q2 2 2.5 5.5t2.5 6.5h19
q-2 -9 -5 -15l-6 -12t-4.5 -13t0.5 -18h-19q0 18 -1 25t-3 10.5t-4.5 7t-5.5 15.5zM439 -206v-11h-18v37q0 2 -2.5 2h-3.5q2 5 3 9.5t3 9.5h9q11 0 22 -4.5t11 -18.5q0 -11 -11 -22h-1q-4 0 -5.5 -1.5t-6.5 -0.5zM439 -187l2 -1q4 0 4 5t-4 5h-2v-9zM584 -219v2q-14 0 -21 9
t-7 23q0 11 9.5 18t20.5 7q13 0 21.5 -8t8.5 -21q0 -11 -10.5 -21.5t-21.5 -8.5zM592 -178q-2 0 -2.5 0.5t-2.5 0.5q-12 0 -12 -12q0 -4 4 -10q2 0 3 -0.5t3 -0.5q10 0 12 13q-1 2 -2.5 4.5t-2.5 4.5zM640 -159q1 -6 4.5 -10t5.5 -9q2 2 1.5 7.5t-0.5 8.5v3h19v-58h-17
l-6 12t-9 10v-22h-16v37q0 2 -2 2h-4q2 5 3 9.5t3 9.5h18zM860 -219v2q-11 0 -19 8.5t-8 19.5q0 13 7.5 21t21.5 8q11 0 20.5 -7.5t9.5 -19.5q0 -13 -9.5 -23t-22.5 -9zM860 -200q9 0 13 7v3q1 7 -3 10t-10 2h-4q-4 -4 -4 -10q0 -9 8 -12zM897 -159h19q2 -3 3.5 -6.5
t5.5 -5.5q3 2 5 5.5t4 6.5h19v-58h-19v26q0 1 -1 1q-2 0 -3.5 -3.5t-2.5 -5.5h-1q-5 0 -5.5 4.5t-4.5 5.5v-28h-19v36q0 2 -2 2.5t-2 2.5q0 4 2 8t2 9zM303 -219q-8 4 -8 11q0 9 10 9q9 0 9 -9q0 -11 -11 -11zM771 -219h-2q-4 0 -6 4.5t-2 6.5q0 10 10 10q4 0 5.5 -3t3.5 -5
v-3q0 -5 -3.5 -6.5t-5.5 -3.5z" />
    <glyph glyph-name="nine" unicode="9" 
d="M988 435q0 -3 -0.5 -11t-1.5 -16.5t-2 -16.5t-1 -12q-2 -12 -5 -24l-6 -24q-22 -82 -68 -149.5t-109 -116t-140 -75.5t-162 -27q-106 0 -197.5 40.5t-158 110t-103.5 162.5t-34 198q2 1 2 4q2 63 19 120t50 111q11 19 28 42t37.5 45t42 40.5t41.5 28.5l1 4h4l2 3
q3 2 6.5 3t6.5 3q6 4 11.5 7.5t10.5 7.5q14 8 29.5 14t30.5 12q41 16 83.5 23.5t86.5 7.5q96 0 186.5 -35.5t159.5 -103.5q23 -23 44 -48.5t38 -54.5q5 -9 9 -19t9 -19q3 -6 6.5 -11t5.5 -11q8 -16 12.5 -32.5t9.5 -33.5q10 -39 13 -72.5t3 -74.5zM754 677
q-35 -3 -70.5 -2.5t-70.5 0.5h-27q-12 -36 -21.5 -72.5t-21.5 -72.5q6 -1 12 -0.5t12 0.5q9 0 14 -2v-324h145v159h110q8 33 18.5 65.5t18.5 66.5h-147q1 5 0.5 10.5t-0.5 10.5v6.5t2 5.5h123q9 40 21.5 79t22.5 79h-138q-5 -2 -3 -9zM134 670q-9 -35 -20 -70t-19 -70
q6 -1 12 -0.5t12 0.5h6.5t6.5 -2v-324h145v125v21.5t2 21.5q14 -1 28 -0.5t28 0.5h16.5t17.5 -2v-164q14 -2 28 -2h28q22 0 44 0.5t45 -0.5v471q-23 -1 -45 0t-44 1q-29 0 -56 -3v-152h-92q0 23 0.5 47t0.5 47q0 30 -3 60h-137q-2 0 -2.5 -2t-1.5 -3zM562 -63q-2 -4 -2.5 -8
t-3.5 -8q-3 0 -6 1t-7 1q-2 0 -3 -1q3 -5 9 -6t11 -5q3 -5 3 -11q0 -7 -3 -13q-8 -7 -21 -7q-9 0 -18 3v2q0 5 1.5 8.5t2.5 8.5q4 -1 7.5 -2.5t7.5 -1.5h3q0 5 -5 6t-9 2q-3 5 -6.5 7.5t-3.5 8.5q0 10 10 14t18 4q7 0 15 -3zM184 -61h37v-1q1 -5 -1.5 -8.5t-1.5 -8.5
q-3 -1 -6 -0.5t-6 0.5q-4 0 -5 -2q2 -3 7.5 -2.5t8.5 0.5h3q-1 -5 -3 -8t-1 -9h-15v-20h-10q-7 0 -9 2l1 36q0 1 -4 3q2 5 2.5 9t2.5 9zM246 -61q0 -6 -0.5 -12t-0.5 -12q0 -10 4 -17h3q5 0 5 6v10v25h10q6 0 8 -2l1 -18q0 -13 -3.5 -26t-20.5 -13q-11 0 -21 9q-2 8 -2 14.5
v14.5q0 2 -2 2.5t-4 0.5q2 5 3 9t3 9h17zM301 -63q0 -9 -0.5 -18.5t0.5 -18.5q1 -2 4.5 -2h5.5h2q-2 -5 -3 -9t-3 -9h-24v38q0 2 -2 2t-4 1q2 4 3 8.5t3 9.5h10q6 0 8 -2zM335 -61q0 -10 -0.5 -19.5t0.5 -19.5q0 -2 3.5 -2h5.5h2v-2q1 -5 -1.5 -8t-2.5 -8q-4 0 -7.5 -0.5
t-7.5 -0.5q-7 0 -11 3l1 35q0 4 -4 4q2 5 2.5 9t2.5 9h17zM367 -61h18q2 -6 4.5 -11.5t3.5 -12.5q5 4 6 11.5t3 12.5h19q-3 -15 -8.5 -30t-10.5 -29h-15q-5 14 -10.5 29t-9.5 30zM424 -61h39q-2 -5 -3.5 -9t-1.5 -9q-2 -1 -5 -0.5t-5 0.5q-4 0 -5 -2q2 -3 7.5 -2.5t8.5 0.5
h3q-1 -4 -2 -7.5t-2 -7.5h-15q2 -3 7.5 -2t8.5 0h3v-1q0 -5 -2 -9.5t-4 -9.5h-32v39q0 2 -2 1.5t-3 0.5q2 4 3 8.5t2 9.5zM514 -84q0 -5 -1.5 -10t-6.5 -8q0 -5 4 -8t4 -9v-1q-3 -1 -8 -1q-6 0 -11.5 2t-5.5 10q-2 -1 -2 -3v-4q0 -4 -1 -4h-17v38q0 2 -2 2t-2 2q0 5 2 8.5
t4 8.5h8q14 1 24.5 -2.5t10.5 -20.5zM488 -89h2q6 0 5 6v2q-2 0 -3 1t-3 1h-1v-10zM586 -61v-59h-17l1 38q0 2 -2 2.5t-4 0.5q2 5 3 9t2 9h17zM614 -63q2 2 8 2q5 0 10 -2.5t10 -4.5q5 -8 9 -21q-2 -11 -8.5 -21t-19.5 -10q-14 0 -22.5 9.5t-8.5 23.5q0 9 7 16t15 8z
M629 -81q-4 2 -8 2t-7.5 -2.5t-3.5 -7.5q0 -13 14 -13h1q7 5 7 12q0 4 -3 9zM674 -61q3 -5 6 -9t5 -9q2 1 2 5.5v7.5q0 4 2 5h16v-59h-15q-4 5 -7.5 11.5t-6.5 12.5q-3 -3 -2.5 -9.5t0.5 -11.5v-3h-17v38q0 2 -2 2t-4 1q2 5 3 9t3 9h17zM752 -63q3 3 8 3t10 -3t10 -5
q3 -5 6 -11t3 -12q0 -13 -8.5 -20.5t-20.5 -7.5q-14 0 -22 8t-8 22q0 9 7 17t15 9zM760 -102q11 0 11 12q0 5 -4 8t-8 3t-3 -2q-8 -1 -8 -10q0 -11 12 -11zM811 -61q4 -5 7 -9t5 -9q2 1 1.5 5.5t-0.5 7.5t2 5h17v-59h-15q-2 6 -6.5 11t-6.5 11q-3 -2 -2 -8t1 -9l-1 -3
q-2 -2 -8 -2h-10v38q0 2 -2 2t-2 3q0 5 2 8t2 8h16zM508 -158l-2 -10t-3 -10h-15q2 -3 7.5 -2t7.5 0h3q0 -1 0.5 -1.5t0.5 -1.5q0 -3 -1.5 -6t-1.5 -6q-2 -1 -5 -0.5t-6 0.5q-4 0 -5 -2q2 -2 8 -1.5t9 0.5l3 -1q-2 -5 -2.5 -9t-2.5 -9h-34v36q0 2 -2 2.5t-2 2.5t2.5 8.5
t3.5 8.5l6 -1q7 0 13.5 1.5t13.5 1.5zM553 -158q-2 -11 -6 -20h-15q0 -5 6.5 -4t9.5 1q1 0 1.5 -0.5t1.5 -0.5q-1 -8 -6 -17h-13v-18h-18q-2 7 -1 13.5t1 14.5q0 5 -2 9t-2 6q3 2 3 6.5t3 8.5l6 -1q7 0 13 1.5t13 1.5zM715 -158q-2 -5 -3 -13t-10 -7v-39h-19v37q0 3 -3 2.5
t-5 -0.5h-1q0 5 1.5 9.5t1.5 9.5l6 -1q7 0 13.5 1.5t13.5 1.5zM737 -219h-6v2q-4 0 -9 1t-5 6q3 5 1 11l4 2q4 0 7.5 -2t7.5 -2l2 1q0 3 -4 4.5t-8.5 3.5t-8 5t-3.5 11q0 10 9 14t17 4q7 0 15 -3v-3q0 -4 -1.5 -5.5t-0.5 -6.5q-2 -2 -3 -2q-3 0 -5.5 1t-5.5 1q-4 0 -5 -2
q8 -2 16 -6.5t8 -14.5q0 -7 -7.5 -13.5t-14.5 -6.5zM813 -219h-5v2q-13 1 -20 9.5t-7 20.5q0 13 9.5 20.5t21.5 7.5q10 0 18 -6q-2 -5 -4 -8.5t-3 -8.5q-4 4 -12 4q-3 0 -6 -1t-5 -5v-9q0 -3 3.5 -4t5.5 -1q4 0 7 1t7 1q1 0 1 -1q1 -4 2.5 -6.5t3.5 -6.5q-2 -5 -7.5 -5.5
t-9.5 -3.5zM80 -159h19q1 -5 2 -10.5t1 -10.5l4 10t2 11h15q2 -5 2.5 -10.5t2.5 -10.5q4 4 3.5 10t2.5 11h37v-3q0 -5 1.5 -8t0.5 -8q5 2 5.5 8t2.5 11h14q0 -6 2.5 -11t1.5 -10q4 4 4 10t2 11h37q2 -5 2 -10.5t2 -10.5q2 5 3.5 10t1.5 11h15q2 -5 3 -10.5t3 -10.5q3 4 3 10
t2 11h17q-1 -15 -5 -29.5t-6 -28.5h-19v2q1 5 -1.5 9t-1.5 9q-4 -4 -5 -9.5t-1 -10.5h-19q-3 13 -5.5 25.5t-7.5 24.5q-8 -26 -11 -50h-18q-2 5 -3 9.5t-3 8.5q-4 -3 -3.5 -8.5t-2.5 -9.5h-18q-2 14 -5.5 26t-5.5 26q-6 -12 -7.5 -25.5t-5.5 -26.5h-19v2q1 5 -2 9t-2 9
q-3 -4 -4 -9.5t-1 -10.5h-19q-2 14 -6.5 28.5t-6.5 29.5zM337 -159v-19h9q3 2 2 7.5t0 8.5v3q3 -1 5.5 -0.5t5.5 0.5h4t4 -2v-56h-19v20h-9q-3 -2 -2.5 -8t0.5 -9v-3h-19v33q1 1 1 3t-2 2.5t-2 2.5q0 5 1.5 8.5t1.5 8.5h19zM369 -159h18l6 -12q2 2 2.5 5.5t2.5 6.5h19
q-2 -9 -5 -15l-6 -12t-4.5 -13t0.5 -18h-19q0 18 -1 25t-3 10.5t-4.5 7t-5.5 15.5zM439 -206v-11h-18v37q0 2 -2.5 2h-3.5q2 5 3 9.5t3 9.5h9q11 0 22 -4.5t11 -18.5q0 -11 -11 -22h-1q-4 0 -5.5 -1.5t-6.5 -0.5zM439 -187l2 -1q4 0 4 5t-4 5h-2v-9zM584 -219v2q-14 0 -21 9
t-7 23q0 11 9.5 18t20.5 7q13 0 21.5 -8t8.5 -21q0 -11 -10.5 -21.5t-21.5 -8.5zM592 -178q-2 0 -2.5 0.5t-2.5 0.5q-12 0 -12 -12q0 -4 4 -10q2 0 3 -0.5t3 -0.5q10 0 12 13q-1 2 -2.5 4.5t-2.5 4.5zM640 -159q1 -6 4.5 -10t5.5 -9q2 2 1.5 7.5t-0.5 8.5v3h19v-58h-17
l-6 12t-9 10v-22h-16v37q0 2 -2 2h-4q2 5 3 9.5t3 9.5h18zM860 -219v2q-11 0 -19 8.5t-8 19.5q0 13 7.5 21t21.5 8q11 0 20.5 -7.5t9.5 -19.5q0 -13 -9.5 -23t-22.5 -9zM860 -200q9 0 13 7v3q1 7 -3 10t-10 2h-4q-4 -4 -4 -10q0 -9 8 -12zM897 -159h19q2 -3 3.5 -6.5
t5.5 -5.5q3 2 5 5.5t4 6.5h19v-58h-19v26q0 1 -1 1q-2 0 -3.5 -3.5t-2.5 -5.5h-1q-5 0 -5.5 4.5t-4.5 5.5v-28h-19v36q0 2 -2 2.5t-2 2.5q0 4 2 8t2 9zM303 -219q-8 4 -8 11q0 9 10 9q9 0 9 -9q0 -11 -11 -11zM771 -219h-2q-4 0 -6 4.5t-2 6.5q0 10 10 10q4 0 5.5 -3t3.5 -5
v-3q0 -5 -3.5 -6.5t-5.5 -3.5z" />
    <glyph glyph-name="A" unicode="A" horiz-adv-x="580" 
d="M368 305q-11 34 -34 93t-52 141l-90 -234h176zM282 682l275 -678q-14 -4 -22 -6t-13 -3.5t-9.5 -2.5t-10.5 -2l-111 262h-220l-52 -127q-14 -33 -29 -69t-27 -68q-7 2 -17.5 4.5t-37.5 8.5z" />
    <glyph glyph-name="B" unicode="B" horiz-adv-x="565" 
d="M322 58q26 0 49 9.5t40 27t26.5 40.5t9.5 50q0 26 -9.5 49t-26.5 40.5t-40 28t-49 10.5h-202v-255h202zM314 659q37 0 68 -14.5t54 -38.5t36 -55.5t13 -64.5q0 -43 -19 -80t-52 -61q40 -25 65 -68.5t25 -91.5q0 -38 -14.5 -72t-39 -59t-58 -39.5t-70.5 -14.5h-260v659
h252zM428 487q0 24 -9 44.5t-24.5 36t-36 24.5t-44.5 9h-194v-230h194q24 0 44.5 9t36 24.5t24.5 37t9 45.5z" />
    <glyph glyph-name="C" unicode="C" horiz-adv-x="602" 
d="M609 84q-52 -43 -110 -66.5t-122 -23.5q-70 0 -131 27t-106.5 72.5t-71.5 106.5t-26 130q0 70 26 131t71.5 107t106.5 72.5t131 26.5q54 0 108 -20t107 -58l-45 -36q-80 57 -170 57q-58 0 -108.5 -22t-88 -59.5t-59.5 -89t-22 -109.5q0 -57 22 -107.5t59.5 -88.5t88 -60
t108.5 -22q51 0 100.5 20.5t94.5 58.5z" />
    <glyph glyph-name="paragraph" unicode="&#xb6;" horiz-adv-x="614" 
d="M279 -36h-59v308q-47 4 -83.5 24.5t-61.5 50.5t-38.5 66.5t-13.5 74.5q0 49 14 90t41.5 71t69 46.5t95.5 16.5h313v-59h-59v-689h-59v689h-159v-689z" />
    <glyph glyph-name="logicalnot" unicode="&#xac;" horiz-adv-x="609" 
d="M466 322h-475v57h533v-311h-58v254z" />
    <glyph glyph-name="ogonek" unicode="&#x2db;" horiz-adv-x="233" 
d="M214 43q-39 -31 -64 -53t-39.5 -38t-19.5 -27.5t-5 -20.5q0 -5 1.5 -12t5.5 -14t9.5 -11.5t14.5 -4.5q23 0 39 9.5t27 22.5l53 -28q-32 -36 -62.5 -49t-56.5 -13q-23 0 -40 10.5t-28 26t-16.5 32.5t-5.5 30q0 20 8 39t21.5 37t30.5 34t34 30h93z" />
    <glyph glyph-name="section" unicode="&#xa7;" horiz-adv-x="476" 
d="M347 446q2 14 2.5 24.5t0.5 23.5h1q-4 52 -41.5 85t-91.5 33h-7q-11 -1 -25 -4.5t-26.5 -10.5t-21 -17.5t-8.5 -25.5v-5q1 -15 10 -26.5t22.5 -21t30 -17.5t34.5 -15h-1q3 -1 7 -3t7 -3l33 -14q45 -23 74 -42t46.5 -37t24.5 -37t8 -43v-4q0 -33 -20.5 -58.5t-47.5 -39.5
q17 -20 25 -40.5t8 -39.5q0 -30 -12.5 -51t-33.5 -34.5t-47.5 -21t-54.5 -8.5h-10q-38 0 -72 13.5t-60 37.5t-41.5 57t-15.5 72q0 5 0.5 12.5t4.5 27.5h57q-5 -28 -5 -43q0 -21 10 -42.5t28 -38.5t42 -27.5t53 -10.5h7v-1q49 3 69.5 21.5t20.5 35.5q0 15 -5 26t-19.5 22
t-40.5 25.5t-68 35.5l-61 31q-18 10 -36 22t-32.5 27.5t-23.5 35.5t-9 45q0 30 18.5 57t44.5 44q-11 12 -19 28t-10 41v5q0 34 15.5 56.5t37 35.5t45.5 18.5t42 6.5l9 1q36 0 69.5 -12.5t59.5 -35.5t42 -55t18 -71q0 -9 -0.5 -20t-4.5 -28zM367 290l1 -1q-1 14 -7.5 26.5
t-21 25t-37 26t-56.5 30.5q-6 2 -14 6t-13 7l-22 10q-23 12 -29.5 16t-13.5 6q-8 -3 -18 -9t-19 -15t-15.5 -21t-6.5 -27q0 -6 3 -14t10.5 -17t21.5 -19.5t36 -22.5l46 -23l36 -18q17 -8 32 -15.5t27 -16.5q10 4 20.5 10t19.5 14t14.5 17.5t5.5 20.5v4z" />
    <glyph glyph-name="periodcentered" unicode="&#xb7;" horiz-adv-x="157" 
d="M74 358q17 0 26 -11t9 -25q0 -16 -9 -25.5t-26 -9.5q-15 0 -24.5 9.5t-9.5 25.5q0 14 9.5 25t24.5 11z" />
    <glyph glyph-name="onesuperior" unicode="&#xb9;" horiz-adv-x="211" 
d="M141 771v-473h-57v293l-61 -90l-45 31z" />
    <glyph glyph-name="threesuperior" unicode="&#xb3;" horiz-adv-x="307" 
d="M216 603q0 26 -16.5 47t-41.5 23h-4q-23 0 -40.5 -20t-17.5 -46q0 -2 2 -12t4 -26l-60 1v9q-4 19 -4 29q0 24 10 46t26.5 38.5t38 26.5t45.5 10q25 0 46.5 -11t37 -28.5t24 -40t8.5 -46.5q0 -38 -24 -70l-67 -92l-22 -30q-5 -7 -8.5 -11.5l-7 -9t-8 -9.5t-10.5 -14h164
v-57h-274l187 255q5 9 8.5 19.5t3.5 18.5z" />
    <glyph glyph-name="twosuperior" unicode="&#xb2;" horiz-adv-x="336" 
d="M277 611q0 -23 -9.5 -44t-26.5 -37q23 -16 36.5 -39t13.5 -53q0 -27 -10.5 -51t-29 -43t-43.5 -30t-53 -11q-38 0 -73 27.5t-52 81.5l61 1q8 -26 26 -39.5t38 -13.5q15 0 29.5 6.5t25.5 17.5t17.5 25.5t6.5 30.5q0 25 -21 40t-46 15l-34 -9v70q37 0 61.5 15.5t25.5 37.5
q-2 27 -22 45.5t-47 18.5q-23 0 -41.5 -23t-18.5 -56l-59 -1q1 28 10.5 52.5t25.5 43t37.5 29.5t46.5 11q24 0 46.5 -9.5t40 -25.5t28 -37.5t10.5 -45.5z" />
    <glyph glyph-name="onehalf" unicode="&#xbd;" horiz-adv-x="737" 
d="M193 771v-473h-58v292l-62 -89l-44 31zM604 294q0 25 -16.5 46t-41.5 23h-4q-23 0 -41 -20t-18 -46q0 -1 2 -11.5t5 -25.5l-59 1q-2 12 -4 23t-2 14q0 25 10 47t27 38.5t38.5 26t45.5 9.5q25 0 46 -11t36.5 -28t24.5 -39.5t9 -46.5q0 -17 -6.5 -36t-17.5 -34l-68 -93
q-7 -10 -13 -17.5t-11 -15.5q-9 -12 -14.5 -18.5t-17.5 -22.5h165v-57h-273l187 256q2 7 6.5 18.5t4.5 19.5zM631 729l-496 -729h-65l496 729h65z" />
    <glyph glyph-name="onequarter" unicode="&#xbc;" horiz-adv-x="770" 
d="M194 771v-473h-58v293l-60 -90l-45 31zM632 729l-496 -729h-64l495 729h65zM634 476v-336h77v-58h-77v-82h-57v82h-244zM577 307q-16 -22 -33 -44.5t-33 -43.5q-17 -21 -30 -37t-32 -42h128v167z" />
    <glyph glyph-name="threequarters" unicode="&#xbe;" horiz-adv-x="848" 
d="M284 611q0 -48 -35 -81q22 -16 35.5 -39t13.5 -53q0 -27 -10.5 -51t-29 -43t-43.5 -30t-53 -11q-37 0 -72 27.5t-52 81.5l60 1q7 -26 25.5 -39.5t38.5 -13.5q15 0 29.5 6.5t25 17.5t17 25.5t6.5 30.5q0 22 -18.5 38.5t-43.5 16.5q-2 0 -7 -0.5t-30 -5.5v67h25
q26 0 43.5 16t17.5 38v5l1 -1q-2 23 -22.5 41t-46.5 18q-23 0 -42 -23t-19 -56l-58 -1q1 28 10.5 52.5t25.5 43t37.5 29.5t46.5 11q37 0 70 -23t47 -57q7 -19 7 -38zM707 476v-336h78v-58h-78v-82h-57v82h-244zM650 308q-17 -23 -31.5 -42.5l-29 -39t-30.5 -40.5t-36 -46
h127v168zM687 729l-497 -729h-63l496 729h64z" />
    <glyph glyph-name="ordfeminine" unicode="&#xaa;" horiz-adv-x="520" 
d="M341 486q0 26 -10 49t-27.5 40t-40.5 27t-49 10t-49 -10t-40.5 -27t-28 -40t-10.5 -49t10.5 -49t28 -40t40.5 -27t49 -10t49 10t40.5 27t27.5 40t10 49zM464 255q-49 28 -74 57t-35 54q-14 -17 -32.5 -28.5t-38 -19t-38 -11t-33.5 -3.5q-38 1 -71.5 16t-58.5 39
t-39.5 56.5t-14.5 70.5t14.5 71.5t40 58.5t59 39.5t71.5 14.5q78 0 127 -49v49h57v-211q0 -20 2 -39t8.5 -36.5t19.5 -34t36 -31.5v-63z" />
    <glyph glyph-name="dotaccent" unicode="&#x2d9;" horiz-adv-x="208" 
d="M116 670v-119h-61v119h61z" />
    <glyph glyph-name="hungarumlaut" unicode="&#x2dd;" horiz-adv-x="310" 
d="M34 723l109 82q24 0 46 1t45 1q-59 -43 -114.5 -84.5t-114.5 -84.5zM135 723l109 82q23 0 45 1t45 1l-227 -169z" />
    <glyph glyph-name="breve" unicode="&#x2d8;" horiz-adv-x="348" 
d="M89 670q6 -36 27 -59t50 -23q32 0 54.5 20.5t27.5 61.5h61q-11 -63 -50 -102t-93 -39q-53 0 -90 40t-48 101h61z" />
    <glyph glyph-name="approxequal" unicode="&#x2248;" horiz-adv-x="404" 
d="M360 403q-21 -41 -44.5 -57.5t-46.5 -16.5t-43 7t-39 17h1l-15 6q-14 6 -26.5 10.5t-20.5 4.5q-9 0 -19 -10t-22 -34l-55 22q23 44 46 61t46 17q18 0 36 -6t37 -14q1 0 2.5 -1t2.5 -1q1 -1 2 -1q18 -9 34.5 -15.5t29.5 -6.5q11 0 22 9t23 34zM360 261q-21 -41 -44.5 -57
t-46.5 -16t-43 7t-39 16q-17 8 -34.5 15t-26.5 7t-19 -9.5t-22 -34.5l-55 21q23 45 46 61.5t46 16.5q21 0 40.5 -6.5t38.5 -16.5h1l8 -4q16 -7 30.5 -12.5t25.5 -5.5t22 10t23 33z" />
    <glyph glyph-name="a" unicode="a" horiz-adv-x="478" 
d="M294 241q-16 43 -31.5 81t-32.5 83q-6 -15 -12 -31t-13 -35t-16 -43t-20 -55h125zM230 543q54 -126 110.5 -263t110.5 -269l-51 -14l-84 194h-169q-20 -48 -41.5 -98.5t-41.5 -97.5l-54 14z" />
    <glyph glyph-name="b" unicode="b" horiz-adv-x="480" 
d="M272 57q19 0 35.5 7t28.5 20t19 29.5t7 36.5q0 19 -7 36.5t-19 30.5t-28.5 20.5t-35.5 7.5h-155v-188h155zM265 526q30 0 55.5 -12t43.5 -31.5t28.5 -45t10.5 -52.5q0 -31 -14 -60t-37 -49q31 -20 48.5 -54t17.5 -72q0 -31 -11.5 -58.5t-31 -47.5t-46.5 -32t-57 -12h-211
v526h204zM347 385q0 36 -23.5 60.5t-58.5 24.5h-148v-169h148q35 0 58.5 24.5t23.5 59.5z" />
    <glyph glyph-name="c" unicode="c" horiz-adv-x="521" 
d="M490 73q-45 -37 -93 -57.5t-98 -20.5q-56 0 -105 21t-85.5 57.5t-57.5 85t-21 104.5q0 55 21 104.5t57.5 86t85.5 58t105 21.5q40 0 85 -17.5t93 -49.5l-46 -35q-65 44 -132 44q-44 0 -82.5 -16.5t-67.5 -45.5t-46 -67.5t-17 -82.5t17 -82t46 -66.5t67.5 -45t82.5 -16.5
q38 0 77 16t74 45z" />
    <glyph glyph-name="d" unicode="d" horiz-adv-x="548" 
d="M227 526q54 0 102 -21t83.5 -57t56 -84t20.5 -102t-20.5 -102t-56 -83.5t-83.5 -56t-102 -20.5h-165v526h165zM434 262q0 43 -16.5 80.5t-44.5 66t-65.5 45t-80.5 16.5h-109v-413h109q43 0 80.5 16t65.5 43.5t44.5 65t16.5 80.5z" />
    <glyph glyph-name="e" unicode="e" horiz-adv-x="394" 
d="M61 0v526h310v-56h-253v-134h170v-56h-170v-223h270v-57h-327z" />
    <glyph glyph-name="f" unicode="f" horiz-adv-x="366" 
d="M362 470h-246v-136h194v-56h-194v-278h-56v526h302v-56z" />
    <glyph glyph-name="g" unicode="g" horiz-adv-x="615" 
d="M570 332q0 -5 0.5 -15.5t0.5 -18.5v-23q0 -31 -4.5 -63t-14.5 -55q-17 -36 -43.5 -65.5t-59 -51t-68.5 -33.5t-73 -12q-54 0 -102.5 21.5t-85 58.5t-57.5 85.5t-21 102.5q0 55 21.5 104.5t58.5 86t85 58t101 21.5q26 0 55.5 -7.5t65.5 -21.5l-13 -60q-34 18 -60.5 24.5
t-46.5 6.5q-44 0 -82 -18t-66.5 -47.5t-44.5 -67.5t-16 -79q0 -45 17 -83t46 -66.5t66.5 -44.5t78.5 -16q59 0 111 34.5t80 91.5v-1q7 20 12 44.5t5 51.5h-186v58h240z" />
    <glyph glyph-name="h" unicode="h" horiz-adv-x="560" 
d="M416 272h-298v-272h-57v526h57v-196h298v196h57v-526h-57v272z" />
    <glyph glyph-name="i" unicode="i" horiz-adv-x="212" 
d="M112 526v-526h-57v526h57z" />
    <glyph glyph-name="j" unicode="j" horiz-adv-x="280" 
d="M220 197q0 -35 -8 -71.5t-32 -63.5q-32 -38 -83.5 -52.5t-108.5 -14.5v56q42 1 83.5 11t65.5 37q17 18 21.5 44.5t4.5 53.5v329h57v-329v0z" />
    <glyph glyph-name="k" unicode="k" horiz-adv-x="470" 
d="M432 30l-45 -37l-268 246l-2 -2v-237h-55v526h55v-210q61 54 123.5 109t122.5 109l41 -41l-242 -215z" />
    <glyph glyph-name="l" unicode="l" horiz-adv-x="417" 
d="M410 57v-57h-349v526h56v-469h293z" />
    <glyph glyph-name="m" unicode="m" horiz-adv-x="611" 
d="M521 535v-535h-57v377q-14 -18 -28.5 -36.5t-28.5 -36.5l-114 -141l-174 217v-380h-56v538l230 -285z" />
    <glyph glyph-name="n" unicode="n" horiz-adv-x="495" 
d="M449 525v-546l-352 419v-398h-49v538l351 -419v406h50z" />
    <glyph glyph-name="o" unicode="o" horiz-adv-x="678" 
d="M312 531q55 0 104 -21t85 -58t57 -86t21 -104q0 -56 -21 -104.5t-57 -85t-85 -57.5t-104 -21q-56 0 -104.5 21t-85.5 57.5t-58 85t-21 104.5q0 55 21 104t58 86t85.5 58t104.5 21zM523 262q0 44 -16.5 82.5t-45.5 67t-67.5 45t-81.5 16.5q-44 0 -83 -16.5t-67.5 -45
t-45 -67t-16.5 -82.5t16.5 -82t45 -66.5t67.5 -45t83 -16.5q43 0 81.5 16.5t67.5 45t45.5 66.5t16.5 82z" />
    <glyph glyph-name="p" unicode="p" horiz-adv-x="419" 
d="M117 470v-216h120q21 0 40 8.5t33 22.5t22 33.5t8 41.5q0 23 -8 43t-22 35t-33 23.5t-41 8.5h-119zM61 0v526h175q33 0 62 -13t51 -35.5t34.5 -53t12.5 -64.5t-12.5 -64t-34 -52t-50.5 -34.5t-62 -12.5h-120v-197h-56z" />
    <glyph glyph-name="q" unicode="q" horiz-adv-x="615" 
d="M557 262q0 -69 -32 -128t-92 -97q32 -16 57.5 -26.5t41.5 -10.5q1 0 3 1l3 1.5t3 2.5l13 7l7 -51v-1q0 -1 -0.5 -1t-0.5 -1q-2 -3 -5.5 -6.5t-5.5 -4.5h2q-6 -3 -19 -3q-29 0 -69.5 16t-91.5 46q-18 -6 -39 -9t-42 -3q-56 0 -104.5 21t-85 57.5t-57.5 85t-21 104.5
q0 55 21 104t57.5 86t85 58t104.5 21t104.5 -21t84.5 -58t57 -86t21 -104zM379 70q57 29 89 80t32 112q0 44 -16 82.5t-44.5 67t-67 45t-82.5 16.5t-82.5 -16.5t-67.5 -45t-45.5 -67t-16.5 -82.5q0 -36 16 -76h11q15 0 37.5 -3.5t49 -11.5t55.5 -22t58 -35l45 -29
q8 -5 13 -8t12 -8h2zM290 52h4.5t0 0t0 0h3.5l-22 16l2 -1l-2 2q-41 26 -81 40t-67 18q28 -32 71 -53.5t91 -21.5zM376 69h1l2 1z" />
    <glyph glyph-name="r" unicode="r" horiz-adv-x="474" 
d="M117 196v-196h-55v526h153q35 0 65 -14t51.5 -37t34 -52.5t12.5 -61.5q0 -49 -22.5 -88.5t-67.5 -58.5l47 -60q12 -15 27.5 -35.5t32 -42t31.5 -41.5t26 -35h-72l-152 196h-111zM117 470v-217h98q22 0 42 8.5t34.5 23t23 34t8.5 41.5q0 23 -8.5 43t-23 35t-34.5 23.5
t-42 8.5h-98z" />
    <glyph glyph-name="s" unicode="s" horiz-adv-x="416" 
d="M374 148q0 -37 -15.5 -65.5t-42 -48t-62.5 -29.5t-76 -10q-17 0 -37.5 3t-43 7.5t-44.5 10t-41 11.5l15 49q35 -8 72.5 -16t62.5 -8h32q25 0 47.5 6.5t40 19t27.5 31.5t10 44q0 12 -5 24.5t-11 20.5q-9 12 -22 19.5t-28.5 13t-31.5 8t-30 3.5q-28 1 -56 6t-54 19
q-28 18 -48 49t-20 68q0 54 40 92t106 52q11 2 31 4.5t38 2.5q12 0 28.5 -3t35 -7.5t36.5 -10.5t32 -11l-8 -26q-2 -4 -3 -8.5t-3 -15.5q-42 14 -73 20t-63 6q-24 0 -49 -5.5t-46 -17.5t-34.5 -30t-13.5 -43q0 -15 11 -34.5t28 -31.5q17 -11 35 -14t37 -5l-1 1h7
q1 0 1.5 -0.5t1.5 -0.5h1h-1h1q29 -2 61 -9.5t61 -25.5q28 -19 46 -51t18 -64z" />
    <glyph glyph-name="t" unicode="t" horiz-adv-x="467" 
d="M451 526v-56h-198v-470h-57v470h-200v56h455z" />
    <glyph glyph-name="u" unicode="u" horiz-adv-x="559" 
d="M269 -6q-44 0 -83 16.5t-68.5 44t-46.5 65t-17 79.5v327h56v-327q0 -31 12.5 -57.5t34.5 -46.5t50.5 -31.5t61.5 -11.5q32 0 60.5 11.5t49.5 31.5t33 46.5t12 57.5v327h57v-327q0 -42 -17 -79.5t-45.5 -65t-67.5 -44t-82 -16.5z" />
    <glyph glyph-name="v" unicode="v" horiz-adv-x="510" 
d="M62 528l183 -395q10 24 23.5 54t28 62t30 65t29.5 64q33 72 70 148l58 -12l-239 -524l-237 522z" />
    <glyph glyph-name="w" unicode="w" horiz-adv-x="840" 
d="M351 518l42 -102q9 22 17 40.5t14 32.5q7 16 12 29l56 -15l-66 -159q8 -20 16.5 -36.5t20.5 -38.5t28 -53.5t38 -80.5q10 25 23.5 55.5t28.5 63t30.5 65.5t29.5 63q33 71 69 145l57 -14l-238 -521l-135 280q-16 -38 -33 -72t-34.5 -68t-34 -68.5t-32.5 -72.5l-239 522
l56 14l183 -395q8 18 16 32.5t19.5 35.5t27.5 54.5t40 90.5l-3 7l-3 9v-1l-61 143z" />
    <glyph glyph-name="x" unicode="x" horiz-adv-x="575" 
d="M511 497l-199 -233q26 -31 53 -63t55 -65q22 -26 46 -55t44 -53l-39 -40l-195 229q-21 -26 -43.5 -51.5t-45.5 -53.5q-26 -31 -53.5 -64t-50.5 -61l-41 41l197 236q-22 26 -45 52.5t-47 54.5l-105 125l40 40l193 -230l195 229z" />
    <glyph glyph-name="y" unicode="y" horiz-adv-x="407" 
d="M166 212l-171 300l51 25l149 -263q37 66 75 132t75 131l51 -25l-174 -302v-210h-56v212z" />
    <glyph glyph-name="z" unicode="z" horiz-adv-x="444" 
d="M428 56v-56h-446l336 471h-308v55h417l-338 -470h339z" />
    <glyph glyph-name="thorn" unicode="&#xfe;" horiz-adv-x="523" 
d="M458 247q0 -48 -14.5 -94t-41.5 -81t-64.5 -56.5t-82.5 -21.5q-46 0 -85.5 23.5t-67.5 60.5v-271h-58v842h58v-233q28 37 68 62t85 25t82.5 -21.5t64.5 -57.5t41.5 -82t14.5 -95zM403 247q0 36 -10.5 72t-30 64.5t-47 46t-60.5 17.5q-30 0 -55.5 -16.5t-45.5 -43
t-33.5 -59t-18.5 -64.5v-35q5 -31 18.5 -63t33.5 -57.5t45.5 -41.5t55.5 -16q33 0 60.5 17.5t47 45t30 62.5t10.5 71z" />
    <glyph glyph-name="LF" unicode="&#xa;" horiz-adv-x="0" 
 />
    <glyph glyph-name="Thorn" unicode="&#xde;" horiz-adv-x="591" 
d="M102 659v-94h242q40 0 76 -16t63 -44t43 -65t16 -79t-15.5 -79t-42 -64t-62.5 -43t-76 -16h-244v-159h-59v659h59zM102 507v-290h244q28 0 53.5 11t44 30.5t29.5 46t11 56.5q0 31 -11 57.5t-30 46t-44.5 31t-53.5 11.5h-243z" />
    <glyph glyph-name="E" unicode="E" horiz-adv-x="471" 
d="M61 0v659h382v-58h-325v-185h219v-58h-219v-300h347v-58h-404z" />
    </font>
</defs>
</svg>
